<svg width="21" height="20" viewBox="0 0 21 20" fill="none" xmlns="http://www.w3.org/2000/svg">
<path d="M11.5957 3.44043L11.8682 4.00781L12.3584 3.61426L14.3369 2.03125L14.333 4.56543L14.332 5.19434L14.9453 5.05371L17.4141 4.48535L16.3115 6.7666L16.0381 7.33301L16.6514 7.47168L19.1221 8.03125L17.1387 9.6084L16.6465 10L17.1387 10.3916L19.1221 11.9678L16.6514 12.5283L16.0381 12.667L16.3115 13.2334L17.4141 15.5137L14.9453 14.9463L14.332 14.8057L14.333 15.4346L14.3369 17.9678L12.3584 16.3857L11.8682 15.9922L11.5957 16.5596L10.5 18.8428L9.4043 16.5596L9.13184 15.9922L8.6416 16.3857L6.66211 17.9678L6.66699 15.4346L6.66797 14.8057L6.05469 14.9463L3.58496 15.5137L4.68848 13.2334L4.96191 12.667L4.34863 12.5283L1.87695 11.9678L3.86133 10.3916L4.35352 10L3.86133 9.6084L1.87695 8.03125L4.34863 7.47168L4.96191 7.33301L4.68848 6.7666L3.58496 4.48535L6.05469 5.05371L6.66797 5.19434L6.66699 4.56543L6.66211 2.03125L8.6416 3.61426L9.13184 4.00781L9.4043 3.44043L10.5 1.15625L11.5957 3.44043Z" stroke="#11998E"/>
</svg>
