<svg width="29" height="28" viewBox="0 0 29 28" fill="none" xmlns="http://www.w3.org/2000/svg">
<rect x="1" y="0.5" width="27" height="27" rx="13.5" stroke="#FF8235"/>
<path d="M18.2937 19.3937C18.6737 19.3937 19.047 19.2937 19.3937 19.0937C20.087 18.6937 20.4937 17.987 20.4937 17.187V10.807C20.4937 10.0137 20.0803 9.30034 19.3937 8.90034C18.7003 8.50034 17.8803 8.50034 17.1937 8.90034L11.667 12.087C10.9803 12.487 10.567 13.2003 10.567 13.9937C10.567 14.787 10.9803 15.5003 11.667 15.9003L17.1937 19.087C17.5403 19.2937 17.9137 19.3937 18.2937 19.3937ZM18.2937 9.60701C18.5003 9.60701 18.707 9.66033 18.8937 9.767C19.267 9.987 19.4937 10.3737 19.4937 10.807V17.187C19.4937 17.6203 19.267 18.007 18.8937 18.227C18.5203 18.4403 18.067 18.447 17.6937 18.227L12.167 15.0403C11.7937 14.8203 11.567 14.4337 11.567 14.0003C11.567 13.567 11.7937 13.1803 12.167 12.9603L17.6937 9.77367C17.8803 9.66701 18.087 9.60701 18.2937 9.60701Z" fill="#FF8235"/>
<path d="M9.00635 18.6201C9.27968 18.6201 9.50635 18.3935 9.50635 18.1201V9.88013C9.50635 9.60679 9.27968 9.38013 9.00635 9.38013C8.73301 9.38013 8.50635 9.60679 8.50635 9.88013V18.1201C8.50635 18.3935 8.72635 18.6201 9.00635 18.6201Z" fill="#FF8235"/>
</svg>
