<svg width="16" height="16" viewBox="0 0 16 16" fill="none" xmlns="http://www.w3.org/2000/svg">
<path d="M4.20658 13.3934C3.82658 13.3934 3.45325 13.2934 3.10659 13.0934C2.41325 12.6934 2.00659 11.9868 2.00659 11.1868V4.80675C2.00659 4.01342 2.41992 3.3001 3.10659 2.9001C3.79992 2.5001 4.61991 2.5001 5.30658 2.9001L10.8333 6.08676C11.5199 6.48676 11.9332 7.20009 11.9332 7.99342C11.9332 8.78675 11.5199 9.5001 10.8333 9.9001L5.30658 13.0868C4.95991 13.2934 4.58658 13.3934 4.20658 13.3934ZM4.20658 3.60676C3.99992 3.60676 3.79325 3.66009 3.60659 3.76676C3.23325 3.98676 3.00659 4.37342 3.00659 4.80675V11.1868C3.00659 11.6201 3.23325 12.0068 3.60659 12.2268C3.97992 12.4401 4.43325 12.4468 4.80658 12.2268L10.3333 9.04009C10.7066 8.82009 10.9332 8.43343 10.9332 8.00009C10.9332 7.56676 10.7066 7.1801 10.3333 6.9601L4.80658 3.77343C4.61991 3.66676 4.41325 3.60676 4.20658 3.60676Z" fill="#11998E"/>
<path d="M13.4934 12.6204C13.2201 12.6204 12.9934 12.3937 12.9934 12.1204V3.88037C12.9934 3.60704 13.2201 3.38037 13.4934 3.38037C13.7667 3.38037 13.9934 3.60704 13.9934 3.88037V12.1204C13.9934 12.3937 13.7734 12.6204 13.4934 12.6204Z" fill="#11998E"/>
</svg>
