<svg width="24" height="24" viewBox="0 0 24 24" fill="none" xmlns="http://www.w3.org/2000/svg">
<path d="M12 4.9057V20.0915M12 4.9057L12.9901 4.53414C15.2433 3.68861 17.7567 3.68861 20.0099 4.53414C20.6079 4.75855 21 5.30192 21 5.90616V18.3718C21 19.2015 20.1068 19.7688 19.2856 19.4607C17.4974 18.7896 15.5026 18.7896 13.7144 19.4607L12.0123 20.0994C12.0064 20.1016 12 20.0975 12 20.0915M12 4.9057L11.0099 4.53414C8.75674 3.68861 6.24326 3.68861 3.99013 4.53414C3.39212 4.75855 3 5.30192 3 5.90616V18.3718C3 19.2015 3.89322 19.7688 4.71436 19.4607C6.50258 18.7896 8.49742 18.7896 10.2856 19.4607L11.9877 20.0994C11.9936 20.1016 12 20.0975 12 20.0915" stroke="#01325C"/>
</svg>
