<svg width="23" height="23" viewBox="0 0 23 23" fill="none" xmlns="http://www.w3.org/2000/svg">
<g clip-path="url(#clip0_1_61009)">
<path d="M0 12.7241C0 9.43939 0 6.15528 0 2.87116C0.0101242 2.85999 0.0264355 2.85 0.0286853 2.83766C0.165925 2.08553 0.879121 1.52025 1.63394 1.6366C1.70087 1.64659 1.78805 1.59253 1.84936 1.54493C2.43825 1.08895 3.02771 0.633559 3.6076 0.165238C3.79771 0.0118737 3.9822 -0.0198569 4.21224 0.0365531C5.4834 0.349158 6.75455 0.661764 8.0302 0.95204C9.11181 1.19825 10.068 1.67068 10.7997 2.55855C11.0551 2.86822 11.2671 3.21784 11.5051 3.55689C11.5264 3.5234 11.5574 3.48168 11.5816 3.43584C12.2419 2.21891 13.2138 1.41037 14.5142 1.07426C15.9552 0.701721 17.4058 0.367374 18.8519 0.0171621C19.0296 -0.025733 19.1826 0.0136365 19.3333 0.134095C19.9273 0.609467 20.5269 1.07661 21.1287 1.53964C21.2069 1.59958 21.3171 1.6601 21.4066 1.65129C22.2429 1.56844 23.0242 2.28825 22.9994 3.31891C22.9702 4.5376 22.9927 5.75805 22.9927 6.97792C22.9927 8.75249 22.9972 10.5276 22.991 12.3022C22.9871 13.3893 22.5663 14.2654 21.6777 14.8401C21.2823 15.0957 20.8278 15.2532 20.3947 15.4418C19.9914 15.6175 19.5819 15.7761 19.1314 15.96C19.3727 16.1992 19.5752 16.416 19.794 16.614C20.4088 17.1705 21.1371 17.5013 21.8976 17.7798C22.5686 18.0255 22.9871 18.6795 22.9921 19.4204C22.9966 20.0927 22.9933 20.7655 22.9927 21.4377C22.9927 21.7685 22.892 22.0664 22.712 22.3355C22.3549 22.8691 21.6299 23.2181 20.7271 22.845C17.7157 21.5993 14.6976 20.3718 11.6789 19.1449C11.5748 19.1025 11.4291 19.0996 11.3256 19.1407C9.2153 19.9898 7.10833 20.8477 5.00081 21.7039C4.04069 22.094 3.08339 22.4907 2.12046 22.8714C1.38814 23.1605 0.683948 22.9226 0.257043 22.2474C0.148489 22.0752 0.0843686 21.8731 0 21.6851C0 20.8248 0 19.9646 0 19.1049C0.0163113 19.072 0.0382471 19.0408 0.0478089 19.0056C0.208672 18.3992 0.56302 17.962 1.13279 17.7593C1.86117 17.5007 2.54512 17.1664 3.14639 16.6599C3.19757 16.617 3.26169 16.5864 3.32468 16.5653C3.52211 16.4995 3.75046 16.6199 3.81009 16.8244C3.87927 17.0606 3.77578 17.2228 3.60029 17.3674C2.95796 17.895 2.24308 18.2734 1.46689 18.5308C1.11592 18.6472 0.861122 18.8869 0.831312 19.2694C0.793065 19.753 0.822312 20.2425 0.822312 20.7502C3.29262 19.7454 5.74381 18.7488 8.23606 17.7352C8.13594 17.6917 8.08307 17.6682 8.02964 17.6459C6.00761 16.8179 3.98726 15.9877 1.96354 15.165C1.24641 14.8736 0.665387 14.4188 0.323413 13.6884C0.181674 13.3846 0.105742 13.0461 0 12.7241ZM11.8988 11.8697C11.9697 11.788 11.9961 11.7604 12.0191 11.7305C12.5945 10.9772 13.3128 10.4207 14.1975 10.1539C15.057 9.89538 15.9355 9.70675 16.8068 9.4911C17.4002 9.3442 17.9953 9.20318 18.5909 9.05921V0.965555C18.5065 0.980245 18.4334 0.989059 18.362 1.00669C17.3366 1.25289 16.3135 1.51026 15.2859 1.74472C14.4332 1.93922 13.6278 2.22832 12.9995 2.89466C12.3347 3.5992 11.8718 4.40598 11.8988 5.44134C11.9038 5.63642 11.9061 5.83268 11.896 6.02776C11.8836 6.26163 11.739 6.4197 11.5394 6.43909C11.2818 6.46377 11.1012 6.29395 11.0939 6.00837C11.0849 5.64935 11.1479 5.27387 11.0703 4.93306C10.7356 3.46522 9.88912 2.4375 8.49873 1.98152C7.71748 1.72533 6.90697 1.56667 6.10885 1.36865C5.5447 1.2288 4.97887 1.09659 4.38323 0.953803C4.38323 1.10541 4.38548 1.2288 4.38323 1.3522C4.3776 1.62543 4.38885 1.90102 4.35679 2.17014C4.32248 2.45748 4.04013 2.60086 3.7994 2.47687C3.61435 2.38168 3.56373 2.2054 3.56148 2.00796C3.55867 1.77939 3.56092 1.55081 3.56092 1.27287C3.1492 1.59429 2.78979 1.88516 2.41913 2.15957C2.28189 2.26122 2.23296 2.36993 2.23352 2.54621C2.23914 5.02472 2.23745 7.50324 2.23802 9.98175C2.23802 10.0628 2.24533 10.1445 2.25095 10.2662C2.65255 9.93768 3.01871 9.63095 3.3933 9.33715C3.52042 9.23785 3.56485 9.12914 3.56429 8.96402C3.5581 7.49384 3.55979 6.02424 3.5626 4.55405C3.5626 4.4383 3.57048 4.31784 3.60029 4.20737C3.65147 4.01933 3.79827 3.92532 3.97264 3.92649C4.15712 3.92767 4.30617 4.02697 4.35229 4.22852C4.37817 4.34075 4.3821 4.46062 4.38267 4.57697C4.38435 6.00015 4.38717 7.42332 4.37985 8.84591C4.37929 9.01221 4.42935 9.07625 4.58009 9.11151C5.70894 9.37535 6.83386 9.6574 7.96383 9.91359C8.86208 10.1169 9.69226 10.4548 10.3931 11.0959C10.6378 11.3197 10.8948 11.5295 11.1462 11.7452C11.0922 11.7487 11.0922 11.6799 11.0922 11.6112C11.0922 11.0641 11.0888 10.5165 11.095 9.96941C11.0978 9.71909 11.2632 9.54458 11.4798 9.53694C11.6952 9.5293 11.8718 9.69794 11.896 9.9418C11.9044 10.027 11.8999 10.1134 11.8999 10.1998C11.8999 10.7356 11.8999 11.2721 11.8999 11.8697H11.8988ZM22.1214 21.6757C22.0393 21.6404 21.9718 21.611 21.9038 21.5828C19.1595 20.4587 16.4148 19.3352 13.6705 18.2106C13.5738 18.1712 13.4742 18.1295 13.3904 18.0672C13.2296 17.9479 13.1964 17.7704 13.2611 17.5877C13.3229 17.4114 13.4579 17.3098 13.6441 17.3268C13.7386 17.3356 13.8331 17.3685 13.9225 17.405C16.5914 18.495 19.2602 19.5867 21.9285 20.6773C22.0067 20.7091 22.0866 20.7355 22.1856 20.7719C22.1856 20.3735 22.1856 20.0145 22.1856 19.6555C22.1856 18.9515 22.0191 18.7065 21.3846 18.4861C20.2361 18.0878 19.2613 17.4191 18.4874 16.4442C18.3744 16.302 18.2866 16.2938 18.1314 16.359C17.2866 16.7128 16.4361 17.0536 15.5874 17.3973C15.5114 17.4279 15.4316 17.4543 15.3517 17.4667C15.1475 17.4984 14.9996 17.4055 14.922 17.2105C14.8466 17.0207 14.9192 16.8132 15.0935 16.7028C15.1757 16.6505 15.2679 16.614 15.3579 16.577C17.1656 15.8413 18.9745 15.1074 20.7817 14.3694C20.9408 14.3042 21.1 14.2301 21.2434 14.1344C21.6282 13.877 21.9088 13.5303 22.0674 13.0185C21.9471 13.0655 21.8728 13.0943 21.7986 13.1243C18.4598 14.481 15.1211 15.8361 11.7846 17.1975C11.5827 17.2798 11.4061 17.2821 11.2036 17.1987C8.00883 15.8866 4.81126 14.5809 1.61481 13.2735C1.39658 13.1842 1.17835 13.0949 0.945491 12.9997C0.94774 13.052 0.943803 13.0755 0.950553 13.0955C0.968551 13.1466 0.989362 13.1971 1.01186 13.2459C1.26609 13.7965 1.6885 14.1438 2.22564 14.3618C4.03394 15.0968 5.84056 15.8366 7.64717 16.5747C8.25856 16.8244 8.87051 17.0747 9.48134 17.3262C9.65852 17.3991 9.76257 17.5354 9.76088 17.737C9.75919 17.9279 9.65908 18.0578 9.49203 18.1318C9.44422 18.153 9.39641 18.1753 9.34748 18.1947C6.67693 19.28 4.00582 20.3653 1.33527 21.4512C1.17891 21.5147 1.0248 21.5834 0.868434 21.6498C1.08835 22.1146 1.43877 22.2386 1.93204 22.0382C5.00587 20.7884 8.08026 19.5397 11.153 18.2858C11.3718 18.1965 11.5714 18.1724 11.7987 18.2664C13.8741 19.1225 15.9524 19.971 18.0301 20.8213C19.0583 21.242 20.0865 21.6645 21.1163 22.0811C21.5663 22.2627 21.9173 22.1228 22.1203 21.6739L22.1214 21.6757ZM19.4205 1.267V1.60546C19.4205 3.90416 19.4323 6.20287 19.411 8.50099C19.4065 8.97401 19.4599 9.35713 19.8992 9.58336C19.9189 9.59335 19.934 9.61274 19.9504 9.62919C20.1219 9.80488 20.1455 10.0452 20.0094 10.2191C19.8694 10.3978 19.6455 10.4289 19.4458 10.2861C19.3165 10.1939 19.1916 10.0928 19.0735 9.98469C18.9706 9.89009 18.8749 9.86306 18.7321 9.89831C17.4682 10.2097 16.2027 10.5106 14.9366 10.812C14.0496 11.0236 13.2926 11.4631 12.7059 12.1982C12.3988 12.5825 12.1631 13.0097 12.0338 13.4651C12.3662 13.6049 12.6828 13.7195 12.9826 13.8723C13.1199 13.9422 13.2251 13.9463 13.36 13.8911C15.764 12.9068 18.1685 11.9238 20.5758 10.9484C20.7237 10.8884 20.7575 10.8103 20.7564 10.6575C20.7502 9.7426 20.753 8.82829 20.753 7.91339C20.753 6.11532 20.7541 4.31725 20.7496 2.51859C20.7496 2.4281 20.7254 2.30177 20.6664 2.253C20.2749 1.92805 19.8711 1.62015 19.4211 1.267H19.4205ZM10.9499 13.4568C10.951 13.4615 10.9471 13.431 10.9364 13.4028C10.437 12.0366 9.49765 11.1869 8.14551 10.8432C7.02903 10.56 5.89736 10.3343 4.79045 10.0164C4.26849 9.86658 3.87364 9.90713 3.49117 10.3179C3.24707 10.5799 2.94278 10.7815 2.63792 11.033C3.03221 11.1946 3.38487 11.3397 3.73809 11.4837C5.70557 12.2869 7.67248 13.0908 9.64164 13.8899C9.72376 13.9234 9.83569 13.9399 9.91331 13.9093C10.2592 13.7712 10.5973 13.6131 10.9499 13.4563V13.4568ZM11.9072 16.218C11.9826 16.1933 12.0461 16.1757 12.1075 16.151C15.4108 14.8083 18.713 13.4633 22.0185 12.1271C22.176 12.0636 22.1889 11.9737 22.1884 11.8315C22.1861 8.99399 22.1867 6.15645 22.1861 3.31832C22.1861 3.23253 22.1873 3.14498 22.1726 3.06154C22.1124 2.72425 21.8835 2.52447 21.5646 2.5327V2.8124C21.5646 5.533 21.5646 8.25302 21.5646 10.9736C21.5646 11.4102 21.5252 11.459 21.1332 11.6282C18.0628 12.9521 14.8809 13.9904 11.9078 15.5946V16.2174L11.9072 16.218ZM11.0855 15.6421C10.6136 15.3701 10.1861 15.1221 9.75751 14.8765C9.67258 14.8277 9.58596 14.7819 9.49597 14.7455C6.95197 13.7078 4.40741 12.6712 1.86286 11.6341C1.45339 11.4672 1.41402 11.4067 1.41402 10.9407C1.41402 8.22776 1.41402 5.51479 1.41402 2.80182C1.41402 2.70251 1.41402 2.60321 1.41402 2.5039C1.02648 2.50978 0.807689 2.78419 0.807689 3.23665C0.806564 6.09828 0.808813 8.95932 0.803189 11.821C0.803189 11.9825 0.853248 12.0525 0.991612 12.1089C4.28649 13.4527 7.57967 14.8013 10.874 16.1487C10.9387 16.1751 11.0062 16.1927 11.086 16.2192V15.6427L11.0855 15.6421ZM10.6985 14.4734C11.2131 14.8324 11.865 14.8283 12.2728 14.464C11.7458 14.2683 11.2261 14.2613 10.6985 14.4734Z" fill="white"/>
<path d="M5.54797 2.26991C6.03787 2.38801 6.46028 2.48556 6.87987 2.59132C7.55313 2.76173 8.23371 2.90922 8.89572 3.11899C9.55492 3.32818 10.1174 3.73128 10.6067 4.24014C10.6438 4.27892 10.6826 4.31594 10.7147 4.35884C10.8581 4.55157 10.8536 4.77251 10.7057 4.93351C10.5595 5.09217 10.3418 5.10921 10.1584 4.95761C9.97114 4.80307 9.80184 4.62502 9.61398 4.47107C8.9514 3.92754 8.1499 3.76066 7.35571 3.5738C6.75951 3.43336 6.16274 3.29586 5.56935 3.14132C5.45461 3.11135 5.31287 3.03673 5.26224 2.9386C5.20431 2.82637 5.18575 2.63833 5.23918 2.53139C5.29993 2.40917 5.45854 2.34042 5.54797 2.26932V2.26991Z" fill="white"/>
<path d="M5.67961 4.82774C6.0542 4.91765 6.49123 5.01695 6.92601 5.12684C7.59196 5.29548 8.26522 5.44179 8.9188 5.65392C9.59937 5.87427 10.1765 6.29734 10.6709 6.83441C10.8615 7.04184 10.8683 7.28334 10.704 7.4608C10.5499 7.62709 10.3008 7.64648 10.1236 7.45257C9.37214 6.62993 8.39909 6.31967 7.37598 6.10343C6.76965 5.97534 6.16838 5.8208 5.56655 5.67272C5.29714 5.60632 5.14752 5.40595 5.18352 5.17972C5.21783 4.96289 5.39782 4.81599 5.68017 4.82774H5.67961Z" fill="white"/>
<path d="M5.52384 7.31509C5.9125 7.40852 6.24041 7.48256 6.56607 7.566C7.3552 7.76696 8.15164 7.94266 8.92895 8.18534C9.60447 8.39629 10.172 8.82347 10.6647 9.35173C10.8132 9.51097 10.8801 9.69254 10.7626 9.90231C10.6636 10.078 10.5083 10.1421 10.3222 10.0927C10.2462 10.0727 10.1647 10.0298 10.1112 9.97165C9.41885 9.21423 8.53636 8.87753 7.57962 8.6801C6.91423 8.5426 6.25559 8.36867 5.59527 8.20708C5.25555 8.12364 5.08343 7.86274 5.22124 7.60772C5.28929 7.4808 5.43384 7.39912 5.52328 7.31627L5.52384 7.31509Z" fill="white"/>
<path d="M12.5439 10.182C12.4111 10.0592 12.2778 9.97988 12.2087 9.86059C12.1102 9.69019 12.158 9.49804 12.3043 9.37465C12.6688 9.06674 13.0158 8.71477 13.4253 8.49265C13.8887 8.24175 14.4045 8.08133 14.9118 7.93854C15.674 7.72407 16.449 7.5566 17.2196 7.37444C17.5233 7.30275 17.7331 7.41499 17.7871 7.66354C17.8445 7.92914 17.7033 8.12893 17.3911 8.20473C16.5925 8.39864 15.7938 8.59137 14.9934 8.77823C14.2273 8.95745 13.5422 9.29062 12.9747 9.87176C12.8634 9.98575 12.7154 10.0598 12.5439 10.1814V10.182Z" fill="white"/>
<path d="M17.3417 2.30222C17.6055 2.29929 17.7624 2.4315 17.7922 2.64656C17.8254 2.8863 17.7005 3.07434 17.4458 3.13956C17.0402 3.24298 16.6319 3.33229 16.2258 3.43277C15.6605 3.57262 15.0924 3.70366 14.5317 3.8629C13.976 4.02155 13.4906 4.32476 13.0681 4.7349C13.0136 4.78779 12.9596 4.84244 12.9033 4.89356C12.6643 5.11156 12.4427 5.12155 12.2711 4.92294C12.1125 4.73902 12.121 4.47636 12.3415 4.28362C12.6896 3.98042 13.0468 3.68251 13.4287 3.42866C13.9917 3.05494 14.6475 2.93801 15.2865 2.78347C15.9108 2.63246 16.5357 2.48262 17.1606 2.33395C17.2331 2.31691 17.3074 2.30751 17.3411 2.30164L17.3417 2.30222Z" fill="white"/>
<path d="M17.3625 4.82307C17.6016 4.82542 17.7602 4.96292 17.7917 5.16505C17.8254 5.38482 17.732 5.57167 17.5138 5.63514C17.1409 5.74326 16.7607 5.82434 16.3838 5.91895C15.7679 6.07349 15.1504 6.21921 14.5384 6.38903C13.9658 6.54827 13.4709 6.86323 13.04 7.28807C12.9804 7.34683 12.9219 7.40794 12.8572 7.46082C12.6536 7.62888 12.4264 7.62476 12.2745 7.45436C12.1221 7.28337 12.1187 7.02658 12.3055 6.84795C12.5743 6.59058 12.8527 6.3385 13.1514 6.12167C13.7319 5.70095 14.4023 5.51291 15.0834 5.35779C15.7679 5.20207 16.4491 5.03049 17.1319 4.86714C17.2191 4.84657 17.3074 4.83306 17.362 4.82248L17.3625 4.82307Z" fill="white"/>
</g>
<defs>
<clipPath id="clip0_1_61009">
<rect width="23" height="23" fill="white"/>
</clipPath>
</defs>
</svg>
