<svg width="69" height="68" viewBox="0 0 69 68" fill="none" xmlns="http://www.w3.org/2000/svg">
<g filter="url(#filter0_d_1_21538)">
<rect x="5" y="3.5" width="59" height="59" rx="29.5" stroke="url(#paint0_linear_1_21538)" shape-rendering="crispEdges"/>
<g clip-path="url(#clip0_1_21538)">
<path d="M19.5 34.5965C19.5 30.3121 19.5 26.0285 19.5 21.7449C19.5132 21.7303 19.5345 21.7173 19.5374 21.7012C19.7164 20.7201 20.6467 19.9828 21.6312 20.1346C21.7185 20.1476 21.8322 20.0771 21.9122 20.015C22.6803 19.4203 23.4492 18.8263 24.2056 18.2154C24.4535 18.0154 24.6942 17.974 24.9942 18.0476C26.6523 18.4553 28.3103 18.8631 29.9742 19.2417C31.385 19.5628 32.6322 20.179 33.5866 21.3371C33.9197 21.741 34.1963 22.1971 34.5066 22.6393C34.5345 22.5956 34.5748 22.5412 34.6064 22.4814C35.4677 20.8941 36.7354 19.8395 38.4316 19.4011C40.3112 18.9152 42.2032 18.4791 44.0894 18.0223C44.3212 17.9663 44.5208 18.0177 44.7174 18.1748C45.4921 18.7948 46.2742 19.4042 47.0592 20.0081C47.1612 20.0863 47.3049 20.1652 47.4216 20.1537C48.5125 20.0457 49.5315 20.9846 49.4993 22.3289C49.4611 23.9185 49.4905 25.5104 49.4905 27.1015C49.4905 29.4162 49.4963 31.7316 49.4883 34.0462C49.4831 35.4642 48.9344 36.6069 47.7752 37.3565C47.2595 37.6899 46.6667 37.8953 46.1018 38.1413C45.5758 38.3705 45.0417 38.5774 44.454 38.8173C44.7688 39.1293 45.0329 39.4121 45.3183 39.6704C46.1201 40.3962 47.0702 40.8277 48.0621 41.191C48.9373 41.5114 49.4831 42.3644 49.4897 43.3309C49.4956 44.2077 49.4912 45.0853 49.4905 45.9621C49.4905 46.3936 49.3591 46.7822 49.1244 47.1332C48.6585 47.8291 47.7129 48.2844 46.5354 47.7977C42.6075 46.1729 38.6707 44.5718 34.7333 42.9714C34.5976 42.9163 34.4076 42.9124 34.2726 42.9661C31.52 44.0736 28.7717 45.1926 26.0228 46.3093C24.7705 46.8182 23.5218 47.3356 22.2658 47.8322C21.3106 48.2093 20.3921 47.8989 19.8353 47.0182C19.6937 46.7937 19.61 46.53 19.5 46.2848C19.5 45.1627 19.5 44.0406 19.5 42.9193C19.5213 42.8764 19.5499 42.8358 19.5624 42.7898C19.7722 41.9988 20.2344 41.4286 20.9776 41.1642C21.9276 40.8269 22.8197 40.3908 23.604 39.7302C23.6707 39.6742 23.7544 39.6344 23.8365 39.6068C24.0941 39.5209 24.3919 39.678 24.4697 39.9448C24.5599 40.2529 24.4249 40.4644 24.196 40.653C23.3582 41.3412 22.4258 41.8348 21.4133 42.1705C20.9555 42.3223 20.6232 42.635 20.5843 43.1339C20.5344 43.7647 20.5726 44.4032 20.5726 45.0654C23.7947 43.7547 26.9919 42.4549 30.2427 41.1328C30.1121 41.076 30.0431 41.0454 29.9734 41.0163C27.336 39.9363 24.7008 38.8534 22.0611 37.7803C21.1257 37.4002 20.3679 36.807 19.9218 35.8543C19.737 35.458 19.6379 35.0166 19.5 34.5965ZM35.0201 33.4821C35.1126 33.3756 35.1471 33.3396 35.1771 33.3005C35.9277 32.3179 36.8645 31.5921 38.0185 31.2441C39.1395 30.9069 40.2855 30.6609 41.4219 30.3796C42.1959 30.188 42.9721 30.004 43.749 29.8163V19.2593C43.6389 19.2785 43.5436 19.29 43.4504 19.313C42.113 19.6341 40.7785 19.9698 39.4381 20.2756C38.3259 20.5293 37.2754 20.9064 36.4559 21.7755C35.5887 22.6945 34.9849 23.7468 35.0201 25.0973C35.0268 25.3517 35.0297 25.6077 35.0165 25.8622C35.0003 26.1672 34.8118 26.3734 34.5514 26.3987C34.2153 26.4309 33.9798 26.2094 33.9703 25.8369C33.9586 25.3686 34.0407 24.8788 33.9395 24.4343C33.503 22.5197 32.3989 21.1792 30.5853 20.5845C29.5663 20.2503 28.5091 20.0434 27.4681 19.7851C26.7322 19.6027 25.9942 19.4302 25.2173 19.244C25.2173 19.4417 25.2202 19.6027 25.2173 19.7636C25.2099 20.12 25.2246 20.4795 25.1828 20.8305C25.138 21.2053 24.7697 21.3923 24.4557 21.2306C24.2144 21.1064 24.1483 20.8765 24.1454 20.619C24.1417 20.3208 24.1447 20.0227 24.1447 19.6602C23.6076 20.0794 23.1389 20.4588 22.6554 20.8167C22.4764 20.9493 22.4125 21.0911 22.4133 21.321C22.4206 24.5539 22.4184 27.7867 22.4192 31.0196C22.4192 31.1253 22.4287 31.2319 22.436 31.3905C22.9598 30.9621 23.4374 30.562 23.926 30.1788C24.0919 30.0493 24.1498 29.9075 24.1491 29.6921C24.141 27.7745 24.1432 25.8576 24.1469 23.94C24.1469 23.789 24.1571 23.6319 24.196 23.4878C24.2628 23.2425 24.4543 23.1199 24.6817 23.1214C24.9223 23.1229 25.1167 23.2525 25.1769 23.5154C25.2107 23.6617 25.2158 23.8181 25.2165 23.9699C25.2187 25.8262 25.2224 27.6825 25.2129 29.538C25.2121 29.7549 25.2774 29.8385 25.474 29.8845C26.9464 30.2286 28.4137 30.5965 29.8876 30.9307C31.0592 31.1959 32.1421 31.6366 33.0562 32.4727C33.3753 32.7648 33.7106 33.0384 34.0385 33.3197C33.9681 33.3243 33.9681 33.2346 33.9681 33.1449C33.9681 32.4314 33.9637 31.717 33.9718 31.0035C33.9754 30.677 34.1911 30.4493 34.4736 30.4394C34.7546 30.4294 34.9849 30.6494 35.0165 30.9675C35.0275 31.0786 35.0216 31.1913 35.0216 31.3039C35.0216 32.0029 35.0216 32.7027 35.0216 33.4821H35.0201ZM48.354 46.2725C48.2469 46.2265 48.1589 46.1882 48.0701 46.1514C44.4907 44.6852 40.9105 43.2198 37.3311 41.7528C37.2049 41.7014 37.0751 41.647 36.9658 41.5658C36.7559 41.4102 36.7127 41.1787 36.797 40.9404C36.8777 40.7104 37.0538 40.5778 37.2966 40.6001C37.4199 40.6116 37.5431 40.6545 37.6598 40.702C41.1409 42.1238 44.622 43.5478 48.1024 44.9703C48.2044 45.0117 48.3086 45.0462 48.4377 45.0937C48.4377 44.5741 48.4377 44.1058 48.4377 43.6375C48.4377 42.7193 48.2205 42.3997 47.393 42.1123C45.8949 41.5926 44.6235 40.7204 43.614 39.4489C43.4665 39.2634 43.3521 39.2527 43.1496 39.3377C42.0477 39.7991 40.9384 40.2437 39.8314 40.692C39.7323 40.7319 39.6281 40.7664 39.524 40.7825C39.2577 40.8239 39.0647 40.7028 38.9635 40.4483C38.8652 40.2008 38.9598 39.9302 39.1872 39.7861C39.2943 39.7179 39.4146 39.6704 39.532 39.6221C41.8899 38.6625 44.2493 37.7052 46.6065 36.7426C46.8141 36.6575 47.0218 36.5609 47.2088 36.436C47.7106 36.1003 48.0767 35.6481 48.2836 34.9805C48.1266 35.0418 48.0298 35.0794 47.9329 35.1185C43.5781 36.8882 39.2232 38.6556 34.8712 40.4315C34.6078 40.5388 34.3775 40.5418 34.1134 40.433C29.9463 38.7215 25.7756 37.0185 21.6063 35.3132C21.3216 35.1967 21.037 35.0802 20.7332 34.956C20.7362 35.0242 20.731 35.0549 20.7399 35.0809C20.7633 35.1476 20.7905 35.2135 20.8198 35.2771C21.1514 35.9953 21.7024 36.4483 22.403 36.7326C24.7617 37.6914 27.1181 38.6564 29.4746 39.619C30.272 39.9448 31.0702 40.2713 31.867 40.5993C32.0981 40.6943 32.2338 40.8722 32.2316 41.135C32.2294 41.3841 32.0988 41.5535 31.8809 41.6501C31.8185 41.6777 31.7562 41.7068 31.6924 41.7321C28.209 43.1477 24.725 44.5633 21.2417 45.9797C21.0377 46.0625 20.8367 46.1522 20.6327 46.2388C20.9196 46.845 21.3767 47.0067 22.0201 46.7454C26.0294 45.1152 30.0395 43.4865 34.0473 41.8509C34.3327 41.7344 34.5932 41.703 34.8896 41.8256C37.5967 42.9423 40.3075 44.0491 43.0176 45.1581C44.3586 45.7069 45.6997 46.2579 47.043 46.8013C47.6299 47.0382 48.0877 46.8558 48.3526 46.2702L48.354 46.2725ZM44.8311 19.6525V20.094C44.8311 23.0923 44.8465 26.0906 44.8186 29.0881C44.8128 29.7051 44.8825 30.2048 45.4554 30.4999C45.4811 30.513 45.5009 30.5382 45.5222 30.5597C45.746 30.7889 45.7768 31.1023 45.5992 31.3292C45.4166 31.5622 45.1246 31.6028 44.8641 31.4166C44.6954 31.2963 44.5325 31.1644 44.3785 31.0234C44.2442 30.9 44.1195 30.8647 43.9331 30.9107C42.2847 31.3169 40.634 31.7094 38.9825 32.1025C37.8256 32.3785 36.8381 32.9518 36.0729 33.9106C35.6724 34.4118 35.365 34.969 35.1962 35.563C35.6298 35.7454 36.0428 35.8949 36.4339 36.0942C36.6129 36.1854 36.7501 36.1907 36.9261 36.1187C40.0617 34.8349 43.198 33.5527 46.338 32.2804C46.531 32.2022 46.575 32.1002 46.5735 31.901C46.5654 30.7076 46.5691 29.515 46.5691 28.3217C46.5691 25.9764 46.5706 23.6311 46.5647 21.285C46.5647 21.167 46.5332 21.0022 46.4561 20.9386C45.9455 20.5147 45.4188 20.1131 44.8318 19.6525H44.8311ZM33.7825 35.5523C33.784 35.5584 33.7788 35.5186 33.7649 35.4818C33.1134 33.6998 31.8882 32.5915 30.1246 32.1432C28.6683 31.7737 27.1922 31.4794 25.7484 31.0648C25.0676 30.8693 24.5526 30.9222 24.0537 31.458C23.7353 31.7998 23.3384 32.0627 22.9408 32.3907C23.4551 32.6015 23.915 32.7908 24.3758 32.9786C26.942 34.0263 29.5076 35.0748 32.0761 36.1172C32.1832 36.1609 32.3292 36.1823 32.4304 36.1425C32.8816 35.9623 33.3225 35.7562 33.7825 35.5515V35.5523ZM35.0312 39.1538C35.1295 39.1216 35.2124 39.0986 35.2923 39.0664C39.601 37.3151 43.9082 35.5607 48.2198 33.8178C48.4252 33.7351 48.4421 33.6178 48.4414 33.4323C48.4384 29.7312 48.4392 26.03 48.4384 22.3281C48.4384 22.2162 48.4399 22.102 48.4208 21.9932C48.3423 21.5533 48.0437 21.2927 47.6277 21.3034V21.6682C47.6277 25.2168 47.6277 28.7647 47.6277 32.3133C47.6277 32.8828 47.5764 32.9464 47.065 33.1671C43.0601 34.8939 38.9099 36.2482 35.0319 38.3406V39.153L35.0312 39.1538ZM33.9593 38.4027C33.3438 38.0478 32.7862 37.7244 32.2272 37.404C32.1164 37.3404 32.0034 37.2806 31.886 37.2331C28.5678 35.8796 25.2488 34.5276 21.9298 33.1748C21.3957 32.9571 21.3444 32.8782 21.3444 32.2704C21.3444 28.7317 21.3444 25.1931 21.3444 21.6544C21.3444 21.5249 21.3444 21.3954 21.3444 21.2658C20.8389 21.2735 20.5535 21.6314 20.5535 22.2216C20.552 25.9542 20.555 29.686 20.5476 33.4185C20.5476 33.6293 20.6129 33.7205 20.7934 33.7941C25.0911 35.5469 29.3865 37.3059 33.6835 39.0634C33.7678 39.0979 33.8559 39.1208 33.96 39.1553V38.4035L33.9593 38.4027ZM33.4546 36.8782C34.1258 37.3465 34.9761 37.3412 35.508 36.866C34.8206 36.6108 34.1427 36.6016 33.4546 36.8782Z" fill="url(#paint1_linear_1_21538)"/>
<path d="M26.737 20.9608C27.376 21.1148 27.927 21.242 28.4743 21.38C29.3525 21.6023 30.2402 21.7946 31.1037 22.0683C31.9635 22.3411 32.6971 22.8669 33.3354 23.5306C33.3838 23.5812 33.4344 23.6295 33.4763 23.6855C33.6633 23.9368 33.6575 24.225 33.4645 24.435C33.2738 24.642 32.9898 24.6642 32.7507 24.4665C32.5064 24.2649 32.2856 24.0326 32.0405 23.8318C31.1763 23.1229 30.1309 22.9052 29.095 22.6615C28.3173 22.4783 27.5389 22.299 26.7649 22.0974C26.6153 22.0583 26.4304 21.961 26.3643 21.833C26.2888 21.6866 26.2646 21.4413 26.3343 21.3018C26.4135 21.1424 26.6204 21.0527 26.737 20.96V20.9608Z" fill="url(#paint2_linear_1_21538)"/>
<path d="M26.9079 24.2971C27.3965 24.4143 27.9665 24.5439 28.5336 24.6872C29.4023 24.9072 30.2804 25.098 31.1329 25.3747C32.0206 25.6621 32.7733 26.2139 33.4182 26.9145C33.6669 27.185 33.6757 27.5 33.4615 27.7315C33.2605 27.9484 32.9355 27.9737 32.7044 27.7208C31.7242 26.6477 30.455 26.2431 29.1205 25.961C28.3297 25.7939 27.5454 25.5924 26.7604 25.3992C26.409 25.3126 26.2139 25.0513 26.2608 24.7562C26.3056 24.4734 26.5403 24.2817 26.9086 24.2971H26.9079Z" fill="url(#paint3_linear_1_21538)"/>
<path d="M26.7049 27.5414C27.2118 27.6633 27.6396 27.7598 28.0643 27.8687C29.0936 28.1308 30.1325 28.36 31.1464 28.6765C32.0275 28.9517 32.7677 29.5089 33.4104 30.1979C33.604 30.4056 33.6914 30.6424 33.538 30.916C33.4089 31.1452 33.2064 31.2288 32.9636 31.1644C32.8645 31.1383 32.7582 31.0824 32.6885 31.0065C31.7854 30.0185 30.6343 29.5794 29.3864 29.3219C28.5185 29.1425 27.6594 28.9156 26.7981 28.7049C26.355 28.596 26.1305 28.2557 26.3102 27.9231C26.399 27.7575 26.5875 27.651 26.7042 27.5429L26.7049 27.5414Z" fill="url(#paint4_linear_1_21538)"/>
<path d="M35.8621 31.2809C35.6889 31.1207 35.5151 31.0172 35.4248 30.8616C35.2964 30.6394 35.3588 30.3887 35.5495 30.2278C36.0249 29.8262 36.4776 29.3671 37.0117 29.0774C37.6162 28.7501 38.289 28.5408 38.9507 28.3546C39.9448 28.0748 40.9557 27.8564 41.9608 27.6188C42.357 27.5253 42.6306 27.6717 42.7011 27.9959C42.7759 28.3423 42.5918 28.6029 42.1846 28.7018C41.1428 28.9547 40.1011 29.2061 39.0571 29.4498C38.0579 29.6836 37.1643 30.1182 36.424 30.8762C36.2788 31.0249 36.0858 31.1214 35.8621 31.2801V31.2809Z" fill="url(#paint5_linear_1_21538)"/>
<path d="M42.1196 21.0029C42.4637 20.9991 42.6684 21.1715 42.7072 21.4521C42.7505 21.7648 42.5877 22.01 42.2553 22.0951C41.7264 22.23 41.1938 22.3465 40.6641 22.4775C39.9268 22.66 39.1858 22.8309 38.4543 23.0386C37.7295 23.2455 37.0964 23.641 36.5454 24.176C36.4742 24.245 36.4038 24.3162 36.3305 24.3829C36.0187 24.6673 35.7296 24.6803 35.5058 24.4212C35.299 24.1813 35.31 23.8387 35.5975 23.5874C36.0517 23.1919 36.5175 22.8033 37.0157 22.4722C37.75 21.9847 38.6055 21.8322 39.4389 21.6306C40.2532 21.4337 41.0683 21.2382 41.8834 21.0443C41.978 21.0221 42.0749 21.0098 42.1189 21.0022L42.1196 21.0029Z" fill="url(#paint6_linear_1_21538)"/>
<path d="M42.1468 24.2909C42.4586 24.294 42.6654 24.4734 42.7065 24.737C42.7505 25.0237 42.6288 25.2674 42.3441 25.3502C41.8577 25.4912 41.3618 25.597 40.8702 25.7204C40.0669 25.9219 39.2614 26.112 38.4632 26.3335C37.7163 26.5412 37.0707 26.952 36.5087 27.5062C36.431 27.5828 36.3547 27.6625 36.2703 27.7315C36.0047 27.9507 35.7083 27.9453 35.5103 27.7231C35.3114 27.5 35.307 27.1651 35.5506 26.9321C35.9013 26.5964 36.2644 26.2676 36.654 25.9848C37.4111 25.436 38.2856 25.1907 39.1741 24.9884C40.0669 24.7853 40.9553 24.5615 41.846 24.3484C41.9597 24.3216 42.0749 24.304 42.146 24.2902L42.1468 24.2909Z" fill="url(#paint7_linear_1_21538)"/>
</g>
</g>
<defs>
<filter id="filter0_d_1_21538" x="0.5" y="0" width="68" height="68" filterUnits="userSpaceOnUse" color-interpolation-filters="sRGB">
<feFlood flood-opacity="0" result="BackgroundImageFix"/>
<feColorMatrix in="SourceAlpha" type="matrix" values="0 0 0 0 0 0 0 0 0 0 0 0 0 0 0 0 0 0 127 0" result="hardAlpha"/>
<feOffset dy="1"/>
<feGaussianBlur stdDeviation="2"/>
<feComposite in2="hardAlpha" operator="out"/>
<feColorMatrix type="matrix" values="0 0 0 0 0.0539423 0 0 0 0 0.539423 0 0 0 0 0.500156 0 0 0 0.29 0"/>
<feBlend mode="normal" in2="BackgroundImageFix" result="effect1_dropShadow_1_21538"/>
<feBlend mode="normal" in="SourceGraphic" in2="effect1_dropShadow_1_21538" result="shape"/>
</filter>
<linearGradient id="paint0_linear_1_21538" x1="34.5" y1="3" x2="34.5" y2="63" gradientUnits="userSpaceOnUse">
<stop stop-color="#38EF7D"/>
<stop offset="1" stop-color="#11998E"/>
</linearGradient>
<linearGradient id="paint1_linear_1_21538" x1="34.5" y1="18.0004" x2="34.5" y2="48.0006" gradientUnits="userSpaceOnUse">
<stop stop-color="#38EF7D"/>
<stop offset="1" stop-color="#11998E"/>
</linearGradient>
<linearGradient id="paint2_linear_1_21538" x1="29.953" y1="20.96" x2="29.953" y2="24.6032" gradientUnits="userSpaceOnUse">
<stop stop-color="#38EF7D"/>
<stop offset="1" stop-color="#11998E"/>
</linearGradient>
<linearGradient id="paint3_linear_1_21538" x1="29.934" y1="24.2962" x2="29.934" y2="27.9024" gradientUnits="userSpaceOnUse">
<stop stop-color="#38EF7D"/>
<stop offset="1" stop-color="#11998E"/>
</linearGradient>
<linearGradient id="paint4_linear_1_21538" x1="29.9322" y1="27.5414" x2="29.9322" y2="31.1854" gradientUnits="userSpaceOnUse">
<stop stop-color="#38EF7D"/>
<stop offset="1" stop-color="#11998E"/>
</linearGradient>
<linearGradient id="paint5_linear_1_21538" x1="39.0374" y1="27.591" x2="39.0374" y2="31.2809" gradientUnits="userSpaceOnUse">
<stop stop-color="#38EF7D"/>
<stop offset="1" stop-color="#11998E"/>
</linearGradient>
<linearGradient id="paint6_linear_1_21538" x1="39.0392" y1="21.0022" x2="39.0392" y2="24.6063" gradientUnits="userSpaceOnUse">
<stop stop-color="#38EF7D"/>
<stop offset="1" stop-color="#11998E"/>
</linearGradient>
<linearGradient id="paint7_linear_1_21538" x1="39.0398" y1="24.2902" x2="39.0398" y2="27.8929" gradientUnits="userSpaceOnUse">
<stop stop-color="#38EF7D"/>
<stop offset="1" stop-color="#11998E"/>
</linearGradient>
<clipPath id="clip0_1_21538">
<rect width="30" height="30" fill="white" transform="translate(19.5 18)"/>
</clipPath>
</defs>
</svg>
