<svg width="22" height="20" viewBox="0 0 22 20" fill="none" xmlns="http://www.w3.org/2000/svg">
<path d="M0.760742 8.70645C0.760742 6.52136 2.53211 4.75 4.71719 4.75V4.75C5.35027 4.75 5.92243 4.37272 6.17182 3.79083L6.4815 3.06824C6.95423 1.96519 8.03885 1.25 9.23893 1.25H10.7607H12.2826C13.4826 1.25 14.5673 1.96519 15.04 3.06824L15.3497 3.79083C15.599 4.37272 16.1712 4.75 16.8043 4.75V4.75C18.9894 4.75 20.7607 6.52136 20.7607 8.70645V13.75C20.7607 16.5114 18.5222 18.75 15.7607 18.75H5.76074C2.99932 18.75 0.760742 16.5114 0.760742 13.75V8.70645Z" stroke="#98AAB9" stroke-width="1.5"/>
<circle cx="3" cy="3" r="3" transform="matrix(-1 0 0 1 13.7607 7.75)" stroke="#98AAB9" stroke-width="1.5"/>
</svg>
