<svg width="82" height="91" viewBox="0 0 82 91" fill="none" xmlns="http://www.w3.org/2000/svg">
<g filter="url(#filter0_d_1_46582)">
<path d="M60.6647 19.1134L56.4541 25.3833L59.8546 27.6253L64.0652 21.3554L60.6647 19.1134Z" fill="#29383A"/>
<path d="M59.6143 20.3394L63.2056 22.8229C63.7773 23.2187 64.5643 23.0798 64.9633 22.5133L66.7368 19.9952C67.1362 19.4287 66.9956 18.6489 66.4243 18.2536L62.833 15.7701C62.2613 15.3747 61.4739 15.5136 61.0754 16.0801L59.3014 18.5982C58.9025 19.1642 59.0426 19.9444 59.6143 20.3394Z" fill="#3A4D51"/>
<path d="M41.0004 19.3532C39.398 19.3532 38.0986 18.9534 38.0986 18.4603V11.9457C38.0986 11.4525 39.398 11.0527 41.0004 11.0527C42.6029 11.0527 43.9022 11.4525 43.9022 11.9457V18.4603C43.9022 18.9534 42.6029 19.3532 41.0004 19.3532Z" fill="#29383A"/>
<path d="M21.3331 19.1164L17.9326 21.3584L22.1432 27.6283L25.5437 25.3863L21.3331 19.1164Z" fill="#29383A"/>
<path d="M41 78.9999C58.1208 78.9999 72 65.2478 72 48.2837C72 31.3195 58.1208 17.5674 41 17.5674C23.8792 17.5674 10 31.3195 10 48.2837C10 65.2478 23.8792 78.9999 41 78.9999Z" fill="url(#paint0_linear_1_46582)"/>
<path d="M40.9998 73.1961C54.8855 73.1961 66.1421 62.0425 66.1421 48.2838C66.1421 34.5252 54.8855 23.3716 40.9998 23.3716C27.114 23.3716 15.8574 34.5252 15.8574 48.2838C15.8574 62.0425 27.114 73.1961 40.9998 73.1961Z" fill="white"/>
<path d="M40.9996 74.0888C34.0433 74.0888 27.5031 71.4044 22.584 66.5308C17.6649 61.6567 14.9561 55.1767 14.9561 48.2837C14.9561 41.3907 17.6653 34.9107 22.584 30.0366C27.5031 25.1625 34.0429 22.4785 40.9996 22.4785C47.9563 22.4785 54.4961 25.1629 59.4152 30.0366C64.3343 34.9107 67.0431 41.3907 67.0431 48.2837C67.0431 55.1767 64.3339 61.6567 59.4152 66.5308C54.4961 71.4048 47.9563 74.0888 40.9996 74.0888ZM40.9996 24.7535C34.6564 24.7535 28.6931 27.2012 24.2075 31.6453C19.7224 36.0894 17.2521 41.9986 17.2521 48.2837C17.2521 54.5688 19.7224 60.4775 24.2075 64.922C28.6927 69.3661 34.6564 71.8139 40.9996 71.8139C47.3428 71.8139 53.3061 69.3661 57.7916 64.922C62.2768 60.4779 64.7471 54.5688 64.7471 48.2837C64.7471 41.9986 62.2768 36.0898 57.7916 31.6453C53.3065 27.2012 47.3428 24.7535 40.9996 24.7535Z" fill="#297C75"/>
<path d="M40.9998 30.3411C40.5021 30.3411 40.0986 29.9413 40.0986 29.4482V27.5492C40.0986 27.056 40.5021 26.6562 40.9998 26.6562C41.4975 26.6562 41.901 27.056 41.901 27.5492V29.4482C41.901 29.9413 41.4975 30.3411 40.9998 30.3411Z" fill="#3A4D51"/>
<path d="M27.5587 35.8582C27.3279 35.8582 27.0976 35.7712 26.9216 35.5965L25.5666 34.2539C25.2148 33.9052 25.2148 33.34 25.5666 32.991C25.9185 32.6423 26.4889 32.6423 26.8412 32.991L28.1962 34.3336C28.5481 34.6822 28.5481 35.2474 28.1962 35.5965C28.0203 35.7708 27.7895 35.8582 27.5591 35.8582H27.5587Z" fill="#3A4D51"/>
<path d="M21.9906 49.1765H20.074C19.5763 49.1765 19.1729 48.7767 19.1729 48.2836C19.1729 47.7904 19.5763 47.3906 20.074 47.3906H21.9906C22.4883 47.3906 22.8917 47.7904 22.8917 48.2836C22.8917 48.7767 22.4883 49.1765 21.9906 49.1765Z" fill="#3A4D51"/>
<path d="M26.2027 63.8381C25.972 63.8381 25.7416 63.7508 25.5657 63.5765C25.2138 63.2278 25.2138 62.6622 25.5657 62.3136L26.9207 60.971C27.2729 60.6223 27.8434 60.6223 28.1952 60.971C28.5471 61.3196 28.5471 61.8852 28.1952 62.2339L26.8402 63.5765C26.6643 63.7508 26.4335 63.8381 26.2031 63.8381H26.2027Z" fill="#3A4D51"/>
<path d="M40.9998 69.9114C40.5021 69.9114 40.0986 69.5116 40.0986 69.0185V67.1195C40.0986 66.6263 40.5021 66.2266 40.9998 66.2266C41.4975 66.2266 41.901 66.6263 41.901 67.1195V69.0185C41.901 69.5116 41.4975 69.9114 40.9998 69.9114Z" fill="#3A4D51"/>
<path d="M55.797 63.8381C55.5662 63.8381 55.3359 63.7508 55.1599 63.5765L53.8049 62.2339C53.4531 61.8852 53.4531 61.32 53.8049 60.971C54.1568 60.6223 54.7272 60.6223 55.0795 60.971L56.4345 62.3136C56.7863 62.6622 56.7863 63.2274 56.4345 63.5765C56.2586 63.7508 56.0278 63.8381 55.7974 63.8381H55.797Z" fill="#3A4D51"/>
<path d="M61.9261 49.1765H60.0096C59.5119 49.1765 59.1084 48.7767 59.1084 48.2836C59.1084 47.7904 59.5119 47.3906 60.0096 47.3906H61.9261C62.4238 47.3906 62.8273 47.7904 62.8273 48.2836C62.8273 48.7767 62.4238 49.1765 61.9261 49.1765Z" fill="#3A4D51"/>
<path d="M54.442 35.8582C54.2112 35.8582 53.9808 35.7712 53.8049 35.5965C53.4531 35.2478 53.4531 34.6826 53.8049 34.3336L55.1599 32.991C55.5122 32.6423 56.0826 32.6423 56.4345 32.991C56.7863 33.3396 56.7863 33.9048 56.4345 34.2539L55.0795 35.5965C54.9035 35.7708 54.6728 35.8582 54.4424 35.8582H54.442Z" fill="#3A4D51"/>
<path d="M45.2585 13.3169H36.7424C35.2606 13.3169 34.0596 12.1269 34.0596 10.6587C34.0596 9.19044 35.2606 8 36.7424 8H45.2585C46.7402 8 47.9413 9.19004 47.9413 10.6583C47.9413 12.1265 46.7398 13.3165 45.2585 13.3165V13.3169Z" fill="#3A4D51"/>
<path d="M22.385 20.3394L18.7937 22.8229C18.2221 23.2187 17.4351 23.0798 17.0361 22.5133L15.2626 19.9952C14.8632 19.4287 15.0038 18.6489 15.575 18.2536L19.1663 15.7701C19.738 15.3747 20.5254 15.5136 20.924 16.0801L22.6979 18.5982C23.0969 19.1642 22.9567 19.9444 22.385 20.3394Z" fill="#3A4D51"/>
<path d="M45.2276 46.7263L48.853 31.7543C48.9859 31.2064 48.2497 30.8875 47.934 31.3565L39.3297 44.1333C38.2546 44.5576 37.3425 45.3902 36.8513 46.5319C35.8985 48.7453 36.9061 51.3351 39.1115 52.342C41.401 53.3875 44.1038 52.3722 45.1228 50.0968C45.6201 48.986 45.6241 47.7823 45.2276 46.7267V46.7263ZM40.1354 50.2147C39.0591 49.7413 38.5736 48.4929 39.0514 47.4264C39.5292 46.36 40.7888 45.8793 41.8655 46.3527C42.9417 46.8262 43.4273 48.0742 42.9499 49.1406C42.4721 50.2071 41.2121 50.6882 40.1358 50.2147H40.1354Z" fill="url(#paint1_linear_1_46582)"/>
</g>
<defs>
<filter id="filter0_d_1_46582" x="0.6" y="0.6" width="80.8" height="89.8" filterUnits="userSpaceOnUse" color-interpolation-filters="sRGB">
<feFlood flood-opacity="0" result="BackgroundImageFix"/>
<feColorMatrix in="SourceAlpha" type="matrix" values="0 0 0 0 0 0 0 0 0 0 0 0 0 0 0 0 0 0 127 0" result="hardAlpha"/>
<feOffset dy="2"/>
<feGaussianBlur stdDeviation="4.7"/>
<feComposite in2="hardAlpha" operator="out"/>
<feColorMatrix type="matrix" values="0 0 0 0 0.0272226 0 0 0 0 0.416346 0 0 0 0 0.325551 0 0 0 0.56 0"/>
<feBlend mode="normal" in2="BackgroundImageFix" result="effect1_dropShadow_1_46582"/>
<feBlend mode="normal" in="SourceGraphic" in2="effect1_dropShadow_1_46582" result="shape"/>
</filter>
<linearGradient id="paint0_linear_1_46582" x1="41" y1="17.5674" x2="41" y2="78.9999" gradientUnits="userSpaceOnUse">
<stop stop-color="#38EF7D"/>
<stop offset="1" stop-color="#11998E"/>
</linearGradient>
<linearGradient id="paint1_linear_1_46582" x1="42.6805" y1="31.1294" x2="42.6805" y2="52.7539" gradientUnits="userSpaceOnUse">
<stop stop-color="#38EF7D"/>
<stop offset="1" stop-color="#11998E"/>
</linearGradient>
</defs>
</svg>
