<svg width="17" height="16" viewBox="0 0 17 16" fill="none" xmlns="http://www.w3.org/2000/svg">
<path d="M1 12.2911C1 11.8342 1.11556 11.3847 1.33592 10.9845L5.98218 2.54588C6.38988 1.80541 7.10285 1.28195 7.93143 1.11474V1.11474C8.3067 1.03901 8.6933 1.03901 9.06857 1.11474V1.11474C9.89715 1.28195 10.6101 1.80541 11.0178 2.54588L15.6641 10.9845C15.8844 11.3847 16 11.8342 16 12.2911V12.2911C16 13.7872 14.7872 15 13.2911 15H3.70894C2.21283 15 1 13.7872 1 12.2911V12.2911Z" stroke="#FF8235"/>
<path d="M8.56763 5.54036L8.56763 8.56738" stroke="#FF8235" stroke-linecap="round" stroke-linejoin="round"/>
<path d="M8.56763 10.8374L8.56763 11.2158" stroke="#FF8235" stroke-linecap="round" stroke-linejoin="round"/>
</svg>
