<svg width="16" height="15" viewBox="0 0 16 15" fill="none" xmlns="http://www.w3.org/2000/svg">
<path d="M8.84473 1.41205C9.8202 0.4351 11.4026 0.434082 12.3789 1.4101L13.7461 2.77728C14.7137 3.74514 14.7245 5.31261 13.7695 6.29291L6.97363 13.2646C6.31518 13.9401 5.41169 14.3212 4.46875 14.3212H2.90039C1.83449 14.3212 0.969018 13.488 0.904297 12.4472L0.90332 12.2363L0.970703 10.6025C1.00758 9.72606 1.37262 8.89486 1.99219 8.27435L8.84473 1.41205ZM14.5967 13.2636C14.8726 13.2637 15.0966 13.4875 15.0967 13.7636C15.0967 14.0398 14.8726 14.2635 14.5967 14.2636H9.77344L9.67285 14.2538C9.44499 14.2073 9.27344 14.0054 9.27344 13.7636C9.27349 13.5219 9.44502 13.3199 9.67285 13.2734L9.77344 13.2636H14.5967ZM2.69922 8.98138C2.25675 9.42452 1.99712 10.0186 1.9707 10.6445L1.90137 12.2783L1.90332 12.3837C1.93557 12.9041 2.36748 13.3201 2.90039 13.3203L4.46875 13.3212C5.14229 13.3212 5.78748 13.0488 6.25781 12.5663L11.2803 7.41303L7.76953 3.90228L2.69922 8.98138ZM11.6729 2.1181C11.0871 1.53232 10.1371 1.53285 9.55176 2.11908L8.47656 3.19525L11.9785 6.69623L13.0537 5.59467C13.6266 5.00654 13.6205 4.066 13.04 3.48529L11.6729 2.1181Z" fill="#FF8235"/>
</svg>
