<svg width="15" height="15" viewBox="0 0 15 15" fill="none" xmlns="http://www.w3.org/2000/svg">
<path fill-rule="evenodd" clip-rule="evenodd" d="M12.9265 0.504069C12.2512 -0.168382 11.1568 -0.16797 10.482 0.504991L5.26321 5.71084C4.8458 6.12713 4.60041 6.68441 4.57557 7.27239L4.50128 9.03127C4.46745 9.83217 5.10982 10.4999 5.91418 10.4999L7.64466 10.5C8.28 10.5 8.88844 10.2444 9.33206 9.79119L14.5089 4.48563C15.1697 3.81041 15.1628 2.73107 14.4933 2.06435L12.9265 0.504069ZM11.1489 1.16913C11.4556 0.863235 11.9531 0.863048 12.26 1.16871L13.8269 2.72899C14.1312 3.03204 14.1343 3.52265 13.834 3.82957L12.7943 4.89186L10.1032 2.21205L11.1489 1.16913ZM9.4368 2.87669L5.93013 6.37498C5.67969 6.62475 5.53245 6.95912 5.51754 7.31191L5.44325 9.07079C5.43197 9.33776 5.6461 9.56033 5.91422 9.56034L7.6447 9.56041C8.02591 9.56043 8.39097 9.40708 8.65714 9.13513L12.1359 5.56452L9.4368 2.87669Z" fill="white"/>
<path d="M13.6 7.70009V9.00009C13.6 11.7615 11.3614 14.0001 8.6 14.0001H6C3.23857 14.0001 1 11.7615 1 9.00009V6.40008C1 3.63866 3.23858 1.40009 6 1.40009H7.3" stroke="white" stroke-linecap="round"/>
</svg>
