<svg width="23" height="18" viewBox="0 0 23 18" fill="none" xmlns="http://www.w3.org/2000/svg">
<path d="M16.8645 9.34717V13.7312C16.8645 14.5399 16.3775 15.2691 15.6304 15.5788L12.1304 17.0297C11.64 17.2329 11.089 17.2329 10.5986 17.0297L7.09861 15.5788C6.35154 15.2691 5.8645 14.5399 5.8645 13.7312V9.34717" stroke="#98AAB9"/>
<path d="M20.3196 6.07349V11.9835" stroke="#98AAB9" stroke-linecap="round"/>
<path d="M3.77254 7.9571L10.637 11.2401C11.1827 11.5011 11.8172 11.5011 12.3629 11.2401L19.2274 7.9571C20.7435 7.232 20.7435 5.07366 19.2274 4.34856L12.3629 1.06553C11.8172 0.804553 11.1827 0.804554 10.637 1.06553L3.77254 4.34857C2.25643 5.07367 2.25643 7.232 3.77254 7.9571Z" stroke="#98AAB9" stroke-linecap="round"/>
</svg>
