<svg width="31" height="25" viewBox="0 0 31 25" fill="none" xmlns="http://www.w3.org/2000/svg">
<path d="M0.440341 14.5605C0.508871 14.3905 0.561926 14.2127 0.650352 14.0537C1.01069 13.4042 1.56335 13.0586 2.31607 13.0443C2.46197 13.041 2.60787 13.0443 2.77478 13.0443C2.7792 8.85763 4.49687 5.53003 7.87693 3.07903C10.3816 1.26108 13.2333 0.497479 16.3183 0.682895C23.1525 1.09432 28.416 6.58986 28.2192 13.0432C28.3806 13.0432 28.5431 13.0421 28.7045 13.0432C29.7291 13.0531 30.5548 13.8639 30.5614 14.8787C30.568 15.8135 30.5647 16.7471 30.5614 17.6819C30.5581 18.7713 29.7457 19.5755 28.6481 19.581C28.5122 19.581 28.3751 19.581 28.2436 19.581C28.07 20.3007 27.7893 20.5158 27.041 20.5158C26.6486 20.5158 26.2562 20.5191 25.8638 20.5158C25.3145 20.5092 24.9165 20.1208 24.9154 19.5777C24.9121 17.3977 24.9121 15.2177 24.9154 13.0377C24.9154 12.5089 25.3134 12.1183 25.8439 12.1117C26.2927 12.1062 26.7425 12.1106 27.2808 12.1106C27.1659 11.4381 27.1106 10.7886 26.9393 10.1709C25.7455 5.87672 22.9004 3.1679 18.6251 2.02579C14.7023 0.978023 11.0592 1.75479 7.8692 4.27601C5.59334 6.07421 4.23048 8.43633 3.8392 11.3218C3.80493 11.5708 3.78614 11.8221 3.7563 12.1106C4.21501 12.1106 4.64387 12.1095 5.07163 12.1106C5.69835 12.1128 6.08189 12.488 6.08189 13.1046C6.083 15.2462 6.083 17.3867 6.08189 19.5283C6.08189 20.1329 5.69945 20.5136 5.09484 20.5169C4.68256 20.5191 4.27138 20.5169 3.8591 20.5169C3.21469 20.5169 2.88089 20.2371 2.77036 19.5821C2.63993 19.5821 2.50508 19.5821 2.37023 19.5821C1.45171 19.5788 0.754252 19.0621 0.494502 18.1942C0.481238 18.1493 0.45471 18.1076 0.434814 18.0648C0.434814 16.8963 0.434814 15.729 0.434814 14.5605H0.440341ZM3.74856 19.5646H5.1269V13.0553H3.74856V19.5646ZM27.2488 19.57V13.064H25.8715V19.57H27.2488ZM2.78472 13.9955C1.87062 13.8628 1.3246 14.2862 1.37213 15.232C1.41081 15.9879 1.37986 16.7482 1.37986 17.5063C1.37986 18.3698 1.91484 18.7922 2.78362 18.6079V13.9955H2.78472ZM28.2292 13.9747V18.6474C28.385 18.6474 28.521 18.6517 28.6569 18.6474C29.2196 18.6265 29.6142 18.2414 29.6197 17.6797C29.6296 16.7658 29.6296 15.853 29.6197 14.939C29.6131 14.3795 29.2151 13.9944 28.6536 13.9747C28.5177 13.9703 28.3828 13.9747 28.2292 13.9747Z" fill="white"/>
<path d="M23.7381 17.9731C23.7381 19.6375 23.7381 21.3018 23.7381 22.9651C23.7381 23.8417 23.0252 24.2707 22.2537 23.8472C20.2674 22.7588 18.2546 22.8247 16.2518 23.7539C15.6759 24.0216 15.2238 24.015 14.6601 23.7232C12.7778 22.7479 10.87 22.8828 8.97877 23.7397C8.84502 23.8 8.72012 23.8779 8.58527 23.935C7.96408 24.1983 7.27215 23.766 7.27105 23.0978C7.26552 19.6726 7.26773 16.2462 7.26884 12.821C7.26884 12.4578 7.43574 12.1781 7.75518 12.0124C10.1924 10.7474 12.6849 10.5192 15.2371 11.6547C15.4261 11.7392 15.5698 11.7315 15.7566 11.6547C18.1938 10.6717 20.6045 10.6256 22.9876 11.8511C23.517 12.1232 23.7602 12.4875 23.7492 13.0964C23.7193 14.7212 23.7392 16.3461 23.7392 17.972L23.7381 17.9731ZM8.20615 23.0221C8.2581 23.0221 8.28021 23.0287 8.29568 23.0221C8.37526 22.9859 8.45374 22.9453 8.53332 22.908C10.7462 21.8844 12.9601 21.7813 15.1675 22.9124C15.3907 23.0265 15.5477 23.032 15.7776 22.9267C18.0656 21.869 20.3536 21.767 22.6284 22.9761C22.6748 23.0002 22.7278 23.0112 22.7776 23.0276C22.7875 22.9991 22.7931 22.9892 22.7931 22.9804C22.7953 19.6539 22.7975 16.3263 22.792 12.9998C22.792 12.9164 22.7168 12.7991 22.6427 12.7563C21.8624 12.3119 21.0212 12.03 20.1281 11.9257C18.5575 11.7425 17.0741 12.0453 15.6604 12.7354C15.5609 12.7837 15.3907 12.7826 15.2924 12.731C13.0209 11.5341 10.7506 11.6328 8.46922 12.6981C8.2581 12.7969 8.20062 12.9197 8.20173 13.1435C8.20947 16.3439 8.20725 19.5453 8.20725 22.7457C8.20725 22.8323 8.20725 22.9201 8.20725 23.0232L8.20615 23.0221Z" fill="white"/>
</svg>
