<svg width="311" height="312" viewBox="0 0 311 312" fill="none" xmlns="http://www.w3.org/2000/svg">
<path d="M155.487 311.015C241.361 311.015 310.975 241.392 310.975 155.507C310.975 69.623 241.361 0 155.487 0C69.6141 0 0 69.623 0 155.507C0 241.392 69.6141 311.015 155.487 311.015Z" fill="#1BAE71"/>
<mask id="mask0_639_2134" style="mask-type:luminance" maskUnits="userSpaceOnUse" x="0" y="0" width="311" height="312">
<path d="M155.487 311.015C241.361 311.015 310.975 241.392 310.975 155.507C310.975 69.623 241.361 0 155.487 0C69.6141 0 0 69.623 0 155.507C0 241.392 69.6141 311.015 155.487 311.015Z" fill="white"/>
</mask>
<g mask="url(#mask0_639_2134)">
<path d="M276.58 275.965C276.58 275.965 229.654 326 148.858 326C68.063 326 20.3612 275.965 20.3612 275.965C17.5346 257.052 31.6926 229.608 40.2224 224.855C44.4748 222.528 62.4849 220.152 80.0448 217.85C97.8298 215.524 115.165 213.272 117.316 211.121C117.466 210.971 117.591 210.795 117.741 210.595C121.493 204.791 120.192 175.621 120.192 175.621H176.799C176.799 175.621 175.373 206.868 179.626 211.121C179.951 211.446 180.576 211.746 181.477 212.046C186.605 213.822 200.488 215.699 215.046 217.6C233.181 219.977 252.342 222.403 256.719 224.83C265.249 229.583 279.432 257.027 276.58 275.965Z" fill="#D14040"/>
<path d="M55.3814 271.837C55.3563 271.837 55.3313 271.837 55.3313 271.837C55.0062 271.812 54.756 271.512 54.781 271.162C55.7316 260.805 63.3108 239.44 63.636 238.539C63.7611 238.214 64.0863 238.064 64.4114 238.164C64.7366 238.264 64.8867 238.64 64.7867 238.94C64.7116 239.165 56.9072 261.055 55.9817 271.262C55.9567 271.587 55.6815 271.837 55.3814 271.837Z" fill="#A1234E"/>
<path d="M239.209 271.187C238.933 271.187 238.658 270.987 238.608 270.687C234.581 250.798 228.928 237.514 228.878 237.364C228.753 237.063 228.878 236.688 229.203 236.563C229.503 236.438 229.878 236.563 230.003 236.888C230.053 237.013 235.757 250.423 239.809 270.436C239.884 270.762 239.659 271.087 239.334 271.162C239.284 271.187 239.259 271.187 239.209 271.187Z" fill="#A1234E"/>
<path d="M138.153 272.488C138.153 272.488 94.6282 165.564 96.5293 166.04C98.4303 166.515 200.113 166.04 200.113 166.04L169.37 254.976L148.784 274.364L138.153 272.488Z" fill="white"/>
<path d="M83.7461 92.8641C83.7461 92.8641 88.949 148.202 96.053 164.288C103.157 180.374 134.85 202.139 145.256 201.664C155.662 201.189 189.255 182.276 197.76 170.918C206.265 159.56 215.27 119.833 213.844 96.6417C212.418 73.4757 182.602 38.9519 159.439 37.5259C136.251 36.0999 115.914 39.4272 105.984 48.4084C96.053 57.3896 85.1719 77.2533 83.7461 92.8641Z" fill="#EEC19F"/>
<path d="M91 99.6437C91 99.6437 149.333 80.7307 213.344 104.372C213.344 104.372 211.768 65.8954 199.161 56.4389C186.554 46.9824 140.828 44.1304 130.422 48.5585C120.016 52.9865 98.2541 66.2207 95.7277 71.5744C93.2012 76.9531 91 99.6437 91 99.6437Z" fill="white"/>
<path d="M144.605 155.257L151.059 155.732C151.059 155.732 148.533 157.158 147.282 157.083C146.031 156.983 144.605 155.257 144.605 155.257Z" fill="#E2797F"/>
<path d="M172.147 125.561C172.147 128.213 171.172 130.39 169.971 130.39C168.77 130.39 167.795 128.238 167.795 125.561C167.795 122.91 168.77 120.733 169.971 120.733C171.172 120.733 172.147 122.91 172.147 125.561Z" fill="#1A2E40"/>
<path opacity="0.35" d="M199.313 150.454C199.313 156.283 192.209 161.011 183.429 161.011C174.649 161.011 167.545 156.283 167.545 150.454C167.545 144.625 174.649 139.896 183.429 139.896C192.209 139.896 199.313 144.625 199.313 150.454Z" fill="#EEC19F"/>
<path opacity="0.35" d="M129.073 150.454C129.073 156.283 121.969 161.011 113.189 161.011C104.409 161.011 97.3047 156.283 97.3047 150.454C97.3047 144.625 104.409 139.896 113.189 139.896C121.969 139.896 129.073 144.625 129.073 150.454Z" fill="#EEC19F"/>
<path d="M147.883 177.973C140.854 177.973 136.326 173.169 136.251 173.094C135.851 172.644 135.876 171.969 136.326 171.568C136.777 171.168 137.452 171.193 137.852 171.643C138.202 172.019 146.707 180.975 158.689 171.518C159.164 171.143 159.84 171.218 160.215 171.693C160.59 172.169 160.515 172.844 160.04 173.219C155.512 176.772 151.385 177.973 147.883 177.973Z" fill="#DB2E3A"/>
<path d="M166.218 120.308C166.043 120.308 165.868 120.233 165.743 120.083C165.543 119.807 165.568 119.432 165.843 119.232C165.893 119.182 170.67 115.479 175.423 118.782L176.173 118.206C176.424 118.006 176.824 118.031 177.024 118.306C177.224 118.582 177.174 118.957 176.924 119.157L175.823 120.033C175.598 120.208 175.298 120.208 175.073 120.033C170.946 116.83 166.768 120.058 166.593 120.183C166.468 120.258 166.343 120.308 166.218 120.308Z" fill="#1A2E40"/>
<path d="M162.116 106.999C163.992 105.973 165.868 105.248 167.844 104.647C169.82 104.072 171.846 103.721 173.872 103.596C175.923 103.446 177.975 103.621 179.976 104.047C182.002 104.422 183.903 105.248 185.704 106.148C186.004 106.298 186.129 106.648 185.979 106.949C185.829 107.249 185.479 107.374 185.204 107.224L185.154 107.199C183.403 106.423 181.602 105.698 179.701 105.423C177.824 105.097 175.898 104.997 173.997 105.223C172.096 105.398 170.195 105.798 168.394 106.398C166.593 106.999 164.767 107.799 163.216 108.725L163.166 108.75C162.691 109.05 162.041 108.875 161.765 108.4C161.465 107.924 161.64 107.274 162.116 106.999Z" fill="#1A2E40"/>
<path d="M124.895 125.561C124.895 128.213 125.87 130.39 127.071 130.39C128.271 130.39 129.247 128.238 129.247 125.561C129.247 122.91 128.271 120.733 127.071 120.733C125.87 120.733 124.895 122.91 124.895 125.561Z" fill="#1A2E40"/>
<path d="M130.824 120.308C130.699 120.308 130.549 120.258 130.449 120.183C130.274 120.033 126.096 116.83 121.969 120.033C121.744 120.208 121.444 120.208 121.219 120.033L120.118 119.157C119.843 118.957 119.818 118.557 120.018 118.306C120.218 118.031 120.618 118.006 120.868 118.206L121.619 118.782C126.397 115.479 131.174 119.182 131.199 119.232C131.474 119.432 131.499 119.832 131.299 120.083C131.174 120.233 130.999 120.308 130.824 120.308Z" fill="#1A2E40"/>
<path d="M133.825 108.75C132.274 107.824 130.448 107.024 128.647 106.423C126.821 105.823 124.945 105.423 123.044 105.247C121.143 105.047 119.216 105.122 117.34 105.448C115.439 105.723 113.638 106.448 111.887 107.224L111.837 107.249C111.537 107.374 111.187 107.249 111.037 106.949C110.912 106.648 111.037 106.298 111.312 106.173C113.138 105.272 115.039 104.447 117.04 104.072C119.041 103.646 121.118 103.471 123.144 103.621C125.195 103.746 127.221 104.097 129.172 104.672C131.148 105.247 133.024 105.973 134.9 107.024C135.401 107.299 135.576 107.924 135.301 108.425C135.025 108.925 134.4 109.1 133.9 108.825C133.9 108.825 133.875 108.825 133.875 108.8L133.825 108.75Z" fill="#1A2E40"/>
<path d="M210.042 192.533C210.042 192.533 236.057 140.972 228.953 91.288C221.874 41.6287 202.463 16.5614 153.76 17.9624C105.033 19.3884 87.9985 39.7274 77.6177 84.6584C67.2118 129.614 83.7461 192.033 83.7461 192.033C79.7689 200.013 78.5432 208.719 80.044 217.85C82.0451 230.409 89.1742 243.718 101.231 256.852C112.312 268.936 127.02 276.616 143.655 277.116C177.699 278.117 202.263 246.07 215.045 217.6C217.146 212.947 218.172 209.369 218.072 207.193C217.621 196.786 210.042 192.533 210.042 192.533ZM149.033 271.062C149.033 271.062 132.474 242.642 117.74 210.62C112.087 198.362 106.709 185.553 102.657 173.62C87.9985 130.565 90.8501 103.596 94.6272 87.9857C98.4044 72.4 115.914 45.9067 155.186 49.6843C194.433 53.4369 210.042 76.6529 208.166 120.633C207.091 145.625 195.459 180.7 181.476 212.071C170.82 235.888 158.813 257.578 149.033 271.062Z" fill="white"/>
<path d="M147.132 267.41C146.907 267.41 146.707 267.285 146.607 267.084C146.381 266.659 123.118 223.579 111.887 198.612C111.737 198.312 111.887 197.937 112.187 197.812C112.487 197.661 112.863 197.812 112.988 198.112C124.194 223.029 147.432 266.084 147.657 266.509C147.807 266.809 147.707 267.184 147.407 267.335C147.332 267.385 147.232 267.41 147.132 267.41Z" fill="#EBCACA"/>
<path d="M155.962 261.731C155.862 261.731 155.737 261.706 155.637 261.631C155.337 261.456 155.262 261.08 155.437 260.78C155.662 260.43 177.274 224.605 185.654 201.914C185.779 201.589 186.129 201.439 186.429 201.564C186.754 201.689 186.904 202.039 186.779 202.34C178.35 225.155 156.687 261.055 156.462 261.43C156.362 261.631 156.162 261.731 155.962 261.731Z" fill="#EBCACA"/>
<path d="M144.931 250.073C144.606 250.073 144.331 249.797 144.331 249.472L144.006 210.67C144.006 210.345 144.281 210.045 144.606 210.045C144.931 210.045 145.207 210.32 145.207 210.645L145.532 249.447C145.532 249.797 145.257 250.073 144.931 250.073Z" fill="#EBCACA"/>
<path d="M154.711 242.492C154.386 242.492 154.111 242.242 154.111 241.917L152.535 212.272C152.51 211.921 152.785 211.646 153.11 211.621C153.435 211.621 153.735 211.871 153.76 212.196L155.336 241.842C155.361 242.192 155.086 242.467 154.761 242.492C154.711 242.492 154.711 242.492 154.711 242.492Z" fill="#EBCACA"/>
<path d="M136.25 272.838C136.1 272.838 135.95 272.788 135.825 272.688C100.73 240.191 86.1471 198.037 85.997 197.612C85.897 197.286 86.0721 196.936 86.3722 196.836C86.6974 196.711 87.0476 196.886 87.1477 197.211C87.2977 197.637 101.781 239.49 136.651 271.788C136.901 272.013 136.901 272.413 136.676 272.663C136.575 272.788 136.4 272.838 136.25 272.838Z" fill="#EBCACA"/>
<path d="M159.739 273.264C159.589 273.264 159.464 273.214 159.339 273.113C159.089 272.888 159.064 272.513 159.289 272.263C183.928 244.168 205.04 201.389 205.265 200.939C205.415 200.638 205.79 200.513 206.09 200.663C206.391 200.814 206.516 201.189 206.366 201.489C206.165 201.914 184.954 244.844 160.215 273.063C160.065 273.189 159.889 273.264 159.739 273.264Z" fill="#EBCACA"/>
<path d="M85.0211 126.762C84.7209 126.762 84.4708 126.537 84.4207 126.237C84.3457 125.787 77.717 81.4812 100.955 53.5369C109.735 42.9797 122.317 36.7253 138.376 34.9241C138.726 34.8741 139.026 35.1242 139.051 35.4745C139.076 35.7997 138.851 36.1249 138.501 36.1499C122.767 37.9012 110.435 44.0304 101.881 54.3375C78.9927 81.8565 85.5464 125.637 85.6214 126.087C85.6714 126.412 85.4463 126.737 85.1211 126.788C85.0711 126.762 85.0461 126.762 85.0211 126.762Z" fill="#EBCACA"/>
<path d="M173.947 39.0769C173.897 39.0769 173.822 39.0769 173.772 39.0518C173.697 39.0268 165.818 36.6002 154.436 35.8496C154.111 35.8246 153.836 35.5244 153.861 35.1992C153.886 34.8489 154.186 34.5988 154.511 34.6238C163.742 35.2492 171.371 37.0255 174.147 37.876C174.473 37.9761 174.648 38.3263 174.548 38.6516C174.448 38.9017 174.197 39.0769 173.947 39.0769Z" fill="#EBCACA"/>
<path d="M212.719 150.404C212.644 150.404 212.594 150.404 212.519 150.379C212.194 150.279 212.044 149.928 212.144 149.603C212.294 149.178 226.702 107.149 211.518 71.5243C211.393 71.2241 211.518 70.8488 211.844 70.7237C212.144 70.5987 212.519 70.7237 212.644 71.049C228.003 107.124 213.444 149.603 213.294 150.028C213.219 150.254 212.969 150.404 212.719 150.404Z" fill="#EBCACA"/>
<path d="M93.6763 94.7403C93.6513 94.7403 93.6263 94.7403 93.6263 94.7403C93.3011 94.7153 93.0509 94.4151 93.0759 94.0649C93.101 93.8897 94.927 76.1775 109.335 62.4681C123.868 48.6335 148.632 46.6822 165.467 50.735C182.651 54.8378 194.733 62.8934 200.386 74.001C206.04 85.0587 207.765 93.7146 207.765 93.7897C207.841 94.1149 207.615 94.4401 207.29 94.5152C206.965 94.5652 206.64 94.3651 206.565 94.0399C206.54 93.9648 204.864 85.4589 199.286 74.5764C193.783 63.794 181.976 55.9886 165.167 51.9608C148.632 48.0081 124.369 49.8844 110.161 63.3937C96.0776 76.7779 94.2766 94.0649 94.2766 94.24C94.2516 94.5152 94.0015 94.7403 93.6763 94.7403Z" fill="#EBCACA"/>
<path d="M192.308 89.0613C192.233 89.0613 192.158 89.0613 192.108 89.0363C153.461 75.3018 102.382 87.2851 101.882 87.4102C101.557 87.4852 101.231 87.2851 101.156 86.9599C101.081 86.6347 101.281 86.3094 101.607 86.2344C102.132 86.1093 153.561 74.051 192.533 87.9105C192.858 88.0106 193.008 88.3609 192.908 88.6861C192.783 88.9112 192.558 89.0613 192.308 89.0613Z" fill="#EBCACA"/>
<path d="M114.489 77.4785C114.189 77.4785 113.938 77.2784 113.888 76.9782C113.838 76.653 114.039 76.3278 114.389 76.2777C114.614 76.2277 136.851 72.2499 151.209 73.4258C151.535 73.4508 151.785 73.751 151.76 74.0762C151.735 74.4014 151.435 74.6516 151.109 74.6266C136.926 73.4758 114.839 77.4285 114.614 77.4535C114.564 77.4785 114.539 77.4785 114.489 77.4785Z" fill="#EBCACA"/>
</g>
</svg>
