<svg width="288" height="250" viewBox="0 0 288 250" fill="none" xmlns="http://www.w3.org/2000/svg">
<g clip-path="url(#clip0_3_2032)">
<path d="M39.2428 68.7742C27.9251 82.1986 0 95.522 0 119.485C0 135.189 1.44727 152.935 27.86 166.929C48.9323 178.096 45.6614 204.439 45.6614 204.439C46.6601 223.577 63.0287 231.065 82.4728 232.601C101.917 234.138 114.928 218.412 130.884 233.553C146.84 248.695 175.475 262.112 196.569 231.865C213.35 207.808 218.191 197.709 250.009 196.266C290.099 194.449 296.206 149.797 278.846 130.609C277.978 129.649 277.117 128.733 276.255 127.853C259.872 111.031 248.41 108.11 250.349 77.9209C253.273 32.4034 235.949 10.7339 212.025 3.54924C186.155 -4.21975 159.374 21.1431 138.475 13.5256C116.05 5.35263 99.4493 -7.2783 74.5201 5.35263C50.7776 17.3776 50.5605 55.3642 39.2428 68.7814V68.7742Z" fill="#FFE9CA"/>
<path d="M237.237 168.004L233.489 152.884L157.992 142.172L84.2169 128.105L76.3293 135.55L28.7864 194.189L120.913 190.56C120.363 192.155 120.92 194.391 121.26 196.122C121.795 198.885 114.935 202.614 109.986 206.877C105.043 211.141 99.9488 221.788 99.9488 221.788C99.9488 221.788 111.042 223.764 111.361 223.8C111.672 223.836 125.551 196.483 126.39 194.182C126.673 193.424 127.302 192.631 128.026 191.902L233.438 233.914L237.237 167.996V168.004Z" fill="#F2CE99"/>
<g filter="url(#filter0_d_3_2032)">
<path d="M260.01 55.8112L78.1601 125.977L74.1656 130.637C91.8006 127.781 90.8599 135.507 101.085 136.646C90.6428 143.052 81.0474 159.831 70.5691 162.319C62.0374 164.346 46.1102 168.458 40.4948 169.915L25.3057 187.624L28.7936 194.196L257.745 118.41L262.709 58.9852L260.01 55.8184V55.8112Z" fill="#381D0B"/>
<path d="M217.735 190.986C210.202 184.58 212.192 165.291 207.097 155.272C217.25 158.424 225.145 152.213 241.116 165.003L241.644 154.168L86.1344 37.1786L29.452 77.1994L26.4634 81.1741L233.445 233.921L237.932 230.495L238.945 209.676C234.871 206.026 223.806 196.136 217.735 190.979V190.986Z" fill="#381D0B"/>
<path d="M241.116 165.003L237.237 168.011C237.237 168.011 232.519 162.997 225.456 161.006C218.394 159.015 215.376 162.211 205.737 158.482C202.749 155.337 205.158 152.35 205.158 152.35L226.933 153.093L241.116 165.003Z" fill="#381D0B"/>
<path d="M217.735 190.986C210.202 184.58 212.192 165.291 207.098 155.272C217.25 158.424 225.145 152.213 241.116 165.003L241.644 154.168L77.0964 32.901L29.4521 77.1994L237.925 230.502L238.938 209.683C234.864 206.033 223.799 196.144 217.728 190.986H217.735Z" fill="#4C230C"/>
<path d="M160.358 94.2595L89.7166 121.519L138.96 157.724L213.147 133.169L160.358 94.2595Z" fill="#381D0B"/>
<path d="M74.1657 130.637L76.3294 135.557C76.3294 135.557 81.5685 132.679 86.8004 135.557C92.0323 138.435 96.4392 142.655 104.667 140.506C106.331 135.535 104.667 131.705 104.667 131.705C104.667 131.705 86.0478 126.006 85.6353 126.006C85.2228 126.006 74.1584 130.645 74.1584 130.645L74.1657 130.637Z" fill="#381D0B"/>
<path d="M78.1601 125.977L74.1656 130.637C91.8006 127.781 90.8599 135.507 101.085 136.646C90.6428 143.052 81.0474 159.831 70.5691 162.319C62.0374 164.346 46.1102 168.458 40.4948 169.915L25.3057 187.624L253.917 114.508L260.01 55.8185L78.1601 125.977Z" fill="#682F13"/>
<path d="M160.763 90.8619L77.0962 118.547L126.861 155.272L132.288 153.389L160.763 90.8619Z" fill="#381D0B"/>
<path d="M160.763 90.8619L82.9578 116.607L132.288 153.389L160.763 90.8619Z" fill="#4C230C"/>
<path d="M34.1775 75.6846C34.1775 75.6846 119.451 141.306 122.613 143.622C125.768 145.945 132.252 149.919 142.397 146.767C152.535 143.622 250.653 112.178 250.653 112.178L257.73 52.9835L257.094 51.411L159.851 81.3183L86.0405 27.3033L34.1775 73.9461V75.6846Z" fill="#381D0B"/>
<path d="M34.1775 73.9461C34.1775 73.9461 119.451 139.568 122.613 141.883C125.768 144.206 132.252 148.181 142.397 145.028C152.535 141.883 249.278 110.894 249.278 110.894L257.094 51.4037L159.851 79.5726L86.0405 25.5576L34.1775 73.9461Z" fill="#844914"/>
<path d="M90.2015 24.4037L36.8406 73.4486L122.114 139.07C122.114 139.07 126.767 136.913 130.096 136.913C133.424 136.913 140.567 143.377 140.567 143.377L245.125 109.408L253.439 50.5816L244.466 46.607L162.182 76.1032L93.3566 24.4037H90.2015Z" fill="#ECB67B"/>
<path d="M246.138 47.3497C245.335 52.1828 244.459 57.0015 243.569 61.8129L240.826 76.2472L237.939 90.6527L236.441 97.8446L234.871 105.022L236.116 97.7797L237.433 90.5517L240.175 76.1174L243.07 61.7191C244.061 56.9221 245.06 52.1323 246.138 47.3497Z" fill="#E2A05D"/>
<path d="M247.412 48.1649C246.702 52.9258 245.928 57.6723 245.139 62.4188L242.694 76.644L240.096 90.8402L238.742 97.9311L237.317 105.008L238.417 97.8734L239.589 90.7537L242.042 76.5285L244.64 62.3323C245.537 57.6074 246.442 52.8753 247.419 48.1649H247.412Z" fill="#E2A05D"/>
<path d="M249.076 48.9151C248.403 53.6832 247.657 58.437 246.905 63.1907L244.56 77.4302L242.064 91.6481L240.761 98.7463L239.394 105.837L240.443 98.6958L241.564 91.5688L243.909 77.3292L246.406 63.1113C247.267 58.3792 248.135 53.6472 249.076 48.9223V48.9151Z" fill="#E2A05D"/>
<path d="M250.689 49.6148C250.053 54.3829 249.351 59.1439 248.634 63.8976L246.406 78.1516L244.025 92.3839L242.78 99.4893L241.463 106.587L242.455 99.4388L243.518 92.3046L245.747 78.0506L248.128 63.8255C248.946 59.0862 249.785 54.3469 250.682 49.622L250.689 49.6148Z" fill="#E2A05D"/>
<path d="M252.289 50.365C251.688 55.1909 251.015 60.0095 250.328 64.8209L248.193 79.248L245.906 93.6535L244.712 100.845L243.446 108.03L244.394 100.795L245.407 93.5742L247.542 79.1471L249.829 64.7416C250.617 59.9446 251.421 55.1476 252.289 50.365Z" fill="#E2A05D"/>
<path d="M45.488 70.9669C45.488 70.9669 64.7729 84.7231 81.062 93.8339C97.3511 102.945 127.939 125.48 130.096 136.913C139.901 126.973 152.369 114.212 175.808 111.723C199.246 109.235 228.336 106.256 232.324 103.933C234.321 93.9926 244.459 46.5995 244.459 46.5995C244.459 46.5995 232.823 48.9223 220.355 49.7446C207.887 50.5742 169.157 58.6894 162.174 76.0885C156.523 62.1664 148.208 53.8852 132.086 46.5923C115.963 39.2994 93.3566 24.389 93.3566 24.389L45.488 70.9669Z" fill="#FFE6BD"/>
<path d="M130.096 136.913C139.901 126.973 152.369 114.212 175.808 111.723C199.246 109.235 228.337 106.256 232.324 103.933C234.321 93.9925 244.459 46.5995 244.459 46.5995C244.459 46.5995 232.823 48.9223 220.355 49.7446C207.887 50.5742 169.158 58.6894 162.175 76.0885L130.096 136.899V136.913Z" fill="#FFE9D2"/>
<path d="M192.763 112.055C148.433 120.892 130.096 136.913 130.096 136.913C133.417 136.913 140.567 143.377 140.567 143.377L245.125 109.408C245.125 109.408 236.427 105.65 232.324 103.94C227.229 106.869 217.923 106.905 192.763 112.062V112.055Z" fill="#FFC892"/>
<path d="M103.328 104.936C89.1957 95.3271 45.4808 70.9669 45.4808 70.9669L36.8406 73.4556L122.114 139.077C122.114 139.077 126.767 136.92 130.096 136.92C131.76 126.648 117.461 114.551 103.336 104.943L103.328 104.936Z" fill="#FFC892"/>
<path d="M103.328 104.935C89.1956 95.327 45.4807 70.9669 45.4807 70.9669C45.4807 70.9669 101.83 108.578 108.98 113.39C116.129 118.194 129.589 130.457 130.088 136.92C131.753 126.648 117.454 114.551 103.328 104.943V104.935Z" fill="#ECB67B"/>
<path d="M44.6558 73.1165C44.6558 73.1165 117.294 124.318 130.095 136.913C120.79 124.484 68.0943 86.7574 44.6558 73.1165Z" fill="#ECB67B"/>
<path d="M42.2678 73.1165L52.8546 80.8278L63.398 88.5896L84.4124 104.2L105.34 119.932L115.775 127.846L126.159 135.81L115.579 128.105L105.036 120.336L84.0144 104.726L63.0868 88.9936L52.6592 81.0803L42.2678 73.1165Z" fill="#ECB67B"/>
<path d="M133.417 136.913C137.274 134.828 141.196 132.874 145.125 130.926C149.069 129.014 153.042 127.16 157.051 125.371C159.055 124.477 161.067 123.597 163.101 122.775C165.127 121.938 167.167 121.123 169.266 120.409C173.456 119.009 177.718 117.905 181.98 116.874C186.264 115.9 190.555 114.984 194.854 114.126C199.152 113.267 203.451 112.402 207.771 111.63C212.083 110.836 216.389 110.043 220.688 109.206C224.986 108.369 229.299 107.576 233.481 106.27C231.441 107.071 229.335 107.706 227.208 108.254C225.087 108.831 222.953 109.329 220.818 109.841C216.541 110.815 212.25 111.716 207.966 112.632C199.391 114.443 190.787 116.124 182.284 118.165C178.029 119.153 173.781 120.221 169.649 121.556C167.594 122.234 165.554 123.027 163.527 123.842L157.449 126.316C153.404 127.99 149.395 129.736 145.393 131.525C141.377 133.278 137.404 135.11 133.417 136.928V136.913Z" fill="#ECB67B"/>
<path d="M136.825 137.822C144.677 134.266 152.68 131.056 160.807 128.17C164.866 126.72 168.962 125.364 173.094 124.124C175.149 123.482 177.233 122.919 179.31 122.327C181.394 121.779 183.485 121.224 185.577 120.712C193.942 118.656 202.285 116.492 210.615 114.299C214.783 113.209 218.944 112.091 223.097 110.937C225.174 110.367 227.251 109.797 229.321 109.191C231.39 108.586 233.452 107.98 235.479 107.244C227.381 110.201 219.045 112.452 210.752 114.789C202.445 117.083 194.094 119.24 185.736 121.354C177.356 123.344 169.121 125.862 160.973 128.646C156.899 130.031 152.847 131.503 148.823 133.039C144.793 134.554 140.784 136.134 136.818 137.822H136.825Z" fill="#ECB67B"/>
<path d="M129.886 123.142L129.213 121.945C126.955 118.057 116.383 108.586 105.608 101.733C95.3103 95.1828 64.9103 75.4176 64.5991 75.2157L63.8755 74.7107L102.677 34.6322L103.292 35.0506C103.552 35.2021 129.35 49.9899 139.438 56.547C149.561 63.133 157.398 73.3113 157.471 73.4123L157.992 74.2851L157.883 74.4727C157.731 74.7396 142.448 101.675 130.175 122.638L129.886 123.128V123.142ZM65.3011 74.8838C68.6732 77.0768 96.2582 94.9952 105.962 101.177C115.717 107.381 126.434 116.506 129.488 121.137C141.16 101.177 155.415 76.0885 156.805 73.6431C155.734 72.2797 148.374 63.1546 139.069 57.1024C129.502 50.8844 105.752 37.2291 103.183 35.7575L65.3011 74.8838Z" fill="#E2A05D"/>
<path d="M141.131 122.847L139.568 124.427L165.677 73.9172L165.706 73.8812C165.792 73.7874 174.635 64.554 184.896 60.8174C200.389 55.5587 226.824 52.9258 227.092 52.9042L228.836 52.7238L228.684 53.1999C228.684 53.1999 218.213 86.6708 214.059 99.9293L213.994 100.146L212.518 100.29C154.178 104.207 141.254 122.659 141.131 122.847ZM166.227 74.3068L142.318 120.56C147.412 115.655 165.025 102.858 212.25 99.648C216.15 87.1974 225.369 57.73 226.658 53.6183C222.931 54.0078 199.355 56.6191 185.121 61.4522C175.323 65.0229 166.813 73.7008 166.227 74.314V74.3068Z" fill="#E2A05D"/>
<path d="M110.412 223.822L110.101 223.786C112.634 200.89 110.13 189.702 110.101 189.594L110.412 189.522C110.441 189.63 112.96 200.861 110.412 223.822Z" fill="#992B2B"/>
<path d="M111.36 223.808L111.049 223.772C113.582 200.876 111.078 189.687 111.049 189.579L111.36 189.507C111.389 189.615 113.908 200.847 111.36 223.808Z" fill="#992B2B"/>
<path d="M108.661 223.57L108.35 223.533C110.883 200.63 108.574 189.161 108.545 189.053L108.857 188.988C108.878 189.103 111.201 200.616 108.661 223.57Z" fill="#992B2B"/>
<path d="M100.245 221.831L99.927 221.802C99.9559 221.55 102.539 196.425 108.792 188.988L109.03 189.19C102.836 196.555 100.267 221.579 100.238 221.831H100.245Z" fill="#992B2B"/>
<path d="M100.774 221.831L100.455 221.802C100.477 221.55 103.068 196.425 109.32 188.988L109.559 189.19C103.364 196.555 100.795 221.579 100.766 221.831H100.774Z" fill="#992B2B"/>
<path d="M101.751 222.689L101.432 222.661C103.813 197.723 109.689 188.786 109.747 188.699L110.007 188.872C109.949 188.959 104.124 197.846 101.743 222.689H101.751Z" fill="#992B2B"/>
<path d="M102.59 222.985L102.272 222.956C104.652 198.019 110.528 189.082 110.586 188.995L110.847 189.168C110.789 189.255 104.964 198.142 102.583 222.985H102.59Z" fill="#992B2B"/>
<path d="M107.931 223.764L107.619 223.721C107.656 223.454 111.382 196.829 108.973 189.543L109.277 189.442C111.708 196.793 108.09 222.661 107.938 223.757L107.931 223.764Z" fill="#992B2B"/>
<path d="M109.211 224.053L108.9 224.017C108.936 223.75 112.135 197.038 109.58 189.817L109.877 189.709C112.453 197.002 109.349 222.949 109.211 224.053Z" fill="#992B2B"/>
<path d="M103.379 222.668L103.068 222.625C103.241 221.42 107.315 193.013 109.284 189.745L109.559 189.904C107.627 193.114 103.422 222.372 103.386 222.661L103.379 222.668Z" fill="#992B2B"/>
<path d="M106.708 223.223L106.396 223.173C106.433 222.956 109.928 201.662 109.609 190.33H109.928C110.246 201.684 106.744 223.014 106.708 223.223Z" fill="#992B2B"/>
<path d="M106.194 223.209L105.883 223.158C105.919 222.942 109.414 201.648 109.096 190.315H109.414C109.732 201.669 106.23 223 106.194 223.209Z" fill="#992B2B"/>
<path d="M105.188 223.158L104.869 223.13C106.063 211.71 109.776 188.418 109.812 188.187L110.123 188.238C110.087 188.468 106.375 211.754 105.181 223.166L105.188 223.158Z" fill="#992B2B"/>
<path d="M104.66 223.158L104.341 223.13C105.535 211.71 109.248 188.418 109.284 188.187L109.595 188.238C109.559 188.468 105.846 211.754 104.652 223.166L104.66 223.158Z" fill="#992B2B"/>
<path d="M110.933 223.822L110.601 223.779C113.401 200.883 110.63 189.702 110.601 189.594L110.926 189.514C110.955 189.623 113.734 200.854 110.926 223.822H110.933Z" fill="#BC4646"/>
<path d="M108.994 223.577L108.661 223.533C111.462 200.638 108.69 189.457 108.661 189.348L108.987 189.269C109.016 189.377 111.795 200.609 108.987 223.577H108.994Z" fill="#BC4646"/>
<path d="M99.7027 221.831L99.3699 221.795C99.3988 221.543 102.257 196.411 109.168 188.973L109.414 189.197C102.576 196.555 99.7317 221.579 99.7027 221.831Z" fill="#BC4646"/>
<path d="M100.282 221.831L99.9487 221.795C99.9777 221.543 102.836 196.411 109.747 188.973L109.993 189.197C103.154 196.555 100.311 221.579 100.282 221.831Z" fill="#BC4646"/>
<path d="M101.208 222.632L100.875 222.596C103.509 197.651 109.993 188.714 110.058 188.627L110.326 188.822C110.261 188.908 103.827 197.796 101.201 222.632H101.208Z" fill="#BC4646"/>
<path d="M102.011 222.928L101.678 222.891C104.312 197.947 110.796 189.009 110.861 188.923L111.129 189.118C111.064 189.204 104.631 198.091 102.004 222.928H102.011Z" fill="#BC4646"/>
<path d="M108.43 223.829L108.104 223.779C108.148 223.512 112.265 196.894 109.602 189.615L109.913 189.5C112.605 196.858 108.604 222.733 108.43 223.829Z" fill="#992B2B"/>
<path d="M109.609 224.06L109.276 224.017C109.313 223.75 112.844 197.045 110.029 189.832L110.34 189.709C113.191 197.009 109.754 222.956 109.609 224.06Z" fill="#BC4646"/>
<path d="M102.771 222.56L102.445 222.509C102.633 221.304 107.142 192.89 109.313 189.623L109.588 189.803C107.453 193.006 102.814 222.264 102.771 222.552V222.56Z" fill="#BC4646"/>
<path d="M107.171 223.339L106.845 223.281C106.881 223.065 110.745 201.77 110.398 190.445H110.731C111.078 201.799 107.214 223.13 107.178 223.346L107.171 223.339Z" fill="#BC4646"/>
<path d="M105.419 223.173L105.094 223.108C105.137 222.884 109.718 200.724 109.37 189.392H109.703C110.051 200.746 105.463 222.949 105.419 223.173Z" fill="#BC4646"/>
<path d="M105.159 223.158L104.826 223.122C106.143 211.703 110.246 188.411 110.282 188.18L110.608 188.238C110.565 188.468 106.469 211.754 105.152 223.166L105.159 223.158Z" fill="#BC4646"/>
<path d="M104.001 223.158L103.668 223.122C104.985 211.703 109.088 188.411 109.124 188.18L109.45 188.238C109.407 188.468 105.311 211.754 103.994 223.166L104.001 223.158Z" fill="#BC4646"/>
<g style="mix-blend-mode:multiply">
<path d="M123.156 60.7381C124.227 60.3486 125.016 59.519 125.392 58.5235C125.421 58.8337 125.479 59.1511 125.587 59.4613C126.282 61.445 128.431 62.4766 130.378 61.7696C131.166 61.4811 131.803 60.9545 132.237 60.2909C132.129 60.9257 132.165 61.5965 132.397 62.2385C133.091 64.2222 135.241 65.2538 137.187 64.5469C137.288 64.5108 137.39 64.4675 137.491 64.417C137.491 64.8282 137.563 65.2394 137.708 65.6505C138.403 67.6343 140.552 68.6658 142.499 67.9589C142.745 67.8723 142.976 67.7569 143.193 67.6198C142.622 68.5648 142.462 69.755 142.86 70.8876C143.519 72.7631 145.473 73.7874 147.34 73.2897C146.464 74.2924 146.139 75.7423 146.616 77.0984C147.311 79.0822 149.46 80.1137 151.407 79.4068C153.36 78.6998 154.373 76.5213 153.679 74.5376C153.02 72.6621 151.066 71.6378 149.199 72.1355C150.075 71.1328 150.401 69.6829 149.923 68.334C149.228 66.3502 147.079 65.3187 145.133 66.0256C144.887 66.1122 144.655 66.2276 144.438 66.3647C145.01 65.4197 145.169 64.2295 144.771 63.0969C144.076 61.1132 141.927 60.0817 139.98 60.7886C139.879 60.8247 139.778 60.8679 139.676 60.9184C139.676 60.5073 139.604 60.0961 139.459 59.6849C138.765 57.7012 136.615 56.6697 134.669 57.3766C133.88 57.6651 133.243 58.1917 132.809 58.8554C132.918 58.2206 132.882 57.5497 132.65 56.9077C131.955 54.924 129.806 53.8924 127.859 54.5994C126.788 54.9889 126 55.8185 125.623 56.8139C125.594 56.5037 125.537 56.1863 125.428 55.8762C124.733 53.8924 122.584 52.8609 120.638 53.5678C118.684 54.2748 117.671 56.4533 118.365 58.437C119.06 60.4207 121.209 61.4522 123.156 60.7453V60.7381Z" fill="#FFE6BD"/>
<path d="M108.9 64.2727C110.839 63.573 111.852 61.4162 111.187 59.4469C112.091 60.9617 113.944 61.6759 115.652 61.0627C117.605 60.3558 118.618 58.1773 117.924 56.1936C117.229 54.2098 115.08 53.1783 113.133 53.8852C111.194 54.5849 110.181 56.7418 110.847 58.7111C109.942 57.1962 108.09 56.4821 106.382 57.0952C104.428 57.8022 103.415 59.9807 104.11 61.9644C104.804 63.9481 106.953 64.9797 108.9 64.2727Z" fill="#FFE6BD"/>
<path d="M129.162 126.396C128.749 125.227 127.838 124.398 126.759 124.051C128.496 123.229 129.372 121.188 128.713 119.319C128.171 117.776 126.745 116.809 125.218 116.795C126.108 115.785 126.441 114.328 125.963 112.964C125.312 111.118 123.402 110.093 121.564 110.54C122.222 109.567 122.432 108.297 122.012 107.092C121.39 105.318 119.603 104.308 117.83 104.625C117.982 103.947 117.953 103.219 117.707 102.519C117.027 100.593 114.979 99.5686 113.075 100.16C113.242 99.4604 113.22 98.7102 112.967 97.9817C112.316 96.1206 110.384 95.0962 108.538 95.5651C108.697 94.8726 108.676 94.1296 108.423 93.4083C107.836 91.7347 106.208 90.7393 104.544 90.898C104.942 90.0251 105.014 89.0008 104.674 88.0197C104.182 86.6275 102.974 85.7042 101.628 85.5239C102.083 84.6222 102.192 83.5401 101.83 82.5086C101.519 81.6213 100.918 80.9288 100.173 80.4888C101.425 79.5078 101.982 77.7837 101.418 76.1895C101.222 75.6341 100.911 75.158 100.528 74.7685C102.351 73.9894 103.285 71.8975 102.612 69.9787C102.561 69.8416 102.51 69.7118 102.445 69.5891C102.72 69.5531 102.988 69.4954 103.263 69.3944C105.217 68.6874 106.23 66.5089 105.535 64.5252C104.84 62.5415 102.691 61.51 100.745 62.2169C98.7909 62.9238 97.7778 65.1023 98.4725 67.086C98.5232 67.2231 98.5738 67.3529 98.6389 67.4756C98.364 67.5116 98.0962 67.5693 97.8212 67.6703C95.8674 68.3773 94.8543 70.5557 95.549 72.5395C95.7444 73.0949 96.0556 73.571 96.4391 73.9605C94.6155 74.7396 93.682 76.8315 94.355 78.7503C94.6662 79.6376 95.2668 80.3301 96.0121 80.7629C94.7602 81.744 94.2031 83.468 94.7675 85.0622C95.2596 86.4544 96.468 87.3777 97.814 87.5581C97.3581 88.4598 97.2496 89.5418 97.6114 90.5733C98.1975 92.2469 99.8257 93.2424 101.49 93.0837C101.092 93.9565 101.02 94.9808 101.36 95.9619C102.011 97.823 103.943 98.8473 105.788 98.3784C105.629 99.0709 105.651 99.8139 105.904 100.535C106.584 102.461 108.632 103.486 110.536 102.894C110.369 103.594 110.391 104.344 110.644 105.073C111.266 106.847 113.054 107.857 114.827 107.54C114.675 108.218 114.704 108.946 114.95 109.646C115.601 111.493 117.511 112.517 119.349 112.07C118.691 113.044 118.481 114.313 118.901 115.518C119.443 117.062 120.869 118.028 122.396 118.043C121.506 119.052 121.173 120.51 121.651 121.873C122.063 123.042 122.975 123.871 124.053 124.217C122.316 125.04 121.441 127.081 122.099 128.949C122.36 129.692 122.823 130.306 123.409 130.738C122.837 130.659 122.244 130.717 121.665 130.926C119.711 131.633 118.698 133.811 119.393 135.795C119.697 136.654 120.276 137.339 120.985 137.779C120.109 137.339 119.067 137.252 118.076 137.613C116.122 138.32 115.109 140.498 115.804 142.482C116.122 143.384 116.744 144.091 117.504 144.523C116.846 144.379 116.144 144.408 115.463 144.661C113.51 145.367 112.497 147.546 113.191 149.53C113.539 150.511 114.233 151.261 115.094 151.679C114.639 151.665 114.168 151.73 113.712 151.896C111.758 152.603 110.745 154.781 111.44 156.765C111.947 158.215 113.235 159.153 114.653 159.275C114.581 159.297 114.501 159.318 114.429 159.34C112.475 160.047 111.462 162.226 112.156 164.209C112.446 165.032 112.996 165.681 113.669 166.121C115.558 165.522 117.367 164.721 119.248 164.101C119.494 163.329 119.509 162.471 119.219 161.648C118.713 160.199 117.425 159.261 116.006 159.138C116.079 159.116 116.158 159.095 116.231 159.073C118.184 158.366 119.197 156.188 118.503 154.204C118.155 153.223 117.461 152.473 116.6 152.054C117.055 152.069 117.526 152.004 117.982 151.838C119.936 151.131 120.949 148.953 120.254 146.969C119.936 146.067 119.313 145.36 118.553 144.927C119.212 145.072 119.914 145.043 120.594 144.79C122.548 144.083 123.561 141.905 122.866 139.921C122.562 139.063 121.983 138.378 121.274 137.938C122.15 138.378 123.192 138.464 124.183 138.111C126.137 137.404 127.15 135.225 126.456 133.241C126.195 132.498 125.732 131.885 125.146 131.453C125.717 131.532 126.311 131.474 126.89 131.265C128.844 130.558 129.857 128.38 129.162 126.396Z" fill="#FFE6BD"/>
<path d="M153.31 94.649C153.585 94.6129 153.86 94.5552 154.127 94.4542C156.081 93.7473 157.094 91.5688 156.4 89.5851C155.806 87.8899 154.142 86.8872 152.448 87.082C152.506 87.0675 152.557 87.0531 152.615 87.0315C154.569 86.3246 155.582 84.1461 154.887 82.1623C154.192 80.1786 152.043 79.1471 150.097 79.854C148.143 80.5609 147.13 82.7394 147.824 84.7231C148.418 86.4183 150.082 87.421 151.775 87.2262C151.718 87.2407 151.667 87.2551 151.609 87.2767C149.655 87.9837 148.642 90.1622 149.337 92.1459C149.728 93.2568 150.567 94.0647 151.58 94.4398C151.305 94.4759 151.03 94.5336 150.762 94.6346C148.809 95.3415 147.795 97.52 148.49 99.5037C148.874 100.593 149.699 101.394 150.683 101.783C150.278 101.783 149.872 101.855 149.467 102C147.513 102.707 146.5 104.885 147.195 106.869C147.492 107.713 148.056 108.384 148.751 108.824C147.846 108.333 146.753 108.21 145.719 108.586C143.765 109.292 142.752 111.471 143.446 113.455C143.794 114.443 144.496 115.193 145.357 115.612C144.684 115.453 143.96 115.482 143.258 115.734C141.304 116.441 140.291 118.62 140.986 120.603C141.116 120.971 141.29 121.303 141.507 121.599C140.603 121.094 139.503 120.971 138.453 121.354C136.5 122.06 135.486 124.239 136.181 126.223C136.434 126.944 136.883 127.543 137.44 127.976C136.521 127.435 135.378 127.29 134.3 127.68C132.346 128.387 131.333 130.565 132.027 132.549C132.223 133.097 132.527 133.566 132.903 133.956C132.1 133.645 131.188 133.609 130.312 133.927C128.359 134.634 127.346 136.812 128.04 138.796C128.482 140.051 129.502 140.924 130.689 141.22C130.334 141.241 129.98 141.306 129.632 141.436C127.678 142.143 126.665 144.322 127.36 146.305C127.903 147.849 129.328 148.816 130.855 148.83C130.674 148.866 130.493 148.909 130.312 148.974C128.359 149.681 127.346 151.86 128.04 153.843C128.735 155.827 130.884 156.859 132.831 156.152C134.785 155.445 135.798 153.266 135.103 151.283C134.56 149.739 133.135 148.772 131.608 148.758C131.789 148.722 131.97 148.678 132.15 148.614C134.104 147.907 135.117 145.728 134.423 143.744C133.981 142.489 132.961 141.616 131.774 141.321C132.129 141.299 132.483 141.234 132.831 141.104C134.785 140.397 135.798 138.219 135.103 136.235C134.908 135.687 134.604 135.218 134.227 134.828C135.031 135.139 135.942 135.175 136.818 134.857C138.772 134.15 139.785 131.972 139.09 129.988C138.837 129.267 138.388 128.668 137.831 128.235C138.75 128.776 139.893 128.921 140.972 128.531C142.925 127.824 143.938 125.646 143.244 123.662C143.114 123.294 142.94 122.962 142.723 122.666C143.627 123.171 144.727 123.294 145.777 122.912C147.73 122.205 148.743 120.026 148.049 118.043C147.701 117.054 146.999 116.304 146.138 115.886C146.811 116.044 147.535 116.016 148.237 115.763C150.191 115.056 151.204 112.878 150.509 110.894C150.212 110.05 149.648 109.379 148.953 108.939C149.858 109.43 150.951 109.552 151.985 109.177C153.939 108.47 154.952 106.292 154.258 104.308C153.874 103.219 153.049 102.418 152.065 102.028C152.47 102.028 152.875 101.956 153.281 101.812C155.234 101.105 156.248 98.9266 155.553 96.9429C155.162 95.832 154.323 95.0241 153.31 94.649Z" fill="#FFE6BD"/>
</g>
<path d="M111.997 189.774C111.469 190.618 110.275 190.82 109.334 190.228C108.394 189.637 108.068 188.476 108.596 187.639C109.124 186.802 110.318 186.593 111.259 187.184C112.2 187.776 112.526 188.937 111.997 189.774Z" fill="#A85000"/>
<path d="M111.266 187.184C110.629 186.78 109.877 186.759 109.291 187.04C109.291 187.689 109.631 188.353 110.275 188.757C110.912 189.161 111.664 189.183 112.25 188.901C112.25 188.252 111.91 187.588 111.266 187.184Z" fill="#A0510A"/>
<path d="M110.731 188.021C109.464 187.228 109.088 185.547 109.884 184.292L114.733 176.631C115.529 175.369 117.215 174.994 118.474 175.787C119.74 176.58 120.116 178.261 119.32 179.516L114.472 187.177C113.676 188.44 111.99 188.815 110.731 188.021Z" fill="#A85000"/>
<path d="M114.812 176.523C115.008 177.323 115.565 178.11 116.419 178.644C117.475 179.307 118.684 179.401 119.574 178.997C120.008 177.828 119.574 176.465 118.474 175.773C117.251 175.001 115.63 175.347 114.805 176.516L114.812 176.523Z" fill="#A0510A"/>
<path d="M111.114 186.528C110.702 186.268 110.572 185.713 110.832 185.302L115.5 177.922C115.76 177.511 116.317 177.381 116.73 177.641C117.142 177.901 117.272 178.456 117.012 178.867L112.344 186.247C112.084 186.658 111.527 186.788 111.114 186.528Z" fill="#D67116"/>
<path d="M121.39 177.23C120.637 178.42 118.792 178.622 117.28 177.67C115.767 176.718 115.152 174.979 115.905 173.789C116.657 172.599 118.503 172.397 120.015 173.349C121.528 174.301 122.143 176.039 121.39 177.23Z" fill="#A85000"/>
<path d="M120.71 175.361C120.42 175.823 119.559 175.801 118.785 175.318C118.011 174.835 117.62 174.063 117.917 173.608C118.206 173.147 119.067 173.168 119.842 173.652C120.616 174.135 121.007 174.907 120.71 175.361Z" fill="#D67116"/>
<path d="M119.154 174.431C120.145 171.654 119.335 169.482 119.328 169.453L119.639 169.338C119.675 169.425 120.377 171.307 119.682 173.861C120.833 172.808 122.714 171.805 123.351 171.776L123.366 172.108C122.83 172.137 120.442 173.363 119.436 174.59L119.154 174.431Z" fill="#773A08"/>
<path d="M131.362 59.2882C132.085 61.3152 134.322 62.3756 136.362 61.647C138.396 60.9257 139.459 58.6967 138.728 56.6697C138.005 54.6427 135.769 53.5823 133.728 54.3108C131.695 55.0322 130.631 57.2612 131.362 59.2954V59.2882Z" fill="#B75F08"/>
<path d="M133.193 56.2801C133.236 57.153 134.104 57.8166 135.125 57.7589C136.145 57.7084 136.941 56.9582 136.898 56.0854C136.854 55.2125 135.986 54.5561 134.966 54.6066C133.945 54.6571 133.149 55.4073 133.193 56.2801Z" fill="#D67116"/>
<path d="M124.263 56.446C124.987 58.4731 127.223 59.5334 129.263 58.8049C131.297 58.0835 132.361 55.8545 131.63 53.8275C130.906 51.8005 128.67 50.7401 126.637 51.4687C124.603 52.1901 123.539 54.419 124.27 56.4533L124.263 56.446Z" fill="#B75F08"/>
<path d="M126.094 53.438C126.137 54.3108 127.006 54.9745 128.026 54.9168C129.046 54.8663 129.842 54.1161 129.799 53.2432C129.755 52.3704 128.887 51.714 127.867 51.7644C126.846 51.8149 126.05 52.5652 126.094 53.438Z" fill="#D67116"/>
<path d="M116.73 55.3929C117.454 57.4199 119.69 58.4803 121.73 57.7517C123.771 57.0231 124.828 54.8013 124.097 52.7743C123.373 50.7473 121.137 49.6869 119.096 50.4155C117.063 51.1369 115.999 53.3658 116.73 55.4001V55.3929Z" fill="#B75F08"/>
<path d="M118.561 52.3848C118.604 53.2576 119.473 53.9213 120.493 53.8636C121.513 53.8131 122.309 53.0629 122.266 52.19C122.222 51.3172 121.354 50.6608 120.334 50.7113C119.313 50.7617 118.517 51.512 118.561 52.3848Z" fill="#D67116"/>
<path d="M108.907 55.7247C109.631 57.7517 111.867 58.8121 113.908 58.0835C115.941 57.3621 117.005 55.1332 116.274 53.1062C115.55 51.0791 113.314 50.0188 111.281 50.7473C109.247 51.4687 108.184 53.6977 108.915 55.7319L108.907 55.7247Z" fill="#B75F08"/>
<path d="M110.738 52.7166C110.781 53.5895 111.65 54.2531 112.67 54.1954C113.69 54.1449 114.486 53.3947 114.443 52.5218C114.4 51.649 113.531 50.9926 112.511 51.0431C111.491 51.0936 110.695 51.8438 110.738 52.7166Z" fill="#D67116"/>
<path d="M101.866 59.0069C102.59 61.0339 104.826 62.0942 106.867 61.3657C108.9 60.6443 109.964 58.4153 109.233 56.3811C108.509 54.3541 106.273 53.2937 104.24 54.0223C102.206 54.7436 101.143 56.9726 101.874 59.0069H101.866Z" fill="#B75F08"/>
<path d="M103.697 55.9988C103.74 56.8716 104.609 57.5353 105.629 57.4776C106.649 57.4271 107.445 56.6769 107.402 55.804C107.359 54.9312 106.49 54.2747 105.47 54.3252C104.45 54.3757 103.654 55.1259 103.697 55.9988Z" fill="#D67116"/>
<path d="M95.9906 64.2439C96.7142 66.2709 98.9503 67.3313 100.991 66.6027C103.024 65.8814 104.088 63.6524 103.357 61.6181C102.634 59.5911 100.398 58.5307 98.3641 59.2593C96.3307 59.9879 95.267 62.2097 95.9978 64.2439H95.9906Z" fill="#B75F08"/>
<path d="M97.8213 61.2358C97.8647 62.1087 98.7331 62.7723 99.7534 62.7146C100.774 62.6641 101.57 61.9139 101.526 61.041C101.483 60.1682 100.615 59.5118 99.5942 59.5623C98.5739 59.6128 97.7779 60.363 97.8213 61.2358Z" fill="#D67116"/>
<path d="M92.9439 69.82C93.6675 71.847 95.9036 72.9074 97.9442 72.1788C99.9776 71.4574 101.041 69.2285 100.31 67.1942C99.5869 65.1672 97.3508 64.1068 95.3102 64.8354C93.2768 65.5568 92.213 67.7857 92.9439 69.82Z" fill="#B75F08"/>
<path d="M94.7746 66.8119C94.8181 67.6848 95.6864 68.3484 96.7068 68.2907C97.7271 68.2402 98.5231 67.49 98.4797 66.6172C98.4362 65.7443 97.5679 65.0879 96.5476 65.1384C95.5272 65.1889 94.7312 65.9391 94.7746 66.8119Z" fill="#D67116"/>
<path d="M91.6993 76.1751C92.423 78.2021 94.659 79.2625 96.6997 78.5339C98.7331 77.8126 99.7968 75.5836 99.066 73.5494C98.3423 71.5224 96.1063 70.462 94.0729 71.1905C92.0394 71.9191 90.9757 74.1409 91.7066 76.1751H91.6993Z" fill="#B75F08"/>
<path d="M93.53 73.167C93.5734 74.0399 94.4418 74.7035 95.4621 74.6458C96.4825 74.5953 97.2784 73.8451 97.235 72.9723C97.1916 72.0994 96.3232 71.443 95.3029 71.4935C94.2826 71.544 93.4866 72.2942 93.53 73.167Z" fill="#D67116"/>
<path d="M92.1263 82.6312C92.85 84.6582 95.086 85.7186 97.1267 84.9901C99.1673 84.2615 100.224 82.0397 99.493 80.0127C98.7693 77.9857 96.5333 76.9253 94.4999 77.6539C92.4664 78.3752 91.4027 80.6042 92.1336 82.6384L92.1263 82.6312Z" fill="#B75F08"/>
<path d="M93.9499 79.6232C93.9934 80.496 94.8617 81.1597 95.882 81.102C96.9024 81.0442 97.6984 80.3012 97.655 79.4284C97.6115 78.5556 96.7432 77.8991 95.7228 77.9496C94.7025 78.0001 93.9065 78.7503 93.9499 79.6232Z" fill="#D67116"/>
<path d="M95.0931 88.2722C95.8168 90.2992 98.0528 91.3596 100.093 90.631C102.127 89.9097 103.191 87.6807 102.46 85.6465C101.736 83.6195 99.5001 82.5591 97.4667 83.2876C95.4333 84.0162 94.3695 86.238 95.1004 88.2722H95.0931Z" fill="#B75F08"/>
<path d="M96.9238 85.2641C96.9672 86.137 97.8356 86.8006 98.8559 86.7429C99.8762 86.6852 100.672 85.9422 100.629 85.0694C100.585 84.1965 99.717 83.5401 98.6967 83.5906C97.6764 83.6411 96.8804 84.3913 96.9238 85.2641Z" fill="#D67116"/>
<path d="M99.0081 93.7834C99.7317 95.8104 101.968 96.8708 104.008 96.1422C106.042 95.4208 107.106 93.1918 106.375 91.1648C105.651 89.1378 103.415 88.0774 101.374 88.806C99.341 89.5274 98.2772 91.7564 99.0081 93.7906V93.7834Z" fill="#B75F08"/>
<path d="M100.839 90.7753C100.882 91.6481 101.751 92.3118 102.771 92.2541C103.791 92.2036 104.587 91.4534 104.544 90.5805C104.5 89.7077 103.632 89.0513 102.612 89.1018C101.591 89.1523 100.795 89.9025 100.839 90.7753Z" fill="#D67116"/>
<path d="M103.741 98.465C104.464 100.492 106.7 101.552 108.741 100.824C110.774 100.102 111.838 97.8734 111.107 95.8392C110.384 93.8122 108.148 92.7518 106.114 93.4804C104.081 94.2017 103.017 96.4307 103.748 98.465H103.741Z" fill="#B75F08"/>
<path d="M105.571 95.4569C105.615 96.3297 106.483 96.9934 107.503 96.9357C108.524 96.8852 109.32 96.135 109.276 95.2621C109.233 94.3893 108.365 93.7328 107.344 93.7833C106.324 93.8338 105.528 94.584 105.571 95.4569Z" fill="#D67116"/>
<path d="M108.69 103.103C109.414 105.13 111.65 106.191 113.691 105.462C115.724 104.741 116.788 102.512 116.057 100.478C115.333 98.4505 113.097 97.3902 111.064 98.1187C109.03 98.8473 107.967 101.069 108.698 103.103H108.69Z" fill="#B75F08"/>
<path d="M110.521 100.095C110.564 100.968 111.433 101.632 112.453 101.574C113.473 101.524 114.269 100.773 114.226 99.9005C114.183 99.0276 113.314 98.3712 112.294 98.4217C111.274 98.4722 110.478 99.2224 110.521 100.095Z" fill="#D67116"/>
<path d="M113.177 107.785C113.901 109.812 116.137 110.872 118.177 110.144C120.211 109.422 121.274 107.193 120.543 105.166C119.82 103.139 117.584 102.079 115.55 102.808C113.517 103.529 112.453 105.758 113.184 107.792L113.177 107.785Z" fill="#B75F08"/>
<path d="M115.008 104.777C115.051 105.65 115.919 106.313 116.94 106.256C117.96 106.205 118.756 105.455 118.713 104.582C118.669 103.709 117.801 103.053 116.78 103.103C115.76 103.154 114.964 103.904 115.008 104.777Z" fill="#D67116"/>
<path d="M117.294 113.794C118.018 115.821 120.254 116.881 122.295 116.153C124.328 115.431 125.392 113.202 124.661 111.175C123.937 109.148 121.701 108.088 119.668 108.816C117.634 109.538 116.571 111.767 117.302 113.801L117.294 113.794Z" fill="#B75F08"/>
<path d="M119.118 110.786C119.161 111.659 120.03 112.322 121.05 112.264C122.07 112.214 122.866 111.464 122.823 110.591C122.78 109.718 121.911 109.054 120.891 109.112C119.87 109.17 119.074 109.913 119.118 110.786Z" fill="#D67116"/>
<path d="M120.16 120.293C120.884 122.32 123.12 123.381 125.16 122.652C127.194 121.931 128.258 119.702 127.527 117.675C126.796 115.648 124.567 114.587 122.534 115.316C120.5 116.037 119.436 118.266 120.167 120.3L120.16 120.293Z" fill="#B75F08"/>
<path d="M121.991 117.292C122.034 118.165 122.902 118.829 123.923 118.771C124.943 118.721 125.739 117.97 125.696 117.098C125.652 116.225 124.784 115.568 123.764 115.619C122.743 115.669 121.947 116.419 121.991 117.292Z" fill="#D67116"/>
<path d="M120.623 127.543C121.347 129.57 123.583 130.63 125.624 129.902C127.657 129.18 128.721 126.951 127.99 124.917C127.266 122.89 125.03 121.83 122.997 122.558C120.963 123.28 119.9 125.509 120.63 127.543H120.623Z" fill="#B75F08"/>
<path d="M122.454 124.535C122.497 125.408 123.366 126.071 124.386 126.014C125.406 125.963 126.202 125.213 126.159 124.34C126.115 123.467 125.247 122.811 124.227 122.861C123.206 122.912 122.41 123.662 122.454 124.535Z" fill="#D67116"/>
<path d="M117.801 134.54C118.525 136.567 120.761 137.627 122.801 136.899C124.835 136.177 125.898 133.948 125.168 131.914C124.444 129.887 122.208 128.827 120.174 129.555C118.141 130.277 117.077 132.506 117.808 134.54H117.801Z" fill="#A85000"/>
<path d="M119.625 131.532C119.668 132.405 120.536 133.068 121.557 133.011C122.577 132.96 123.373 132.21 123.33 131.337C123.286 130.464 122.418 129.801 121.397 129.858C120.37 129.909 119.581 130.659 119.625 131.532Z" fill="#D67116"/>
<path d="M114.06 141.378C114.783 143.405 117.019 144.466 119.06 143.737C121.093 143.016 122.157 140.787 121.426 138.76C120.703 136.733 118.467 135.672 116.433 136.401C114.4 137.122 113.336 139.351 114.067 141.386L114.06 141.378Z" fill="#A85000"/>
<path d="M115.89 138.37C115.934 139.243 116.802 139.907 117.823 139.849C118.843 139.799 119.639 139.048 119.595 138.176C119.552 137.303 118.684 136.646 117.663 136.697C116.636 136.747 115.847 137.497 115.89 138.37Z" fill="#D67116"/>
<path d="M111.339 148.585C112.063 150.612 114.299 151.672 116.339 150.944C118.373 150.222 119.436 147.993 118.706 145.959C117.982 143.932 115.746 142.872 113.705 143.6C111.672 144.321 110.608 146.55 111.339 148.585Z" fill="#A85000"/>
<path d="M113.17 145.577C113.213 146.449 114.081 147.113 115.102 147.055C116.122 147.005 116.918 146.255 116.875 145.382C116.831 144.509 115.963 143.853 114.943 143.903C113.922 143.954 113.126 144.704 113.17 145.577Z" fill="#D67116"/>
<path d="M109.508 155.986C110.232 158.013 112.468 159.073 114.508 158.345C116.542 157.623 117.605 155.394 116.875 153.36C116.151 151.333 113.915 150.273 111.881 151.001C109.848 151.723 108.784 153.952 109.515 155.986H109.508Z" fill="#A85000"/>
<path d="M111.339 152.978C111.382 153.851 112.25 154.514 113.271 154.457C114.291 154.406 115.087 153.656 115.044 152.783C115 151.91 114.132 151.254 113.112 151.304C112.091 151.355 111.295 152.105 111.339 152.978Z" fill="#D67116"/>
<path d="M110.253 163.611C110.977 165.638 113.213 166.698 115.254 165.969C117.294 165.241 118.351 163.019 117.62 160.992C116.896 158.965 114.66 157.905 112.627 158.633C110.593 159.355 109.53 161.584 110.261 163.618L110.253 163.611Z" fill="#A85000"/>
<path d="M112.084 160.602C112.127 161.475 112.996 162.139 114.016 162.081C115.036 162.031 115.832 161.281 115.789 160.408C115.746 159.535 114.877 158.878 113.857 158.929C112.837 158.979 112.041 159.73 112.084 160.602Z" fill="#D67116"/>
<path d="M114.356 170.096C115.08 172.123 117.316 173.183 119.357 172.454C121.39 171.733 122.454 169.504 121.723 167.47C120.999 165.443 118.763 164.382 116.73 165.111C114.696 165.832 113.633 168.061 114.364 170.096H114.356Z" fill="#A85000"/>
<path d="M116.187 167.087C116.23 167.96 117.099 168.624 118.119 168.566C119.139 168.509 119.935 167.766 119.892 166.893C119.849 166.02 118.98 165.363 117.96 165.414C116.94 165.464 116.144 166.215 116.187 167.087Z" fill="#D67116"/>
<path d="M121.477 173.111C122.201 175.138 124.437 176.198 126.477 175.47C128.518 174.741 129.574 172.519 128.844 170.485C128.12 168.458 125.884 167.398 123.85 168.126C121.817 168.848 120.753 171.077 121.484 173.111H121.477Z" fill="#A85000"/>
<path d="M123.308 170.103C123.351 170.976 124.219 171.639 125.24 171.581C126.26 171.531 127.056 170.781 127.013 169.908C126.969 169.035 126.101 168.379 125.081 168.429C124.06 168.48 123.264 169.23 123.308 170.103Z" fill="#D67116"/>
<path d="M127.628 168.472C128.351 170.499 130.587 171.56 132.628 170.831C134.662 170.11 135.725 167.881 134.994 165.854C134.271 163.827 132.035 162.767 130.001 163.495C127.968 164.216 126.904 166.445 127.635 168.48L127.628 168.472Z" fill="#A85000"/>
<path d="M129.458 165.464C129.502 166.337 130.37 167.001 131.391 166.943C132.411 166.885 133.207 166.142 133.164 165.27C133.12 164.397 132.252 163.74 131.231 163.791C130.211 163.841 129.415 164.592 129.458 165.464Z" fill="#D67116"/>
<path d="M126.825 160.79C127.548 162.817 129.784 163.877 131.825 163.149C133.858 162.428 134.922 160.199 134.191 158.172C133.468 156.145 131.232 155.084 129.198 155.813C127.165 156.534 126.101 158.763 126.832 160.797L126.825 160.79Z" fill="#A85000"/>
<path d="M128.655 157.782C128.699 158.655 129.567 159.318 130.587 159.261C131.608 159.21 132.404 158.46 132.36 157.587C132.317 156.714 131.449 156.058 130.428 156.108C129.408 156.159 128.612 156.909 128.655 157.782Z" fill="#D67116"/>
<path d="M126.825 152.992C127.548 155.019 129.784 156.08 131.825 155.351C133.858 154.63 134.922 152.401 134.191 150.366C133.468 148.339 131.232 147.279 129.198 148.008C127.165 148.729 126.101 150.958 126.832 152.992H126.825Z" fill="#A85000"/>
<path d="M128.655 149.984C128.699 150.857 129.567 151.521 130.587 151.463C131.608 151.412 132.404 150.662 132.36 149.789C132.317 148.917 131.449 148.26 130.428 148.311C129.408 148.361 128.612 149.111 128.655 149.984Z" fill="#D67116"/>
<path d="M126.116 145.274C126.839 147.301 129.075 148.361 131.116 147.633C133.149 146.911 134.213 144.682 133.482 142.648C132.759 140.621 130.523 139.561 128.489 140.289C126.456 141.01 125.392 143.239 126.123 145.274H126.116Z" fill="#A85000"/>
<path d="M127.946 142.266C127.99 143.138 128.858 143.802 129.878 143.744C130.899 143.694 131.695 142.944 131.651 142.071C131.608 141.198 130.74 140.542 129.719 140.592C128.699 140.643 127.903 141.393 127.946 142.266Z" fill="#D67116"/>
<path d="M126.825 137.598C127.548 139.625 129.784 140.686 131.825 139.957C133.858 139.236 134.922 137.007 134.191 134.973C133.468 132.946 131.232 131.885 129.198 132.614C127.165 133.335 126.101 135.564 126.832 137.598H126.825Z" fill="#A85000"/>
<path d="M128.655 134.59C128.699 135.463 129.567 136.127 130.587 136.069C131.608 136.019 132.404 135.268 132.36 134.396C132.317 133.523 131.449 132.866 130.428 132.917C129.408 132.967 128.612 133.718 128.655 134.59Z" fill="#D67116"/>
<path d="M130.978 131.207C131.702 133.234 133.938 134.295 135.979 133.566C138.012 132.845 139.076 130.616 138.345 128.582C137.621 126.555 135.385 125.494 133.352 126.223C131.319 126.944 130.255 129.173 130.986 131.207H130.978Z" fill="#B75F08"/>
<path d="M132.809 128.199C132.852 129.072 133.721 129.736 134.741 129.678C135.762 129.627 136.558 128.877 136.514 128.004C136.471 127.132 135.602 126.475 134.582 126.526C133.562 126.576 132.766 127.326 132.809 128.199Z" fill="#D67116"/>
<path d="M135.306 124.737C136.029 126.764 138.265 127.824 140.306 127.096C142.339 126.374 143.403 124.145 142.672 122.111C141.949 120.084 139.712 119.024 137.679 119.752C135.646 120.481 134.582 122.702 135.313 124.737H135.306Z" fill="#B75F08"/>
<path d="M137.136 121.729C137.18 122.601 138.048 123.265 139.068 123.207C140.089 123.157 140.885 122.407 140.841 121.534C140.798 120.661 139.929 120.005 138.909 120.055C137.889 120.106 137.093 120.856 137.136 121.729Z" fill="#D67116"/>
<path d="M140.32 118.995C141.044 121.022 143.28 122.082 145.321 121.354C147.361 120.625 148.418 118.403 147.687 116.376C146.963 114.349 144.727 113.289 142.687 114.017C140.653 114.739 139.589 116.968 140.32 119.002V118.995Z" fill="#B75F08"/>
<path d="M142.151 115.987C142.195 116.859 143.063 117.523 144.083 117.465C145.104 117.415 145.9 116.665 145.856 115.792C145.813 114.919 144.944 114.263 143.924 114.313C142.904 114.364 142.108 115.114 142.151 115.987Z" fill="#D67116"/>
<path d="M142.882 111.687C143.606 113.714 145.842 114.775 147.883 114.046C149.916 113.325 150.98 111.096 150.249 109.069C149.525 107.042 147.289 105.981 145.256 106.71C143.222 107.431 142.159 109.66 142.889 111.695L142.882 111.687Z" fill="#B75F08"/>
<path d="M144.713 108.679C144.756 109.552 145.625 110.216 146.645 110.158C147.665 110.108 148.461 109.357 148.418 108.485C148.374 107.612 147.506 106.955 146.486 107.006C145.465 107.056 144.669 107.807 144.713 108.679Z" fill="#D67116"/>
<path d="M146.79 104.95C147.513 106.977 149.749 108.037 151.79 107.309C153.823 106.587 154.887 104.358 154.156 102.331C153.433 100.304 151.197 99.244 149.163 99.9726C147.13 100.694 146.066 102.923 146.797 104.957L146.79 104.95Z" fill="#B75F08"/>
<path d="M148.62 101.942C148.664 102.815 149.532 103.478 150.552 103.421C151.573 103.37 152.369 102.62 152.325 101.747C152.282 100.874 151.414 100.211 150.393 100.268C149.373 100.319 148.577 101.069 148.62 101.942Z" fill="#D67116"/>
<path d="M148.143 97.4118C148.867 99.4388 151.103 100.499 153.143 99.7706C155.177 99.0493 156.24 96.8203 155.51 94.786C154.786 92.759 152.55 91.6987 150.516 92.4272C148.483 93.1486 147.419 95.3776 148.15 97.4118H148.143Z" fill="#B75F08"/>
<path d="M149.974 94.4037C150.017 95.2766 150.885 95.9402 151.906 95.8825C152.926 95.832 153.722 95.0818 153.679 94.209C153.635 93.3361 152.767 92.6797 151.747 92.7302C150.719 92.7807 149.93 93.5309 149.974 94.4037Z" fill="#D67116"/>
<path d="M149.026 89.888C149.75 91.9151 151.986 92.9754 154.026 92.2469C156.06 91.5255 157.123 89.2965 156.393 87.2623C155.669 85.2353 153.433 84.1749 151.392 84.9035C149.359 85.6248 148.295 87.8538 149.026 89.888Z" fill="#B75F08"/>
<path d="M150.857 86.88C150.9 87.7528 151.768 88.4165 152.789 88.3588C153.809 88.3083 154.605 87.5581 154.562 86.6852C154.518 85.8124 153.65 85.156 152.63 85.2065C151.609 85.257 150.813 86.0072 150.857 86.88Z" fill="#D67116"/>
<path d="M147.455 82.2922C148.179 84.3192 150.415 85.3796 152.456 84.651C154.489 83.9297 155.553 81.7007 154.822 79.6665C154.098 77.6395 151.862 76.5791 149.829 77.3076C147.796 78.0362 146.732 80.258 147.463 82.2922H147.455Z" fill="#B75F08"/>
<path d="M149.286 79.2841C149.33 80.157 150.198 80.8206 151.218 80.7629C152.239 80.7052 153.035 79.9622 152.991 79.0894C152.948 78.2165 152.079 77.5601 151.059 77.6106C150.039 77.6611 149.243 78.4113 149.286 79.2841Z" fill="#D67116"/>
<path d="M146.182 74.4943C146.906 76.5213 149.142 77.5817 151.182 76.8532C153.216 76.1318 154.279 73.9028 153.549 71.8758C152.825 69.8488 150.589 68.7884 148.556 69.517C146.522 70.2455 145.458 72.4673 146.189 74.5015L146.182 74.4943Z" fill="#B75F08"/>
<path d="M148.013 71.4863C148.056 72.3591 148.924 73.0228 149.945 72.9651C150.965 72.9146 151.761 72.1644 151.718 71.2915C151.674 70.4187 150.806 69.755 149.786 69.8127C148.758 69.8632 147.969 70.6134 148.013 71.4863Z" fill="#D67116"/>
<path d="M142.274 68.1392C142.998 70.1662 145.234 71.2266 147.275 70.498C149.308 69.7767 150.372 67.5477 149.641 65.5207C148.917 63.4937 146.681 62.4333 144.648 63.1618C142.614 63.8904 141.551 66.1122 142.282 68.1464L142.274 68.1392Z" fill="#B75F08"/>
<path d="M144.098 65.1311C144.141 66.004 145.01 66.6676 146.03 66.6099C147.05 66.5594 147.846 65.8092 147.803 64.9364C147.759 64.0635 146.891 63.4071 145.871 63.4576C144.85 63.5081 144.054 64.2583 144.098 65.1311Z" fill="#D67116"/>
<path d="M136.898 62.7795C137.621 64.8066 139.857 65.8669 141.898 65.1384C143.931 64.417 144.995 62.188 144.264 60.161C143.541 58.134 141.305 57.0736 139.271 57.8022C137.238 58.5235 136.174 60.7525 136.905 62.7868L136.898 62.7795Z" fill="#B75F08"/>
<path d="M138.728 59.7715C138.772 60.6443 139.64 61.308 140.66 61.2503C141.681 61.1998 142.477 60.4496 142.433 59.5767C142.39 58.7039 141.521 58.0474 140.501 58.0979C139.481 58.1484 138.685 58.8986 138.728 59.7715Z" fill="#D67116"/>
</g>
</g>
<defs>
<filter id="filter0_d_3_2032" x="20.8057" y="20.889" width="246.403" height="218.532" filterUnits="userSpaceOnUse" color-interpolation-filters="sRGB">
<feFlood flood-opacity="0" result="BackgroundImageFix"/>
<feColorMatrix in="SourceAlpha" type="matrix" values="0 0 0 0 0 0 0 0 0 0 0 0 0 0 0 0 0 0 127 0" result="hardAlpha"/>
<feOffset dy="1"/>
<feGaussianBlur stdDeviation="2.25"/>
<feComposite in2="hardAlpha" operator="out"/>
<feColorMatrix type="matrix" values="0 0 0 0 0.574038 0 0 0 0 0.472699 0 0 0 0 0.348839 0 0 0 0.34 0"/>
<feBlend mode="normal" in2="BackgroundImageFix" result="effect1_dropShadow_3_2032"/>
<feBlend mode="normal" in="SourceGraphic" in2="effect1_dropShadow_3_2032" result="shape"/>
</filter>
<clipPath id="clip0_3_2032">
<rect width="288" height="250" fill="white"/>
</clipPath>
</defs>
</svg>
