<svg width="302" height="303" viewBox="0 0 302 303" fill="none" xmlns="http://www.w3.org/2000/svg">
<path d="M150.988 302.292C234.376 302.292 301.976 234.622 301.976 151.146C301.976 67.6704 234.376 0 150.988 0C67.5996 0 0 67.6704 0 151.146C0 234.622 67.5996 302.292 150.988 302.292Z" fill="#F1EDCE"/>
<mask id="mask0_639_2306" style="mask-type:luminance" maskUnits="userSpaceOnUse" x="0" y="0" width="302" height="303">
<path d="M150.988 302.292C234.376 302.292 301.976 234.622 301.976 151.146C301.976 67.6704 234.376 0 150.988 0C67.5996 0 0 67.6704 0 151.146C0 234.622 67.5996 302.292 150.988 302.292Z" fill="white"/>
</mask>
<g mask="url(#mask0_639_2306)">
<path d="M292.309 277.369H9.66797C9.66797 277.369 12.1213 246.731 17.9266 240.895C23.7563 235.084 62.9364 227.716 68.4745 227.716C69.1789 227.716 70.4906 227.424 72.2152 226.914C78.3363 225.139 89.8499 220.591 99.3959 216.725C108.019 213.224 115.015 210.233 115.015 210.233C118.391 201.966 122.35 182.027 122.35 182.027H179.626C179.626 182.027 183.61 201.966 186.986 210.233C186.986 210.233 198.646 215.193 210.354 219.813C219.074 223.315 227.842 226.549 231.85 227.497C232.555 227.643 233.138 227.74 233.502 227.74C239.04 227.74 278.22 235.108 284.026 240.919C289.88 246.731 292.309 277.369 292.309 277.369Z" fill="#EEC19F"/>
<path d="M119.41 195.279C128.495 201.771 143.409 211.911 148.388 212.227C153.149 212.519 170.687 202.233 182.492 194.939C180.84 188.106 179.626 182.051 179.626 182.051H122.374C122.374 182.051 121.11 188.325 119.41 195.279Z" fill="#E59066"/>
<path d="M284.05 240.895C278.245 235.084 239.065 227.716 233.527 227.716C233.138 227.716 232.579 227.619 231.875 227.473C228.353 226.67 221.187 224.069 213.633 221.102C151.329 273.357 100.805 227.181 92.9836 219.327C85.1378 222.464 77.0492 225.528 72.264 226.914C70.5394 227.424 69.2278 227.716 68.5234 227.716C62.9852 227.716 23.8051 235.084 17.9755 240.895C12.1701 246.707 9.7168 277.369 9.7168 277.369C9.7168 277.369 63.2281 326 152.009 326C240.789 326 292.358 277.369 292.358 277.369C292.358 277.369 289.88 246.731 284.05 240.895Z" fill="white"/>
<path d="M53.4633 273.673C53.1476 273.673 52.8804 273.429 52.8804 273.113C52.5889 266.499 49.2611 253.126 49.2126 253.004C49.1397 252.688 49.334 252.372 49.6498 252.275C49.9656 252.202 50.2813 252.396 50.3785 252.713C50.5242 253.272 53.7548 266.329 54.0706 273.065C54.0949 273.381 53.8277 273.673 53.5119 273.673C53.4876 273.673 53.4876 273.673 53.4633 273.673Z" fill="#EBCACA"/>
<path d="M254.926 274.281C254.902 274.281 254.878 274.281 254.878 274.281C254.562 274.256 254.319 273.964 254.343 273.624C254.951 267.569 256.772 252.299 256.797 252.153C256.845 251.837 257.113 251.594 257.453 251.643C257.768 251.691 258.011 251.983 257.963 252.299C257.938 252.445 256.117 267.691 255.509 273.746C255.485 274.062 255.242 274.281 254.926 274.281Z" fill="#EBCACA"/>
<path d="M152.86 255.874C124.902 255.874 106.976 243.108 106.708 242.913C106.441 242.719 106.393 242.354 106.587 242.087C106.781 241.819 107.146 241.77 107.413 241.965C107.801 242.257 147.565 270.512 201.1 241.916C201.392 241.77 201.756 241.868 201.902 242.16C202.047 242.451 201.95 242.816 201.659 242.962C183.514 252.64 166.924 255.874 152.86 255.874Z" fill="#EBCACA"/>
<path d="M151.984 326C182.517 326 208.629 320.261 229.786 312.699C230.806 284.882 232.215 235.4 231.875 227.473C231.413 227.351 230.855 227.205 230.247 227.035C230.053 226.986 229.81 226.914 229.592 226.841C229.179 226.719 228.741 226.597 228.28 226.427C227.988 226.33 227.697 226.233 227.405 226.135C226.944 225.99 226.482 225.819 225.997 225.673C225.681 225.576 225.365 225.455 225.025 225.333C224.515 225.163 223.981 224.968 223.446 224.774C223.082 224.652 222.742 224.531 222.377 224.385C221.819 224.19 221.236 223.971 220.653 223.752C220.288 223.631 219.948 223.485 219.584 223.363C218.928 223.12 218.248 222.853 217.544 222.585C217.252 222.464 216.936 222.367 216.645 222.245C215.649 221.856 214.629 221.467 213.609 221.078C212.467 222.026 211.325 222.95 210.208 223.85C209.868 231.995 209.164 248.044 208.168 262.609C185.408 263.606 124.269 262.341 97.5501 261.734C97.8416 249.624 98.546 234.305 99.0318 224.749C96.1899 222.391 94.1252 220.446 92.9835 219.303C92.2063 219.619 91.429 219.911 90.6517 220.227C90.263 220.373 89.8744 220.543 89.4858 220.689C88.8299 220.956 88.1741 221.199 87.5183 221.467C86.9839 221.686 86.4495 221.88 85.9151 222.099C85.3807 222.318 84.822 222.512 84.2877 222.731C83.2675 223.12 82.2716 223.485 81.3243 223.85C80.9842 223.971 80.6441 224.093 80.3041 224.214C79.5997 224.458 78.9195 224.725 78.2637 224.944C77.9236 225.066 77.5836 225.187 77.2435 225.309C76.5877 225.528 75.9804 225.746 75.3975 225.941C75.1303 226.038 74.8388 226.135 74.5716 226.208C73.7457 226.476 72.9684 226.719 72.264 226.938C71.4381 233.722 69.7378 282.475 68.6934 310.9C90.9675 319.289 119.023 326 151.984 326Z" fill="#1BAE71"/>
<path d="M97.5256 276.177C97.2098 276.177 96.9427 275.909 96.9427 275.593C96.9427 275.204 96.8212 266.232 96.9427 263.484C96.9669 263.144 97.2098 262.876 97.5499 262.925C97.89 262.949 98.1329 263.217 98.1086 263.533C97.9871 266.232 98.1086 275.472 98.1086 275.569C98.1329 275.885 97.8657 276.153 97.5256 276.177Z" fill="#088C55"/>
<path d="M207.197 275.812C207.173 275.812 207.148 275.812 207.124 275.812C206.808 275.788 206.565 275.472 206.59 275.156C206.59 275.083 207.391 267.666 207.513 264.846C207.537 264.53 207.804 264.287 208.12 264.287C208.46 264.311 208.703 264.578 208.679 264.895C208.557 267.764 207.78 274.961 207.755 275.277C207.755 275.593 207.488 275.812 207.197 275.812Z" fill="#088C55"/>
<path d="M89.293 121.967C89.293 121.967 103.381 183.899 106.758 186.039C110.134 188.179 107.972 183.291 111.348 183.899C114.725 184.507 119.923 186.039 125.437 185.747C130.951 185.431 186.381 180.544 187.911 181.468C189.441 182.392 188.227 190.659 191.895 190.975C195.563 191.291 209.967 164.909 215.165 147.742C220.363 130.575 220.679 110.952 220.679 110.952L89.293 121.967Z" fill="#8A4A29"/>
<path d="M99.9318 124.18C99.9318 124.18 88.6854 118.66 84.0946 124.399C79.5037 130.137 83.6331 156.35 104.766 159.803L99.9318 124.18Z" fill="#EEC19F"/>
<path d="M101.39 142.32C101.196 142.32 101.002 142.222 100.904 142.052C93.6416 131.232 86.9375 129.603 86.8646 129.578C86.5488 129.505 86.3545 129.189 86.4274 128.873C86.5003 128.557 86.816 128.338 87.1318 128.411C87.4233 128.484 94.346 130.137 101.876 141.371C102.07 141.639 101.997 142.004 101.706 142.198C101.633 142.295 101.512 142.32 101.39 142.32Z" fill="#E59066"/>
<path d="M96.0453 136.192C95.9967 136.192 95.9481 136.192 95.8995 136.168C92.3775 135.292 88.0538 135.876 88.0052 135.876C87.6894 135.9 87.3737 135.706 87.3251 135.365C87.2765 135.049 87.4951 134.733 87.8352 134.685C88.0295 134.66 92.426 134.077 96.1667 135.001C96.4825 135.074 96.6768 135.414 96.604 135.73C96.5311 136.022 96.3125 136.192 96.0453 136.192Z" fill="#E59066"/>
<path d="M209.869 124.18C209.869 124.18 221.115 118.66 225.706 124.399C230.297 130.137 226.168 156.35 205.035 159.803L209.869 124.18Z" fill="#EEC19F"/>
<path d="M208.412 142.32C208.291 142.32 208.194 142.295 208.072 142.222C207.805 142.052 207.732 141.663 207.902 141.396C215.456 130.138 222.379 128.484 222.646 128.435C222.962 128.362 223.278 128.557 223.351 128.897C223.423 129.214 223.229 129.53 222.913 129.603C222.84 129.627 216.136 131.256 208.874 142.076C208.801 142.247 208.606 142.32 208.412 142.32Z" fill="#E59066"/>
<path d="M213.78 136.192C213.513 136.192 213.27 136.022 213.197 135.73C213.124 135.414 213.318 135.098 213.634 135C217.375 134.052 221.796 134.66 221.966 134.684C222.281 134.733 222.524 135.025 222.476 135.365C222.427 135.681 222.16 135.924 221.796 135.876C221.747 135.876 217.423 135.292 213.901 136.168C213.877 136.192 213.828 136.192 213.78 136.192Z" fill="#E59066"/>
<path d="M95.4128 118.296C95.4128 118.296 103.671 167.34 108.894 178.064C114.092 188.787 143.799 201.042 150.843 202.598C157.887 204.13 185.748 188.203 192.476 183.291C199.205 178.38 213.293 141.906 216.062 116.764C218.807 91.6214 213.002 73.2387 207.488 62.5155C201.974 51.7923 159.709 41.9688 141.03 43.2089C122.351 44.4247 107.339 56.9959 102.748 65.5793C98.1819 74.1384 93.5911 109.08 95.4128 118.296Z" fill="#EEC19F"/>
<path d="M198.307 78.734C198.307 78.734 209.334 100.813 210.865 112.46C212.395 124.107 210.549 137.602 212.711 138.21C214.848 138.818 225.56 111.536 226.192 92.5453C226.799 73.5304 222.815 67.1111 222.815 67.1111C222.815 67.1111 204.744 71.0989 203.213 73.2386C201.683 75.3784 198.307 78.734 198.307 78.734Z" fill="#8A4A29"/>
<path d="M101.243 148.933C102.506 148.933 96.9677 114.916 98.7895 115.84C100.636 116.764 102.773 121.675 102.773 121.675C102.773 121.675 105.518 125.663 106.441 119.828C107.364 113.992 104.911 97.4571 106.441 95.0012C107.971 92.5453 114.092 84.278 115.015 76.9104C115.015 76.9104 118.999 80.8981 135.832 84.5698C152.665 88.2415 177.781 85.7856 189.416 84.8859C201.051 83.9619 205.035 83.0379 205.035 81.506C205.035 79.9742 202.29 78.7584 204.112 77.8344C205.958 76.9104 235.64 74.1627 247.3 60.9836C258.935 47.8045 263.526 38.6132 261.995 36.7652C260.465 34.9172 260.781 34.6255 254.344 36.1573C247.907 37.6892 232.288 39.2211 230.758 37.0813C229.228 34.9416 231.074 33.7015 228.621 33.4097C226.167 33.0936 225.244 35.2577 217.301 33.4097C209.334 31.5617 188.833 23.6105 162.478 24.2184C136.148 24.8262 123.59 30.3459 112.878 39.2454C112.878 39.2454 106.757 34.6498 104.619 30.0541C102.482 25.4585 101.559 22.0786 99.421 23.9266C97.2835 25.7746 95.4374 25.4585 96.3604 32.1939C97.2835 38.9293 100.344 43.8411 100.344 45.373C100.344 46.9049 92.9841 44.7651 90.2393 44.1572C87.4945 43.5493 82.8794 45.6891 85.3327 48.4367C87.786 51.1844 95.7532 53.9564 95.7532 53.9564C95.7532 53.9564 85.6485 61.9319 81.9806 69.5914C78.3128 77.2508 76.151 93.8098 78.9201 97.4814C81.6649 101.153 82.2964 95.3417 83.5109 99.6212C84.7254 103.901 83.8267 107.889 86.2557 115.572C88.6847 123.183 96.3362 148.933 101.243 148.933Z" fill="#8A4A29"/>
<path d="M149.896 152.192C149.896 152.192 156.552 152.41 156.552 152.775C156.552 153.116 153.224 154.502 152.301 154.258C151.378 154.04 149.896 152.192 149.896 152.192Z" fill="#E59066"/>
<path d="M178.364 124.958C178.364 128.387 177.101 131.159 175.546 131.159C173.992 131.159 172.729 128.387 172.729 124.958C172.729 121.53 173.992 118.758 175.546 118.758C177.101 118.758 178.364 121.53 178.364 124.958Z" fill="#592B14"/>
<path d="M153.345 178.258C143.823 178.258 137.24 172.665 137.143 172.593C136.657 172.155 136.609 171.425 137.022 170.915C137.459 170.428 138.187 170.355 138.698 170.793C139.232 171.255 152.203 182.197 168.04 170.72C168.574 170.331 169.303 170.453 169.692 170.988C170.08 171.523 169.959 172.252 169.425 172.641C163.644 176.872 158.13 178.258 153.345 178.258Z" fill="#DB2E3A"/>
<path d="M166.923 107.086C169.133 106.357 171.246 105.895 173.433 105.554C175.594 105.214 177.805 105.044 179.991 105.019C182.177 104.971 184.363 105.165 186.525 105.506C188.687 105.797 190.8 106.454 192.84 107.159C193.156 107.256 193.302 107.597 193.205 107.889C193.108 108.18 192.816 108.326 192.525 108.278H192.476C190.436 107.767 188.395 107.329 186.331 107.208C184.266 107.038 182.177 107.062 180.112 107.256C178.048 107.451 176.007 107.791 173.991 108.278C171.999 108.764 169.959 109.396 168.186 110.15L168.113 110.174C167.263 110.539 166.315 110.15 165.951 109.299C165.587 108.448 165.975 107.5 166.826 107.135C166.826 107.135 166.874 107.111 166.923 107.086Z" fill="#592B14"/>
<path d="M140.277 110.15C138.504 109.396 136.463 108.764 134.472 108.278C132.455 107.791 130.415 107.451 128.35 107.257C126.286 107.038 124.197 107.038 122.132 107.208C120.043 107.329 118.003 107.767 115.987 108.278H115.938C115.622 108.351 115.307 108.156 115.234 107.864C115.161 107.573 115.331 107.281 115.598 107.184C117.638 106.478 119.752 105.846 121.914 105.53C124.075 105.19 126.261 105.019 128.448 105.044C130.634 105.068 132.82 105.238 135.006 105.579C137.192 105.943 139.281 106.381 141.516 107.111C142.39 107.402 142.852 108.326 142.56 109.202C142.269 110.077 141.346 110.539 140.471 110.247C140.423 110.223 140.374 110.223 140.35 110.199L140.277 110.15Z" fill="#592B14"/>
<path d="M130.051 124.958C130.051 128.387 131.314 131.159 132.868 131.159C134.423 131.159 135.686 128.387 135.686 124.958C135.686 121.53 134.423 118.758 132.868 118.758C131.314 118.758 130.051 121.53 130.051 124.958Z" fill="#592B14"/>
<path d="M160.074 80.1201C145.451 80.1201 135.662 78.4423 135.444 78.3937C135.128 78.345 134.909 78.0289 134.958 77.7128C135.007 77.3967 135.322 77.1779 135.638 77.2265C136.148 77.3238 187.4 86.1017 231.414 62.8803C231.706 62.7344 232.07 62.8316 232.216 63.1234C232.362 63.4152 232.264 63.7799 231.973 63.9258C206.784 77.2265 179.263 80.1201 160.074 80.1201Z" fill="#592B14"/>
<path d="M165.83 72.2661C160.049 72.2661 155.847 71.9986 155.41 71.9743C155.094 71.95 154.827 71.6825 154.851 71.3421C154.875 71.0017 155.167 70.7585 155.483 70.7828C155.774 70.8071 183.951 72.5579 196.533 66.8437C196.849 66.7221 197.189 66.8437 197.31 67.1355C197.456 67.4273 197.31 67.792 197.019 67.9136C189.027 71.5609 175.328 72.2661 165.83 72.2661Z" fill="#592B14"/>
<path d="M85.9407 85.7612C85.9164 85.7612 85.8922 85.7612 85.8679 85.7612C85.5521 85.7125 85.3092 85.4208 85.3578 85.0803C87.6168 68.9834 98.3287 61.6644 98.7902 61.3726C99.0574 61.2024 99.4218 61.2753 99.6161 61.5428C99.7861 61.8103 99.7133 62.175 99.4461 62.3695C99.3489 62.4425 88.7098 69.6885 86.548 85.2505C86.4751 85.5666 86.2322 85.7612 85.9407 85.7612Z" fill="#592B14"/>
</g>
</svg>
