<svg width="302" height="303" viewBox="0 0 302 303" fill="none" xmlns="http://www.w3.org/2000/svg">
<path d="M150.988 302.292C234.376 302.292 301.976 234.622 301.976 151.146C301.976 67.6704 234.376 0 150.988 0C67.5996 0 0 67.6704 0 151.146C0 234.622 67.5996 302.292 150.988 302.292Z" fill="#1BAE71"/>
<mask id="mask0_639_2252" style="mask-type:luminance" maskUnits="userSpaceOnUse" x="0" y="0" width="302" height="303">
<path d="M150.988 302.292C234.376 302.292 301.976 234.622 301.976 151.146C301.976 67.6704 234.376 0 150.988 0C67.5996 0 0 67.6704 0 151.146C0 234.622 67.5996 302.292 150.988 302.292Z" fill="white"/>
</mask>
<g mask="url(#mask0_639_2252)">
<path d="M289.029 277.369C289.029 277.369 244.797 326 148.875 326C52.953 326 6.38867 277.369 6.38867 277.369C6.38867 277.369 8.86627 246.731 14.6716 240.895C20.477 235.084 59.6814 227.716 65.1952 227.716C65.8511 227.716 66.9927 227.473 68.5473 227.035C75.5914 225.041 90.6028 219.035 100.926 214.78C107.193 212.203 111.76 210.233 111.76 210.233C115.136 201.966 119.119 182.027 119.119 182.027H176.347C176.347 182.027 180.306 201.966 183.683 210.233C183.683 210.233 187.739 211.959 193.496 214.342C203.334 218.403 218.126 224.36 225.826 226.695C227.891 227.327 229.446 227.716 230.271 227.716C235.785 227.716 274.99 235.084 280.795 240.895C286.6 246.731 289.029 277.369 289.029 277.369Z" fill="#F4CCBA"/>
<path d="M204.136 320.115V224.19C148.317 254.074 93.4453 224.19 93.4453 224.19L96.9917 320.869C112.319 324.006 129.565 326 148.876 326C169.717 326 188.104 323.69 204.136 320.115Z" fill="white"/>
<path d="M149.53 245.15C125.313 245.15 108.383 238.172 108.14 238.074C107.848 237.953 107.703 237.588 107.824 237.296C107.946 237.005 108.31 236.859 108.601 236.98C108.942 237.126 142.195 250.792 182.152 239.485C182.492 239.412 182.808 239.582 182.881 239.898C182.978 240.214 182.784 240.53 182.468 240.628C170.712 243.959 159.489 245.15 149.53 245.15Z" fill="#EBCACA"/>
<path d="M96.6525 124.18C96.6525 124.18 85.4061 118.66 80.8153 124.399C76.2244 130.137 80.3538 156.349 101.486 159.802L96.6525 124.18Z" fill="#F4CCBA"/>
<path d="M98.1109 142.319C97.9165 142.319 97.7222 142.222 97.6251 142.052C90.3623 131.231 83.6582 129.602 83.5853 129.578C83.2696 129.505 83.0752 129.189 83.1481 128.873C83.221 128.557 83.5125 128.338 83.8525 128.411C84.144 128.484 91.0667 130.137 98.5967 141.371C98.7667 141.639 98.6938 142.003 98.4266 142.198C98.3538 142.295 98.2323 142.319 98.1109 142.319Z" fill="#DBAC9A"/>
<path d="M92.7654 136.192C92.7169 136.192 92.6683 136.192 92.6197 136.168C89.0976 135.292 84.774 135.876 84.7254 135.876C84.3853 135.924 84.0938 135.681 84.0453 135.365C83.9967 135.049 84.2396 134.733 84.5554 134.684C84.7497 134.66 89.1462 134.076 92.8869 135C93.2027 135.073 93.397 135.414 93.3241 135.73C93.2513 136.022 93.0326 136.192 92.7654 136.192Z" fill="#DBAC9A"/>
<path d="M205.205 124.18C205.205 124.18 216.451 118.66 221.042 124.399C225.633 130.137 221.504 156.349 200.371 159.802L205.205 124.18Z" fill="#F4CCBA"/>
<path d="M203.748 142.319C203.627 142.319 203.529 142.295 203.408 142.222C203.141 142.052 203.068 141.663 203.238 141.395C210.792 130.137 217.715 128.484 217.982 128.435C218.322 128.362 218.614 128.557 218.687 128.897C218.759 129.213 218.565 129.529 218.249 129.602C218.176 129.627 211.472 131.256 204.21 142.076C204.137 142.246 203.942 142.319 203.748 142.319Z" fill="#DBAC9A"/>
<path d="M209.116 136.192C208.849 136.192 208.606 136.022 208.533 135.73C208.46 135.414 208.654 135.098 208.97 135C212.711 134.052 217.132 134.66 217.302 134.684C217.617 134.733 217.86 135.025 217.812 135.365C217.763 135.681 217.496 135.924 217.132 135.876C217.083 135.876 212.759 135.292 209.237 136.168C209.213 136.192 209.164 136.192 209.116 136.192Z" fill="#DBAC9A"/>
<path d="M92.1335 118.296C92.1335 118.296 100.392 167.34 105.615 178.064C110.813 188.787 140.52 201.042 147.564 202.598C154.608 204.13 182.469 188.203 189.197 183.291C195.926 178.38 210.014 141.906 212.783 116.764C215.528 91.6214 209.722 73.2387 204.208 62.5155C198.695 51.7923 156.43 41.9688 137.751 43.2089C119.071 44.4247 104.06 56.9959 99.4692 65.5793C94.9026 74.1384 90.3118 109.08 92.1335 118.296Z" fill="#F4CCBA"/>
<path d="M146.859 147.207C146.859 147.207 153.515 147.426 153.515 147.79C153.515 148.131 150.187 149.517 149.264 149.274C148.341 149.03 146.859 147.207 146.859 147.207Z" fill="#592B14"/>
<path d="M175.327 119.973C175.327 123.402 174.064 126.174 172.509 126.174C170.954 126.174 169.691 123.402 169.691 119.973C169.691 116.545 170.954 113.773 172.509 113.773C174.088 113.773 175.327 116.545 175.327 119.973Z" fill="#1F0E07"/>
<path d="M150.333 173.273C140.811 173.273 134.229 167.681 134.131 167.608C133.646 167.17 133.573 166.44 134.01 165.93C134.447 165.444 135.176 165.371 135.686 165.808C136.22 166.27 149.191 177.212 165.029 165.735C165.563 165.346 166.292 165.468 166.68 166.003C167.069 166.538 166.947 167.267 166.413 167.656C160.608 171.887 155.094 173.273 150.333 173.273Z" fill="#592B14"/>
<path d="M129.857 126.174C131.413 126.174 132.674 123.398 132.674 119.973C132.674 116.549 131.413 113.773 129.857 113.773C128.301 113.773 127.039 116.549 127.039 119.973C127.039 123.398 128.301 126.174 129.857 126.174Z" fill="#1F0E07"/>
<path d="M164.275 99.4996C168.745 98.8674 173.117 98.454 177.586 98.3324C179.821 98.2838 182.056 98.2838 184.29 98.454C186.525 98.6242 188.784 98.8917 191.043 99.5239C191.674 99.6941 192.039 100.351 191.844 100.983C191.674 101.566 191.091 101.931 190.484 101.834H190.436C186.379 101.08 182.056 101.348 177.805 101.81C173.554 102.296 169.255 103.05 165.15 103.998H165.101C163.862 104.29 162.648 103.512 162.356 102.272C162.065 101.031 162.842 99.8157 164.081 99.5239C164.154 99.4996 164.202 99.4996 164.275 99.4996Z" fill="#1F0E07"/>
<path d="M137.167 103.974C133.038 103.025 128.763 102.247 124.512 101.785C120.261 101.323 115.938 101.08 111.881 101.809H111.833C111.177 101.931 110.569 101.493 110.448 100.861C110.327 100.253 110.715 99.6697 111.298 99.4995C113.533 98.8673 115.792 98.5998 118.051 98.4296C120.31 98.2594 122.52 98.2594 124.755 98.308C129.224 98.4296 133.597 98.843 138.066 99.4752C139.305 99.6454 140.179 100.813 140.009 102.053C139.839 103.293 138.673 104.168 137.434 103.998C137.362 103.998 137.313 103.974 137.24 103.974H137.167Z" fill="#1F0E07"/>
<path d="M88.8546 137.529C88.8546 137.529 80.1345 117.08 77.6083 105.335C75.0821 93.615 73.4789 88.3142 74.6206 75.2081C75.7622 62.1019 77.3654 54.5155 84.0452 46.005C90.7007 37.4945 98.5221 32.218 102.87 31.9748C107.242 31.756 116.886 35.6465 118.027 41.4093C119.169 47.1478 120.772 53.8346 114.821 59.792C108.845 65.7736 104.935 63.7068 103.332 75.1838C101.728 86.6851 104.473 89.2139 100.805 95.8764C97.1376 102.539 93.4455 108.983 93.4455 111.511C93.4455 114.04 96.4332 134.271 97.3562 137.262C98.2792 140.252 101.728 148.301 97.8177 148.52C93.907 148.787 89.9963 142.587 88.8546 137.529Z" fill="#1F0E07"/>
<path d="M104.935 52.4487C104.935 52.4487 108.142 64.6309 122.618 67.6217C137.095 70.6125 146.277 65.0929 153.856 65.7737C161.434 66.4546 164.883 68.7646 170.397 68.7646C175.911 68.7646 176.834 65.0929 183.028 69.4454C189.222 73.8222 204.161 84.3995 205.302 87.6092C206.444 90.8189 208.29 105.092 208.29 108.983C208.29 112.873 205.545 120.484 207.828 122.77C210.136 125.08 211.278 132.885 215.869 126.222C220.459 119.56 224.37 105.53 225.293 93.1288C226.216 80.7035 218.395 64.3877 217.933 51.9867C217.472 39.5614 216.087 30.3701 208.752 24.8505C201.392 19.3551 175.425 21.884 163.037 16.3643C150.625 10.8447 134.788 8.31583 126.991 10.6258C119.169 12.9115 89.5352 24.8748 104.935 52.4487Z" fill="#1F0E07"/>
<path d="M207.804 122.794C207.804 122.794 201.829 151.073 200.226 155.207C198.622 159.34 194.032 169.699 187.595 176.361C181.158 183.024 178.17 183.267 170.13 186.477C162.09 189.686 152.447 193.139 141.2 189.929C129.954 186.72 128.108 182.805 122.594 179.814C117.08 176.823 115.016 178.209 111.809 174.757C108.603 171.304 104.449 165.784 102.846 160.726C101.243 155.669 99.6156 146.04 99.6156 146.04L89.9238 140.812C89.9238 140.812 95.0491 161.65 96.6522 167.17C98.2554 172.69 104.449 184.872 107.437 188.543C110.425 192.215 126.723 202.792 130.634 206.464C134.545 210.136 135.006 212.908 142.804 214.269C150.601 215.655 152.908 215.412 161.871 212.203C170.834 208.993 174.964 205.759 181.619 201.406C188.275 197.03 198.161 183.705 200.226 179.109C202.29 174.513 206.201 153.821 207.804 149.687C209.407 145.553 215.844 126.247 215.844 126.247L207.804 122.794Z" fill="#1F0E07"/>
<path d="M136.391 192.24C136.391 192.24 137.994 187.863 139.135 185.334C140.277 182.805 138.917 181.662 141.662 181.2C144.406 180.738 149.459 180.519 153.369 180.738C157.28 180.957 160.268 181.2 161.871 182.124C163.474 183.048 163.474 185.115 164.616 187.644C165.757 190.173 166.462 193.844 166.462 193.844L148.779 195.692L136.391 192.24Z" fill="#1F0E07"/>
<path d="M132.164 65.0199C126.869 65.0199 121.306 64.2417 117.056 61.9318C108.773 57.4334 104.643 54.1264 102.069 46.4184C99.4938 38.7103 102.19 32.0235 102.312 31.756C102.433 31.4399 102.797 31.3184 103.089 31.4399C103.38 31.5615 103.526 31.9019 103.405 32.218C103.38 32.291 100.757 38.7833 103.186 46.0536C105.615 53.3727 109.599 56.5337 117.614 60.8862C125.994 65.4332 139.767 63.7554 145.888 62.2236C153.272 60.3756 158.616 61.2752 165.393 62.3938L165.636 62.4424C165.952 62.491 166.17 62.8071 166.122 63.1232C166.073 63.4393 165.757 63.6582 165.442 63.6095L165.199 63.5609C158.568 62.4424 153.321 61.567 146.18 63.3664C142.973 64.1688 137.702 65.0199 132.164 65.0199Z" fill="#592B14"/>
<path d="M132.674 56.6068C131.217 56.6068 129.662 56.5095 128.035 56.242C118.999 54.856 111.032 46.7589 110.716 46.4185C110.497 46.1753 110.497 45.8106 110.74 45.5675C110.983 45.3486 111.347 45.3486 111.566 45.5675C111.639 45.6404 119.582 53.7132 128.229 55.0506C136.901 56.3879 143.678 53.2998 143.726 53.2512C144.018 53.1053 144.382 53.2512 144.503 53.543C144.649 53.8348 144.503 54.1995 144.212 54.3211C143.993 54.4913 139.33 56.6068 132.674 56.6068Z" fill="#592B14"/>
<path d="M87.2753 318.681C86.6437 279.119 86.0608 229.953 85.7936 220.883C85.7693 220.883 85.745 220.908 85.7207 220.908C84.9434 221.224 84.1661 221.516 83.3888 221.807C83.1459 221.905 82.9273 221.978 82.6844 222.075C82.1258 222.294 81.5914 222.488 81.057 222.707C80.7655 222.829 80.474 222.926 80.2068 223.023C79.721 223.193 79.2352 223.388 78.7737 223.558C78.4822 223.655 78.1907 223.777 77.9236 223.874C77.4863 224.044 77.0491 224.19 76.6119 224.36C76.3204 224.458 76.0289 224.579 75.7374 224.677C75.3245 224.822 74.9359 224.968 74.5229 225.114C74.2557 225.212 73.9642 225.309 73.6971 225.406C73.3084 225.552 72.9198 225.673 72.5311 225.795C72.2882 225.868 72.0453 225.965 71.8267 226.038C71.4381 226.16 71.0494 226.281 70.6851 226.403C70.4908 226.476 70.2964 226.525 70.1021 226.597C69.5677 226.768 69.0576 226.914 68.5961 227.059C67.0415 227.521 65.9242 227.74 65.2441 227.74C59.7302 227.74 20.5258 235.108 14.7205 240.919C8.9151 246.731 6.4375 277.393 6.4375 277.393C6.4375 277.393 32.9624 305.088 87.2753 318.681Z" fill="#1A2E40"/>
<path d="M222.937 225.771C222.063 225.479 221.139 225.163 220.168 224.798C220.022 224.75 219.876 224.701 219.731 224.652C218.71 224.288 217.666 223.898 216.573 223.485C216.549 223.485 216.549 223.461 216.524 223.461C215.358 223.023 214.144 222.561 212.905 222.099C210.476 232.701 207.707 283.156 205.982 319.654C262.481 306.499 289.031 277.344 289.031 277.344C289.031 277.344 286.577 246.707 280.772 240.871C274.967 235.059 235.762 227.692 230.248 227.692C229.447 227.692 227.868 227.303 225.803 226.67C225.05 226.452 224.2 226.16 223.301 225.868C223.204 225.844 223.083 225.819 222.937 225.771Z" fill="#1A2E40"/>
<path d="M68.5233 313.113C81.8829 317.733 97.4286 321.647 115.185 323.909C111.541 299.958 105.639 262.025 104.934 258.913C103.744 253.515 101.485 222.683 100.926 214.78C90.6031 219.035 75.616 225.041 68.5476 227.035C68.0861 232.409 68.2804 280.335 68.5233 313.113Z" fill="#34495E"/>
<path d="M183.488 323.763C199.496 321.647 213.584 318.17 225.85 314.061C226.093 281.04 226.312 231.728 225.802 226.719C218.102 224.385 203.333 218.427 193.472 214.367C192.937 221.516 190.63 253.442 189.415 258.937C188.735 262.025 185.529 299.812 183.488 323.763Z" fill="#34495E"/>
<path d="M242.489 272.603C242.149 272.603 241.882 272.311 241.906 271.995C242.124 264.846 247.225 251.01 247.444 250.427C247.565 250.111 247.906 249.965 248.197 250.086C248.513 250.208 248.659 250.548 248.537 250.84C248.488 250.986 243.29 265.089 243.072 272.043C243.072 272.36 242.805 272.603 242.489 272.603Z" fill="#34495E"/>
<path d="M43.3837 272.603C43.0922 272.603 42.825 272.384 42.8007 272.092C41.4405 261.709 37.3597 250.5 37.3111 250.378C37.1897 250.062 37.3597 249.722 37.6512 249.624C37.967 249.503 38.307 249.673 38.4042 249.965C38.4528 250.086 42.5821 261.417 43.9424 271.946C43.9909 272.262 43.748 272.578 43.4323 272.603C43.4323 272.603 43.408 272.603 43.3837 272.603Z" fill="#34495E"/>
</g>
</svg>
