<svg width="20" height="20" viewBox="0 0 20 20" fill="none" xmlns="http://www.w3.org/2000/svg">
<path d="M17.5 6.25H2.5C2.15833 6.25 1.875 5.96667 1.875 5.625C1.875 5.28333 2.15833 5 2.5 5H17.5C17.8417 5 18.125 5.28333 18.125 5.625C18.125 5.96667 17.8417 6.25 17.5 6.25Z" fill="white"/>
<path d="M17.5001 10.4167H9.6084C9.26673 10.4167 8.9834 10.1333 8.9834 9.79166C8.9834 9.44999 9.26673 9.16666 9.6084 9.16666H17.5001C17.8417 9.16666 18.1251 9.44999 18.1251 9.79166C18.1251 10.1333 17.8417 10.4167 17.5001 10.4167Z" fill="white"/>
<path d="M17.5 14.5833H2.5C2.15833 14.5833 1.875 14.3 1.875 13.9583C1.875 13.6167 2.15833 13.3333 2.5 13.3333H17.5C17.8417 13.3333 18.125 13.6167 18.125 13.9583C18.125 14.3 17.8417 14.5833 17.5 14.5833Z" fill="white"/>
</svg>
