<svg width="22" height="21" viewBox="0 0 22 21" fill="none" xmlns="http://www.w3.org/2000/svg">
<path d="M19.375 19.7002L19.0627 20.0906L19.0626 20.0906L19.375 19.7002ZM16.5478 17.4383L16.2355 17.8287L16.5478 17.4383ZM6 1V1.5C3.51472 1.5 1.5 3.51472 1.5 6H1H0.5C0.5 2.96243 2.96243 0.5 6 0.5V1ZM1 6H1.5V12H1H0.5V6H1ZM1 12H1.5C1.5 14.4853 3.51472 16.5 6 16.5V17V17.5C2.96243 17.5 0.5 15.0376 0.5 12H1ZM6 17V16.5H15.2984V17V17.5H6V17ZM16.5478 17.4383L16.8602 17.0479L19.6874 19.3098L19.375 19.7002L19.0626 20.0906L16.2355 17.8287L16.5478 17.4383ZM19.375 19.7002L19.6873 19.3098C20.0146 19.5715 20.5 19.3384 20.5 18.9189H21H21.5C21.5 20.1765 20.045 20.8765 19.0627 20.0906L19.375 19.7002ZM21 18.9189H20.5V6H21H21.5V18.9189H21ZM21 6H20.5C20.5 3.51472 18.4853 1.5 16 1.5V1V0.5C19.0376 0.5 21.5 2.96243 21.5 6H21ZM16 1V1.5H6V1V0.5H16V1ZM15.2984 17V16.5C15.8661 16.5 16.4169 16.6932 16.8602 17.0479L16.5478 17.4383L16.2355 17.8287C15.9695 17.6159 15.639 17.5 15.2984 17.5V17Z" fill="#01325C"/>
<circle cx="1.25" cy="1.25" r="1.25" transform="matrix(-1 0 0 1 17.2002 7.7998)" fill="#01325C"/>
<circle cx="1.25" cy="1.25" r="1.25" transform="matrix(-1 0 0 1 12.2002 7.7998)" fill="#01325C"/>
<circle cx="1.25" cy="1.25" r="1.25" transform="matrix(-1 0 0 1 7.2002 7.7998)" fill="#01325C"/>
</svg>
