<svg width="68" height="68" viewBox="0 0 68 68" fill="none" xmlns="http://www.w3.org/2000/svg">
<path d="M10.1602 0.730469C7.98204 1.20859 6.04297 2.24453 4.40938 3.77187C2.37735 5.69765 1.28829 7.61015 0.730473 10.2664C0.438286 11.6211 0.438286 45.7539 0.717192 47.1086C1.23516 49.5656 2.21797 51.3453 4.05079 53.2047C5.48516 54.6523 6.5875 55.3961 8.2875 56.0602C10.2266 56.8172 10.6117 56.8438 17.3586 56.8438H23.5344L23.9859 56.3922C24.3844 55.9937 24.4375 55.8609 24.4375 55.2633C24.4375 54.7055 24.3711 54.5195 24.0523 54.1609L23.6672 53.7227L17.5711 53.643C10.8641 53.55 10.6117 53.5234 8.89844 52.6734C7.06563 51.7703 5.60469 50.3094 4.70157 48.4766C3.77188 46.5906 3.81172 47.2016 3.7586 33.8273L3.70547 21.7812H33.9867H64.2812V25.5797V29.3781L64.7328 29.8297C65.1312 30.2281 65.2641 30.2812 65.875 30.2812C66.4859 30.2812 66.6188 30.2281 67.0172 29.8297L67.4688 29.3781V20.2805C67.4688 10.4922 67.4688 10.3859 66.7648 8.47343C66.2469 7.03906 65.357 5.60469 64.2281 4.40937C62.3023 2.37734 60.3898 1.28828 57.7336 0.730469C56.4453 0.451561 11.4086 0.464844 10.1602 0.730469ZM57.3617 4.02422C59.7656 4.675 61.957 6.38828 63.0859 8.52656C63.5109 9.31015 64.0156 10.6516 64.0156 10.9836C64.0156 11.1297 59.0352 11.1562 33.9867 11.1562H3.95782L4.0375 10.7445C4.28985 9.45625 5.29922 7.63672 6.36172 6.54765C7.84922 5.02031 9.78829 4.07734 11.8734 3.85156C12.3914 3.79844 22.6445 3.75859 34.6641 3.77187C54.8781 3.79844 56.5781 3.81172 57.3617 4.02422Z" fill="#FF8235"/>
<path d="M46.2852 32.6187C43.8945 33.0437 41.1984 34.1858 39.1797 35.6069C37.8914 36.5101 35.8461 38.5687 34.9828 39.8437C32.8711 42.9249 31.875 46.1655 31.875 49.9374C31.875 53.7093 32.8711 56.9499 34.9828 60.0312C35.8594 61.3194 38.0375 63.4976 39.3391 64.3874C40.9062 65.4632 43.1641 66.4858 44.9836 66.964C47.0555 67.4952 50.2031 67.628 52.3414 67.2694C55.9539 66.6718 59.1281 65.0382 61.7711 62.4218C63.2984 60.8944 64.2016 59.646 65.1578 57.7069C66.4328 55.1437 66.9375 52.939 66.9375 49.9374C66.9375 45.0366 65.2508 40.946 61.8242 37.5194C59.1813 34.8765 56.0469 33.2296 52.4742 32.6187C50.9203 32.353 47.7727 32.353 46.2852 32.6187ZM58.9156 44.678C59.5133 45.2757 59.5398 45.953 58.982 46.6968C58.5305 47.3077 49.6187 56.1796 49.1406 56.4983C48.6359 56.8304 47.932 56.764 47.3344 56.3257C46.7367 55.8741 42.6328 51.7569 42.3141 51.2655C42.1945 51.0929 42.1016 50.7077 42.1016 50.4288C42.1016 49.6983 42.7922 49.0077 43.5227 49.0077C43.8016 49.0077 44.1867 49.1007 44.3594 49.2202C44.5453 49.3397 45.5148 50.2562 46.5242 51.2522L48.3438 53.0585L52.5672 48.8616C54.8781 46.5507 56.9234 44.5585 57.1094 44.439C57.282 44.3194 57.6672 44.2265 57.9461 44.2265C58.3578 44.2265 58.557 44.3194 58.9156 44.678Z" fill="#FF8235"/>
<path d="M8.95156 43.4828C8.55313 43.8812 8.5 44.0141 8.5 44.625C8.5 45.2359 8.55313 45.3687 8.95156 45.7672L9.40313 46.2188H18.0625H26.7219L27.1734 45.7672C27.5719 45.3687 27.625 45.2359 27.625 44.625C27.625 44.0141 27.5719 43.8812 27.1734 43.4828L26.7219 43.0312H18.0625H9.40313L8.95156 43.4828Z" fill="#FF8235"/>
</svg>
