<svg width="16" height="16" viewBox="0 0 16 16" fill="none" xmlns="http://www.w3.org/2000/svg">
<path d="M11.7935 13.3934C12.1735 13.3934 12.5469 13.2934 12.8935 13.0934C13.5869 12.6934 13.9935 11.9868 13.9935 11.1868V4.80675C13.9935 4.01342 13.5802 3.3001 12.8935 2.9001C12.2002 2.5001 11.3802 2.5001 10.6935 2.9001L5.16687 6.08676C4.4802 6.48676 4.06687 7.20009 4.06687 7.99342C4.06687 8.78675 4.4802 9.5001 5.16687 9.9001L10.6935 13.0868C11.0402 13.2934 11.4135 13.3934 11.7935 13.3934ZM11.7935 3.60676C12.0002 3.60676 12.2069 3.66009 12.3935 3.76676C12.7669 3.98676 12.9935 4.37342 12.9935 4.80675V11.1868C12.9935 11.6201 12.7669 12.0068 12.3935 12.2268C12.0202 12.4401 11.5669 12.4468 11.1935 12.2268L5.66687 9.04009C5.29354 8.82009 5.06687 8.43343 5.06687 8.00009C5.06687 7.56676 5.29354 7.1801 5.66687 6.9601L11.1935 3.77343C11.3802 3.66676 11.5869 3.60676 11.7935 3.60676Z" fill="#11998E"/>
<path d="M2.50647 12.6204C2.7798 12.6204 3.00647 12.3937 3.00647 12.1204V3.88037C3.00647 3.60704 2.7798 3.38037 2.50647 3.38037C2.23314 3.38037 2.00647 3.60704 2.00647 3.88037V12.1204C2.00647 12.3937 2.22647 12.6204 2.50647 12.6204Z" fill="#11998E"/>
</svg>
