<svg width="29" height="25" viewBox="0 0 29 25" fill="none" xmlns="http://www.w3.org/2000/svg">
<g clip-path="url(#clip0_1_61025)">
<path d="M28.3159 19.8545C28.0878 20.1659 27.9514 20.2073 27.6087 20.0614C25.6327 19.2249 23.5914 18.6125 21.4688 18.3011C19.6945 18.0414 17.9203 17.992 16.1861 18.5562C15.7208 18.7078 15.2749 18.9319 14.8348 19.1514C14.6033 19.2674 14.4107 19.2892 14.1815 19.1525C13.1568 18.5435 12.0301 18.2643 10.853 18.1724C8.13894 17.9598 5.5555 18.5769 3.01332 19.4398C2.47004 19.6236 1.94052 19.8465 1.40755 20.0602C0.944504 20.2452 0.687765 20.0832 0.687765 19.5926C0.688911 14.3899 0.690057 9.18836 0.684326 3.98567C0.684326 3.69842 0.798942 3.53756 1.05224 3.42841C1.73765 3.13656 2.41617 2.82863 3.10157 2.53793C3.26433 2.46899 3.3331 2.38397 3.32622 2.19783C3.31017 1.79223 3.32622 1.38663 3.32049 0.981033C3.31705 0.715614 3.43854 0.559349 3.69184 0.492707C4.97554 0.153751 6.27758 -0.049622 7.60712 0.0101261C10.288 0.129622 12.5769 1.11432 14.3798 3.1469C14.4142 3.18597 14.4325 3.24112 14.4462 3.2664C14.9368 2.81599 15.362 2.37592 15.8377 1.9979C17.291 0.840855 18.961 0.223841 20.8051 0.0514902C22.3192 -0.0898371 23.7978 0.0985994 25.2591 0.483515C25.6041 0.574286 25.6797 0.67425 25.682 1.03504C25.6843 1.43144 25.6912 1.829 25.6786 2.2254C25.674 2.38856 25.7348 2.46325 25.878 2.52529C26.5623 2.81829 27.2454 3.11588 27.9216 3.42726C28.0683 3.49505 28.1852 3.63063 28.3159 3.73519V19.8545ZM24.8293 1.26369C24.7697 1.24301 24.7204 1.22003 24.6688 1.20739C23.0608 0.825918 21.4378 0.698379 19.8091 1.03619C17.8973 1.43144 16.2916 2.35754 15.0835 3.91903C14.9941 4.03508 14.9357 4.20973 14.9357 4.3568C14.9276 8.69199 14.9288 13.0272 14.9299 17.3612C14.9299 17.437 14.9379 17.514 14.9437 17.6232C17.785 14.8771 21.1501 14.4106 24.8293 15.2114V1.26369ZM4.18125 1.22807V15.2114C7.8673 14.4014 11.2267 14.8897 14.0634 17.6243C14.0692 17.5336 14.076 17.483 14.076 17.4313C14.076 13.0513 14.0772 8.67246 14.0715 4.29246C14.0715 4.17871 14.0199 4.04542 13.95 3.9535C12.9711 2.66892 11.692 1.80832 10.1699 1.29816C8.76245 0.827067 7.31714 0.763872 5.85808 0.932775C5.29188 0.998268 4.73256 1.12925 4.18125 1.22807ZM12.7981 17.5979C12.7087 17.5255 12.6227 17.4497 12.5299 17.3819C10.4335 15.8216 8.06902 15.4562 5.54747 15.8227C5.00763 15.9008 4.47582 16.0387 3.94171 16.1571C3.53024 16.2478 3.32851 16.0916 3.32049 15.6618C3.31934 15.5895 3.32049 15.5171 3.32049 15.4458C3.32049 11.5427 3.32049 7.6395 3.32049 3.73634C3.32049 3.63178 3.32049 3.52722 3.32049 3.3836C3.20014 3.42841 3.11762 3.45369 3.03968 3.48816C2.62821 3.66855 2.22247 3.86043 1.80641 4.02704C1.60469 4.10747 1.52904 4.21203 1.52904 4.43953C1.53707 9.20789 1.53478 13.9763 1.53478 18.7446C1.53478 18.8411 1.53478 18.9365 1.53478 19.064C2.05169 18.8779 2.52849 18.6998 3.00988 18.5355C4.75663 17.938 6.54119 17.5083 8.38078 17.3313C9.85588 17.19 11.323 17.2463 12.7981 17.5991V17.5979ZM25.682 3.36406C25.682 3.52952 25.682 3.63523 25.682 3.74209C25.682 7.69925 25.682 11.6564 25.682 15.6147C25.682 16.1168 25.4918 16.2501 25.0058 16.1467C24.3662 16.01 23.7244 15.871 23.0768 15.7848C21.3037 15.5504 19.5833 15.748 17.9455 16.5006C17.3174 16.7902 16.7294 17.1475 16.185 17.6232C16.2457 17.6289 16.2732 17.6381 16.2973 17.6324C17.8927 17.1912 19.5134 17.1912 21.1375 17.3876C23.0161 17.6151 24.835 18.0954 26.6093 18.7515C26.8844 18.8526 27.1583 18.956 27.4448 19.0617C27.4563 18.9985 27.4677 18.9641 27.4677 18.9296C27.4677 14.0613 27.47 9.1941 27.4655 4.32578C27.4655 4.25224 27.4185 4.13849 27.3612 4.11207C26.8259 3.86388 26.2838 3.62948 25.6843 3.36521L25.682 3.36406Z" fill="white"/>
<path d="M15.8766 20.9429C18.4669 20.9429 21.0561 20.9429 23.6464 20.9429C24.4877 20.9429 24.9725 21.422 24.9771 22.2585C24.9794 22.7273 24.9794 23.1961 24.9771 23.6649C24.9736 24.5094 24.498 24.9874 23.6567 24.9874C19.1328 24.9885 14.6101 24.9897 10.0862 24.9908C9.53718 24.9908 8.98817 24.9724 8.44031 24.9965C7.98757 25.0161 7.58069 24.9196 7.1738 24.7185C6.25688 24.2646 5.32505 23.8418 4.39781 23.4075C4.20181 23.3156 4.03104 23.2064 4.03447 22.9559C4.03791 22.7204 4.19608 22.6112 4.38405 22.5239C5.44196 22.0321 6.49757 21.5346 7.56006 21.0497C7.70906 20.9819 7.88671 20.9475 8.05061 20.9463C10.6581 20.9406 13.2668 20.9417 15.8743 20.9417L15.8766 20.9429ZM21.785 21.8104H8.30735V22.5204H21.785V21.8104ZM21.785 23.4075H8.31079V24.1164H21.7862V23.4075H21.785ZM22.663 21.7977V24.1313C23.0469 24.1313 23.4126 24.1382 23.7793 24.129C23.9891 24.1233 24.1129 24.0027 24.114 23.7866C24.1175 23.2386 24.1186 22.6893 24.114 22.1413C24.1129 21.9264 23.9902 21.8046 23.7793 21.8C23.4137 21.792 23.0469 21.7977 22.663 21.7977ZM7.42366 22.0471C6.76348 22.355 6.12736 22.6503 5.45113 22.9651C6.12507 23.2811 6.76004 23.5787 7.42366 23.8889V22.0459V22.0471Z" fill="white"/>
</g>
<defs>
<clipPath id="clip0_1_61025">
<rect width="27.6316" height="25" fill="white" transform="translate(0.684326)"/>
</clipPath>
</defs>
</svg>
