<svg width="20" height="20" viewBox="0 0 20 20" fill="none" xmlns="http://www.w3.org/2000/svg">
<path d="M12.2588 3.87695L12.4365 4.11719L12.7324 4.07324L16.4775 3.52148L15.9268 7.26758L15.8828 7.56348L16.123 7.74121L19.1621 10L16.123 12.2588L15.8828 12.4365L15.9268 12.7324L16.4775 16.4775L12.7324 15.9268L12.4365 15.8828L12.2588 16.123L10 19.1621L7.74121 16.123L7.56348 15.8828L7.26758 15.9268L3.52148 16.4775L4.07324 12.7324L4.11719 12.4365L3.87695 12.2588L0.836914 10L3.87695 7.74121L4.11719 7.56348L4.07324 7.26758L3.52148 3.52148L7.26758 4.07324L7.56348 4.11719L7.74121 3.87695L10 0.836914L12.2588 3.87695Z" stroke="#11998E"/>
</svg>
