<svg width="27" height="27" viewBox="0 0 27 27" fill="none" xmlns="http://www.w3.org/2000/svg">
<g clip-path="url(#clip0_1_61045)">
<path d="M21.9113 17.9519C22.2587 17.7351 22.3826 17.7446 22.6509 18.0091C23.9129 19.2574 25.178 20.5034 26.4327 21.7589C27.0777 22.404 27.1796 23.3594 26.7032 24.0756C26.1322 24.9338 25.2007 25.305 24.3717 24.9679C24.1094 24.8613 23.8602 24.683 23.6535 24.488C23.0371 23.9074 22.4456 23.3014 21.8432 22.7063C21.7809 22.6447 21.7142 22.5889 21.6108 22.4954C21.6035 22.6367 21.5947 22.7309 21.5947 22.8244C21.594 24.0118 21.5947 25.1984 21.594 26.3857C21.594 26.8895 21.4855 26.999 20.9871 26.999C14.1922 26.999 7.39662 26.999 0.601726 26.999C0.102609 26.999 0 26.8917 0 26.3872C0 17.7967 0 9.2063 0 0.615848C0 0.0990148 0.0989441 -0.000292566 0.62518 -0.000292566C5.39868 -0.000292566 10.1729 -0.00246718 14.9471 0.00768102C15.1326 0.00768102 15.3459 0.0787184 15.499 0.183825C17.4808 1.54658 19.4561 2.91804 21.4225 4.30182C21.5368 4.38228 21.6145 4.58814 21.6174 4.73674C21.6336 5.5428 21.6204 6.34958 21.6174 7.15636C21.6123 9.08669 21.6101 11.0163 21.6028 12.9466C21.6006 13.578 21.6189 14.2115 21.5639 14.8385C21.5053 15.5018 21.251 16.1179 20.9219 16.6986C20.8559 16.8153 20.8347 16.8943 20.949 17.0016C21.2737 17.3067 21.5845 17.6264 21.9113 17.9511V17.9519ZM19.813 19.9706C19.5022 19.664 19.1959 19.3777 18.9093 19.0732C18.7774 18.9326 18.6821 18.9319 18.515 19.021C17.3702 19.6292 16.1447 19.8699 14.8599 19.6778C11.4724 19.1711 9.26996 16.1071 9.87242 12.7698C10.6618 8.39879 16.0209 6.46266 19.4502 9.32082C19.9119 9.70573 20.3041 10.1725 20.7145 10.5879V5.06946C20.5928 5.06946 20.4924 5.06946 20.392 5.06946C18.6909 5.06946 16.9905 5.06946 15.2894 5.06946C14.8042 5.06946 14.6892 4.95855 14.6884 4.48231C14.687 3.37688 14.6789 2.27145 14.6943 1.16603C14.698 0.897098 14.6122 0.840558 14.3542 0.841283C9.96476 0.849256 5.57605 0.847082 1.1866 0.847082C1.08838 0.847082 0.990906 0.847082 0.879503 0.847082V26.1342H20.7357V25.8225C20.7357 24.7896 20.7357 23.7566 20.7357 22.7237C20.7357 22.3431 20.8369 21.9191 20.6998 21.5943C20.5584 21.2609 20.1846 21.0231 19.9097 20.7455C19.61 20.4432 19.5968 20.3606 19.8137 19.9699L19.813 19.9706ZM15.7431 8.86198C12.9653 8.85618 10.65 11.1163 10.6412 13.8433C10.6317 16.6529 12.8994 18.929 15.7152 18.9362C18.5231 18.9435 20.7958 16.7044 20.8032 13.9245C20.8105 11.1192 18.5604 8.86851 15.7431 8.86198ZM22.2756 18.8485C21.7706 19.3494 21.2737 19.8423 20.7702 20.341C20.7804 20.3548 20.798 20.386 20.823 20.4106C21.9927 21.5711 23.1617 22.7317 24.3366 23.8871C24.4304 23.9792 24.5572 24.0524 24.6818 24.098C25.178 24.2785 25.6705 24.0915 25.9827 23.6196C26.2392 23.2318 26.1696 22.6932 25.8024 22.3279C24.6796 21.2109 23.5531 20.0975 22.4273 18.9834C22.3767 18.9333 22.3203 18.8884 22.2749 18.8485H22.2756ZM19.7925 4.19671C18.3508 3.19132 16.9715 2.22869 15.5584 1.24359V4.19671H19.7925ZM20.3744 17.622C20.0695 17.904 19.7851 18.1679 19.5191 18.4143C19.8269 18.721 20.1406 19.0326 20.4177 19.3088C20.6742 19.066 20.9541 18.8021 21.2451 18.5267C20.9585 18.2295 20.6646 17.9243 20.3744 17.622Z" fill="white"/>
<path d="M9.03466 20.2449C11.0172 20.2449 12.9998 20.2449 14.9823 20.2449C15.0732 20.2449 15.1685 20.2355 15.2549 20.2558C15.4536 20.3022 15.5701 20.4283 15.5796 20.6378C15.5892 20.8393 15.521 21.001 15.3158 21.0604C15.1963 21.0952 15.0644 21.1017 14.9383 21.1017C11.0003 21.1039 7.06238 21.1032 3.1244 21.1032C2.65533 21.1032 2.47284 20.9836 2.46917 20.6755C2.46551 20.3609 2.63994 20.2442 3.11341 20.2442C5.08716 20.2442 7.06018 20.2442 9.03393 20.2442L9.03466 20.2449Z" fill="white"/>
<path d="M9.03833 23.4518C11.0135 23.4518 12.988 23.4518 14.9632 23.4518C15.0549 23.4518 15.1494 23.4402 15.2366 23.4605C15.4448 23.509 15.5701 23.6417 15.5804 23.8606C15.5906 24.0788 15.4924 24.2288 15.2747 24.2825C15.1787 24.3057 15.0761 24.3086 14.9764 24.3093C11.0084 24.3107 7.04039 24.3107 3.07237 24.3093C2.98149 24.3093 2.88768 24.3093 2.80046 24.2897C2.55713 24.2339 2.45086 24.0686 2.47358 23.8294C2.49556 23.5989 2.63409 23.467 2.86789 23.4561C3.09583 23.4452 3.32523 23.4525 3.55317 23.4525C5.3818 23.4525 7.21043 23.4525 9.03906 23.4525L9.03833 23.4518Z" fill="white"/>
<path d="M7.29329 3.76352C5.78494 3.76352 4.27586 3.76787 2.76751 3.757C2.6158 3.75627 2.42744 3.70988 2.32117 3.61347C2.08956 3.40326 2.21929 3.00603 2.52638 2.92412C2.60407 2.9031 2.68909 2.90382 2.77045 2.90382C5.77834 2.9031 8.78698 2.90237 11.7949 2.90382C12.1437 2.90382 12.313 3.01908 12.3424 3.26843C12.379 3.57795 12.1994 3.76207 11.8462 3.76279C10.7124 3.76569 9.57853 3.76352 8.4447 3.76424C8.06065 3.76424 7.6766 3.76424 7.29255 3.76424L7.29329 3.76352Z" fill="white"/>
<path d="M7.38713 8.22511C5.90736 8.22511 4.4276 8.22584 2.94784 8.22439C2.62462 8.22439 2.44872 8.05332 2.47144 7.76917C2.48683 7.57853 2.58065 7.44515 2.77634 7.40166C2.8467 7.38571 2.91999 7.37556 2.99255 7.37556C5.93375 7.37411 8.87495 7.37411 11.8162 7.37411C12.05 7.37411 12.261 7.42051 12.3336 7.67929C12.4208 7.98736 12.2244 8.22366 11.8807 8.22439C10.9125 8.22729 9.94428 8.22511 8.9761 8.22511C8.4462 8.22511 7.9163 8.22511 7.38713 8.22511Z" fill="white"/>
<path d="M5.32172 13.8306C6.08029 13.8306 6.83886 13.8291 7.59743 13.8306C7.94484 13.8313 8.11707 13.9719 8.11781 14.2474C8.11781 14.5199 7.93531 14.6874 7.60769 14.6881C6.05391 14.6917 4.50085 14.6917 2.94706 14.6881C2.63337 14.6874 2.46627 14.5228 2.47067 14.2503C2.47506 13.9813 2.64363 13.8327 2.96392 13.8313C3.74961 13.8284 4.5353 13.8306 5.32172 13.8306Z" fill="white"/>
<path d="M5.31517 17.0374C6.07374 17.0374 6.83231 17.0366 7.59088 17.0374C7.92583 17.0374 8.10319 17.1765 8.10319 17.4303C8.10319 17.7267 7.92436 17.8949 7.58649 17.8956C6.05102 17.8985 4.51629 17.8978 2.98082 17.8956C2.64295 17.8956 2.46925 17.7419 2.47071 17.4636C2.47145 17.1852 2.64368 17.0395 2.98522 17.0381C3.76212 17.0359 4.53901 17.0381 5.31517 17.0381V17.0374Z" fill="white"/>
<path d="M5.27117 11.4327C4.50454 11.4327 3.73717 11.4341 2.97054 11.4327C2.64512 11.4319 2.47802 11.2928 2.47069 11.0253C2.46336 10.744 2.63193 10.5809 2.96834 10.5795C4.52066 10.5751 6.07225 10.5751 7.62457 10.5795C7.91774 10.5802 8.1061 10.7549 8.10244 10.9919C8.09804 11.2797 7.92874 11.4312 7.59966 11.4319C6.82349 11.4341 6.04733 11.4319 5.2719 11.4319L5.27117 11.4327Z" fill="white"/>
<path d="M13.9262 12.7207C14.1344 12.3601 14.4382 12.0642 14.8041 11.8655C15.17 11.6668 15.5837 11.5732 15.9995 11.595C16.4153 11.6168 16.8169 11.7531 17.1601 11.989C17.5032 12.2248 17.7744 12.5509 17.9438 12.9313M13.407 12.0196L13.6128 12.9112C13.6479 13.063 13.7994 13.1577 13.9513 13.1227L14.8429 12.9168M17.8365 14.9783C17.6283 15.3388 17.3245 15.6348 16.9586 15.8335C16.5927 16.0322 16.179 16.1258 15.7632 16.104C15.3474 16.0822 14.9458 15.9458 14.6027 15.71C14.2595 15.4742 13.9883 15.1481 13.819 14.7677M18.3557 15.6794L18.1499 14.7878C18.1148 14.636 17.9633 14.5413 17.8115 14.5763L16.9198 14.7822" stroke="white" stroke-width="0.5" stroke-linecap="round"/>
</g>
<defs>
<clipPath id="clip0_1_61045">
<rect width="27" height="27" fill="white"/>
</clipPath>
</defs>
</svg>
