<svg width="29" height="28" viewBox="0 0 29 28" fill="none" xmlns="http://www.w3.org/2000/svg">
<rect x="1" y="0.5" width="27" height="27" rx="13.5" stroke="#FF8235"/>
<path d="M11.7465 20.187C11.2198 20.187 10.7198 20.0603 10.2798 19.807C9.23984 19.207 8.6665 17.987 8.6665 16.3803V11.627C8.6665 10.0137 9.23984 8.80032 10.2798 8.20032C11.3198 7.60032 12.6598 7.71365 14.0598 8.52032L18.1732 10.8937C19.5665 11.7003 20.3398 12.807 20.3398 14.007C20.3398 15.207 19.5732 16.3137 18.1732 17.1203L14.0598 19.4937C13.2532 19.9537 12.4665 20.187 11.7465 20.187ZM11.7465 8.81365C11.3865 8.81365 11.0665 8.89365 10.7798 9.06032C10.0598 9.47365 9.6665 10.387 9.6665 11.627V16.3737C9.6665 17.6137 10.0598 18.5203 10.7798 18.9403C11.4998 19.3603 12.4865 19.2403 13.5598 18.6203L17.6732 16.247C18.7465 15.627 19.3398 14.8337 19.3398 14.0003C19.3398 13.167 18.7465 12.3737 17.6732 11.7537L13.5598 9.38032C12.9065 9.00699 12.2932 8.81365 11.7465 8.81365Z" fill="#FF8235"/>
</svg>
