<svg width="16" height="16" viewBox="0 0 16 16" fill="none" xmlns="http://www.w3.org/2000/svg">
<path d="M5.24675 14.187C4.72008 14.187 4.22008 14.0603 3.78008 13.807C2.74008 13.207 2.16675 11.987 2.16675 10.3803V5.62698C2.16675 4.01365 2.74008 2.80032 3.78008 2.20032C4.82008 1.60032 6.16008 1.71365 7.56008 2.52032L11.6734 4.89365C13.0667 5.70032 13.8401 6.80699 13.8401 8.00699C13.8401 9.20699 13.0734 10.3137 11.6734 11.1203L7.56008 13.4937C6.75342 13.9537 5.96675 14.187 5.24675 14.187ZM5.24675 2.81365C4.88675 2.81365 4.56675 2.89365 4.28008 3.06032C3.56008 3.47365 3.16675 4.38698 3.16675 5.62698V10.3737C3.16675 11.6137 3.56008 12.5203 4.28008 12.9403C5.00008 13.3603 5.98675 13.2403 7.06008 12.6203L11.1734 10.247C12.2467 9.62699 12.8401 8.83365 12.8401 8.00032C12.8401 7.16699 12.2467 6.37365 11.1734 5.75365L7.06008 3.38032C6.40675 3.00699 5.79341 2.81365 5.24675 2.81365Z" fill="white"/>
</svg>
