<svg width="26" height="26" viewBox="0 0 26 26" fill="none" xmlns="http://www.w3.org/2000/svg">
<rect x="0.5" y="0.5" width="25" height="25" rx="12.5" stroke="#FF8235"/>
<path d="M10.247 19.187C9.72033 19.187 9.22033 19.0603 8.78033 18.807C7.74033 18.207 7.16699 16.987 7.16699 15.3803V10.627C7.16699 9.01365 7.74033 7.80032 8.78033 7.20032C9.82033 6.60032 11.1603 6.71365 12.5603 7.52032L16.6737 9.89365C18.067 10.7003 18.8403 11.807 18.8403 13.007C18.8403 14.207 18.0737 15.3137 16.6737 16.1203L12.5603 18.4937C11.7537 18.9537 10.967 19.187 10.247 19.187ZM10.247 7.81365C9.88699 7.81365 9.56699 7.89365 9.28033 8.06032C8.56033 8.47365 8.16699 9.38698 8.16699 10.627V15.3737C8.16699 16.6137 8.56033 17.5203 9.28033 17.9403C10.0003 18.3603 10.987 18.2403 12.0603 17.6203L16.1737 15.247C17.247 14.627 17.8403 13.8337 17.8403 13.0003C17.8403 12.167 17.247 11.3737 16.1737 10.7537L12.0603 8.38032C11.407 8.00699 10.7937 7.81365 10.247 7.81365Z" fill="#FF8235"/>
</svg>
