<svg width="15" height="19" viewBox="0 0 15 19" fill="none" xmlns="http://www.w3.org/2000/svg">
<path d="M10.5921 4.32895H9.8421C9.8421 5.89133 8.57554 7.15789 7.01316 7.15789V7.90789V8.65789C9.40397 8.65789 11.3421 6.71976 11.3421 4.32895H10.5921ZM7.01316 7.90789V7.15789C5.45077 7.15789 4.18421 5.89133 4.18421 4.32895H3.43421H2.68421C2.68421 6.71976 4.62235 8.65789 7.01316 8.65789V7.90789ZM3.43421 4.32895H4.18421C4.18421 2.76656 5.45077 1.5 7.01316 1.5V0.75V0C4.62235 0 2.68421 1.93814 2.68421 4.32895H3.43421ZM7.01316 0.75V1.5C8.57554 1.5 9.8421 2.76656 9.8421 4.32895H10.5921H11.3421C11.3421 1.93814 9.40397 0 7.01316 0V0.75ZM4.32895 10.5921V11.3421H9.69737V10.5921V9.8421H4.32895V10.5921ZM9.69737 17.75V17H4.32895V17.75V18.5H9.69737V17.75ZM4.32895 17.75V17C2.76656 17 1.5 15.7334 1.5 14.1711H0.75H0C0 16.5619 1.93814 18.5 4.32895 18.5V17.75ZM13.2763 14.1711H12.5263C12.5263 15.7334 11.2598 17 9.69737 17V17.75V18.5C12.0882 18.5 14.0263 16.5619 14.0263 14.1711H13.2763ZM9.69737 10.5921V11.3421C11.2598 11.3421 12.5263 12.6087 12.5263 14.1711H13.2763H14.0263C14.0263 11.7802 12.0882 9.8421 9.69737 9.8421V10.5921ZM4.32895 10.5921V9.8421C1.93814 9.8421 0 11.7802 0 14.1711H0.75H1.5C1.5 12.6087 2.76656 11.3421 4.32895 11.3421V10.5921Z" fill="#98AAB9"/>
</svg>
