<svg width="29" height="28" viewBox="0 0 29 28" fill="none" xmlns="http://www.w3.org/2000/svg">
<rect x="1" y="0.5" width="27" height="27" rx="13.5" stroke="#FF8235"/>
<path d="M8.56997 17.7465C8.42477 17.7465 8.27957 17.6938 8.16493 17.5808C7.11793 16.5415 6.53711 15.1707 6.53711 13.7171C6.53711 10.6969 9.02087 8.24159 12.0778 8.24159L16.7167 8.25667L15.8837 7.47335C15.6544 7.25493 15.6468 6.90094 15.8684 6.67499C16.09 6.44904 16.4492 6.44154 16.6785 6.65996L18.5432 8.42234C18.7113 8.58051 18.7649 8.82906 18.6808 9.03994C18.5967 9.25083 18.3827 9.39395 18.1458 9.39395L12.0702 9.37887C9.64753 9.37887 7.67581 11.3296 7.67581 13.7246C7.67581 14.877 8.13435 15.969 8.96737 16.79C9.189 17.0084 9.189 17.3699 8.96737 17.5883C8.86037 17.6938 8.71518 17.7465 8.56997 17.7465Z" fill="#FF8235"/>
<path d="M12.7235 21.4951C12.5784 21.4951 12.4409 21.4423 12.3264 21.3369L10.4628 19.5753C10.2948 19.4172 10.2413 19.1687 10.3253 18.9579C10.4093 18.7471 10.6232 18.6041 10.86 18.6041L16.9318 18.6191C19.3529 18.6191 21.3234 16.6692 21.3234 14.2751C21.3234 13.1233 20.8651 12.0317 20.0326 11.211C19.8112 10.9927 19.8112 10.6313 20.0326 10.413C20.2541 10.1947 20.6207 10.1947 20.8422 10.413C21.8886 11.452 22.469 12.8221 22.469 14.2751C22.469 17.2941 19.9868 19.7484 16.9318 19.7484L12.2958 19.7334L13.1283 20.5164C13.3574 20.7347 13.3651 21.0885 13.1436 21.3144C13.0214 21.4348 12.8763 21.4951 12.7235 21.4951Z" fill="#FF8235"/>
</svg>
