<svg width="24" height="24" viewBox="0 0 24 24" fill="none" xmlns="http://www.w3.org/2000/svg">
<circle cx="3" cy="3" r="3" transform="matrix(-1 0 0 1 15 9)" stroke="#01325C"/>
<path d="M12.0006 2L12.0006 1.5H12.0006V2ZM16.5006 4.9375L16.2506 5.37051L16.2506 5.37054L16.5006 4.9375ZM16.5006 19.0625L16.2506 18.6295L16.2506 18.6295L16.5006 19.0625ZM12.0006 22V22.5H12.0006L12.0006 22ZM7.50059 19.0625L7.75067 18.6295L7.75059 18.6295L7.50059 19.0625ZM7.50059 4.9375L7.75059 5.37051L7.75064 5.37049L7.50059 4.9375ZM8.91992 3.01535L8.43268 2.90311L8.91992 3.01535ZM2.90782 9.68646L3.22585 9.30064L2.90782 9.68646ZM4.40909 18.5048L4.78859 18.1793L4.40909 18.5048ZM9.53531 21.6935L9.41239 22.1782L9.53531 21.6935ZM8.91981 20.9838L9.40703 20.8715L8.91981 20.9838ZM15.0796 20.9838L14.5924 20.8712L15.0796 20.9838ZM14.4639 21.6935L14.3409 21.2089L14.4639 21.6935ZM19.59 18.505L19.2106 18.1794L19.59 18.505ZM21.442 8.70679L21.9142 8.54218L21.442 8.70679ZM21.0925 9.68652L21.4106 10.0723L21.0925 9.68652ZM2.90769 14.3127L2.58972 13.9268L2.90769 14.3127ZM19.5911 5.49417L19.2116 5.81972L19.5911 5.49417ZM4.40907 5.49421L4.02957 5.16866L4.40907 5.49421ZM21.4421 15.2921L21.9142 15.4567L21.4421 15.2921ZM15.0795 3.01539L14.5923 3.12789L15.0795 3.01539ZM12.0006 2L12.0006 2.5C12.8088 2.50003 13.5928 2.60079 14.3409 2.79026L14.4637 2.30557L14.5865 1.82087C13.7587 1.61122 12.8923 1.50004 12.0006 1.5L12.0006 2ZM15.0795 3.01539L14.5923 3.12789C14.8026 4.0387 15.3756 4.86534 16.2506 5.37051L16.5006 4.9375L16.7506 4.50449C16.1262 4.14401 15.7173 3.55548 15.5667 2.9029L15.0795 3.01539ZM16.5006 4.9375L16.2506 5.37054C17.0537 5.83411 17.9638 5.94091 18.7986 5.74397L18.6838 5.25733L18.569 4.77069C17.9711 4.91175 17.3233 4.83509 16.7506 4.50446L16.5006 4.9375ZM19.5911 5.49417L19.2116 5.81972C19.9752 6.70978 20.5761 7.74195 20.9699 8.8714L21.442 8.70679L21.9142 8.54218C21.4785 7.29277 20.8141 6.1518 19.9706 5.16861L19.5911 5.49417ZM21.0925 9.68652L20.7743 9.30077C19.9975 9.94144 19.5006 10.9124 19.5006 12H20.0006H20.5006C20.5006 11.2238 20.854 10.5313 21.4106 10.0723L21.0925 9.68652ZM20.0006 12H19.5006C19.5006 13.0877 19.9978 14.058 20.7745 14.6984L21.0926 14.3126L21.4107 13.9268C20.854 13.4679 20.5006 12.7759 20.5006 12H20.0006ZM21.4421 15.2921L20.97 15.1275C20.5761 16.2571 19.9746 17.2891 19.2106 18.1794L19.59 18.505L19.9695 18.8307C20.8132 17.8474 21.4784 16.7066 21.9142 15.4567L21.4421 15.2921ZM18.683 18.742L18.7976 18.2553C17.9629 18.0588 17.0533 18.1661 16.2506 18.6295L16.5006 19.0625L16.7506 19.4955C17.3233 19.1649 17.9707 19.088 18.5684 19.2287L18.683 18.742ZM16.5006 19.0625L16.2506 18.6295C15.3759 19.1345 14.8029 19.9606 14.5924 20.8712L15.0796 20.9838L15.5667 21.0964C15.7175 20.4441 16.1263 19.8559 16.7506 19.4955L16.5006 19.0625ZM14.4639 21.6935L14.3409 21.2089C13.5926 21.3987 12.8087 21.5 12.0006 21.5L12.0006 22L12.0006 22.5C12.8927 22.5 13.7591 22.3881 14.5868 22.1782L14.4639 21.6935ZM12.0006 22V21.5C11.1918 21.5 10.407 21.3988 9.65822 21.2089L9.53531 21.6935L9.41239 22.1782C10.2407 22.3883 11.1081 22.5 12.0006 22.5V22ZM8.91981 20.9838L9.40703 20.8715C9.19711 19.9612 8.62546 19.1348 7.75067 18.6295L7.50059 19.0625L7.25052 19.4955C7.87427 19.8557 8.28214 20.4437 8.4326 21.0962L8.91981 20.9838ZM7.50059 19.0625L7.75059 18.6295C6.9476 18.1659 6.03704 18.0584 5.20184 18.2551L5.31647 18.7418L5.4311 19.2285C6.02923 19.0876 6.67758 19.1647 7.25059 19.4955L7.50059 19.0625ZM4.40909 18.5048L4.78859 18.1793C4.02499 17.2891 3.42396 16.257 3.03023 15.1275L2.5581 15.2921L2.08596 15.4567C2.52154 16.7062 3.18616 17.8471 4.02959 18.8304L4.40909 18.5048ZM2.90769 14.3127L3.22566 14.6985C4.00261 14.0583 4.50059 13.088 4.50059 12H4.00059H3.50059C3.50059 12.7758 3.14679 13.4677 2.58972 13.9268L2.90769 14.3127ZM4.00059 12H4.50059C4.50059 10.9121 4.0029 9.94117 3.22585 9.30064L2.90782 9.68646L2.58978 10.0723C3.14681 10.5314 3.50059 11.224 3.50059 12H4.00059ZM2.55819 8.70676L3.03032 8.87138C3.4241 7.74196 4.02504 6.7098 4.78856 5.81976L4.40907 5.49421L4.02957 5.16866C3.18616 6.15183 2.52168 7.29278 2.08607 8.54215L2.55819 8.70676ZM5.31644 5.25738L5.20161 5.74401C6.03668 5.94106 6.9473 5.8343 7.75059 5.37051L7.50059 4.9375L7.25059 4.50449C6.67773 4.83523 6.02953 4.91191 5.43126 4.77074L5.31644 5.25738ZM7.50059 4.9375L7.75064 5.37049C8.6258 4.86509 9.19741 4.03812 9.40716 3.12759L8.91992 3.01535L8.43268 2.90311C8.2823 3.55589 7.87442 4.14423 7.25055 4.50451L7.50059 4.9375ZM9.53547 2.30557L9.65823 2.79026C10.4068 2.60067 11.1917 2.5 12.0006 2.5V2V1.5C11.1085 1.5 10.2411 1.61106 9.41271 1.82087L9.53547 2.30557ZM8.91992 3.01535L9.40716 3.12759C9.45706 2.91097 9.57386 2.81163 9.65823 2.79026L9.53547 2.30557L9.41271 1.82087C8.84314 1.96513 8.53421 2.46235 8.43268 2.90311L8.91992 3.01535ZM2.90782 9.68646L3.22585 9.30064C3.02762 9.13724 2.99894 8.96138 3.03032 8.87138L2.55819 8.70676L2.08607 8.54215C1.86747 9.1691 2.20213 9.75273 2.58978 10.0723L2.90782 9.68646ZM5.31647 18.7418L5.20184 18.2551C4.98617 18.3059 4.84543 18.2455 4.78859 18.1793L4.40909 18.5048L4.02959 18.8304C4.41098 19.275 4.99163 19.332 5.4311 19.2285L5.31647 18.7418ZM9.53531 21.6935L9.65822 21.2089C9.57376 21.1874 9.45697 21.088 9.40703 20.8715L8.91981 20.9838L8.4326 21.0962C8.53422 21.5368 8.84309 22.0338 9.41239 22.1782L9.53531 21.6935ZM15.0796 20.9838L14.5924 20.8712C14.5423 21.0879 14.4254 21.1874 14.3409 21.2089L14.4639 21.6935L14.5868 22.1782C15.1561 22.0338 15.4649 21.5368 15.5667 21.0964L15.0796 20.9838ZM19.59 18.505L19.2106 18.1794C19.1537 18.2457 19.013 18.306 18.7976 18.2553L18.683 18.742L18.5684 19.2287C19.0078 19.3321 19.5882 19.275 19.9695 18.8307L19.59 18.505ZM21.442 8.70679L20.9699 8.8714C21.0013 8.9614 20.9726 9.13727 20.7743 9.30077L21.0925 9.68652L21.4106 10.0723C21.7981 9.75269 22.1327 9.16911 21.9142 8.54218L21.442 8.70679ZM2.5581 15.2921L3.03023 15.1275C2.99887 15.0376 3.02753 14.8618 3.22566 14.6985L2.90769 14.3127L2.58972 13.9268C2.20199 14.2463 1.86744 14.8298 2.08596 15.4567L2.5581 15.2921ZM18.6838 5.25733L18.7986 5.74397C19.0141 5.69313 19.1548 5.75349 19.2116 5.81972L19.5911 5.49417L19.9706 5.16861C19.5892 4.72403 19.0086 4.667 18.569 4.77069L18.6838 5.25733ZM4.40907 5.49421L4.78856 5.81976C4.84539 5.75352 4.98609 5.69316 5.20161 5.74401L5.31644 5.25738L5.43126 4.77074C4.99169 4.66702 4.41099 4.72404 4.02957 5.16866L4.40907 5.49421ZM21.0926 14.3126L20.7745 14.6984C20.9727 14.8618 21.0013 15.0375 20.97 15.1275L21.4421 15.2921L21.9142 15.4567C22.1328 14.8298 21.7982 14.2463 21.4107 13.9268L21.0926 14.3126ZM14.4637 2.30557L14.3409 2.79026C14.4253 2.81164 14.5422 2.91106 14.5923 3.12789L15.0795 3.01539L15.5667 2.9029C15.4649 2.46237 15.156 1.96514 14.5865 1.82087L14.4637 2.30557Z" fill="#01325C"/>
</svg>
