<svg width="20" height="20" viewBox="0 0 20 20" fill="none" xmlns="http://www.w3.org/2000/svg">
<path d="M11.3604 3.52734L11.6113 3.98633L12.0586 3.71387L14.4785 2.24121L14.4141 5.07422L14.4023 5.59766L14.9258 5.58594L17.7578 5.52051L16.2861 7.94141L16.0137 8.38867L16.4727 8.63965L18.958 10L16.4727 11.3604L16.0137 11.6113L16.2861 12.0586L17.7578 14.4785L14.9258 14.4141L14.4023 14.4023L14.4141 14.9258L14.4785 17.7578L12.0586 16.2861L11.6113 16.0137L11.3604 16.4727L10 18.958L8.63965 16.4727L8.38867 16.0137L7.94141 16.2861L5.52051 17.7578L5.58594 14.9258L5.59766 14.4023L5.07422 14.4141L2.24121 14.4785L3.71387 12.0586L3.98633 11.6113L3.52734 11.3604L1.04102 10L3.52734 8.63965L3.98633 8.38867L3.71387 7.94141L2.24121 5.52051L5.07422 5.58594L5.59766 5.59766L5.58594 5.07422L5.52051 2.24121L7.94141 3.71387L8.38867 3.98633L8.63965 3.52734L10 1.04102L11.3604 3.52734Z" stroke="#11998E"/>
</svg>
