<svg width="23" height="24" viewBox="0 0 23 24" fill="none" xmlns="http://www.w3.org/2000/svg">
<path d="M11.5 19.0983C7.91474 19.0983 5 16.1546 5 12.5336C5 8.91263 7.91474 5.96887 11.5 5.96887C15.0853 5.96887 18 8.91263 18 12.5336C18 12.8169 17.7674 13.0519 17.4868 13.0519C17.2063 13.0519 16.9737 12.8169 16.9737 12.5336C16.9737 9.48618 14.5174 7.00541 11.5 7.00541C8.48263 7.00541 6.02632 9.48618 6.02632 12.5336C6.02632 15.581 8.48263 18.0618 11.5 18.0618C11.7805 18.0618 12.0132 18.2967 12.0132 18.58C12.0132 18.8634 11.7805 19.0983 11.5 19.0983Z" fill="#98AAB9"/>
<path d="M11.4997 12.8789C11.2192 12.8789 10.9866 12.644 10.9866 12.3607V8.90554C10.9866 8.62222 11.2192 8.38727 11.4997 8.38727C11.7803 8.38727 12.0129 8.62222 12.0129 8.90554V12.3607C12.0129 12.644 11.7803 12.8789 11.4997 12.8789Z" fill="#98AAB9"/>
<path d="M13.5528 5.27768H9.44748C9.16696 5.27768 8.93433 5.04274 8.93433 4.75942C8.93433 4.4761 9.16696 4.24115 9.44748 4.24115H13.5528C13.8333 4.24115 14.0659 4.4761 14.0659 4.75942C14.0659 5.04274 13.8333 5.27768 13.5528 5.27768Z" fill="#98AAB9"/>
<path d="M16.2892 18.407C16.0086 18.407 15.776 18.1721 15.776 17.8887V15.1247C15.776 14.8413 16.0086 14.6064 16.2892 14.6064C16.5697 14.6064 16.8023 14.8413 16.8023 15.1247V17.8887C16.8023 18.1721 16.5697 18.407 16.2892 18.407Z" fill="#98AAB9"/>
<path d="M14.2372 18.407C13.9566 18.407 13.724 18.1721 13.724 17.8887V15.1247C13.724 14.8413 13.9566 14.6064 14.2372 14.6064C14.5177 14.6064 14.7503 14.8413 14.7503 15.1247V17.8887C14.7503 18.1721 14.5177 18.407 14.2372 18.407Z" fill="#98AAB9"/>
</svg>
