<svg width="15" height="15" viewBox="0 0 15 15" fill="none" xmlns="http://www.w3.org/2000/svg">
<path d="M7.5 14.2188C4.225 14.2188 1.5625 11.5562 1.5625 8.28125C1.5625 5.00625 4.225 2.34375 7.5 2.34375C10.775 2.34375 13.4375 5.00625 13.4375 8.28125C13.4375 11.5562 10.775 14.2188 7.5 14.2188ZM7.5 3.28125C4.74375 3.28125 2.5 5.525 2.5 8.28125C2.5 11.0375 4.74375 13.2812 7.5 13.2812C10.2563 13.2812 12.5 11.0375 12.5 8.28125C12.5 5.525 10.2563 3.28125 7.5 3.28125Z" fill="#FF8235"/>
<path d="M7.5 8.59375C7.24375 8.59375 7.03125 8.38125 7.03125 8.125V5C7.03125 4.74375 7.24375 4.53125 7.5 4.53125C7.75625 4.53125 7.96875 4.74375 7.96875 5V8.125C7.96875 8.38125 7.75625 8.59375 7.5 8.59375Z" fill="#FF8235"/>
<path d="M9.375 1.71875H5.625C5.36875 1.71875 5.15625 1.50625 5.15625 1.25C5.15625 0.99375 5.36875 0.78125 5.625 0.78125H9.375C9.63125 0.78125 9.84375 0.99375 9.84375 1.25C9.84375 1.50625 9.63125 1.71875 9.375 1.71875Z" fill="#FF8235"/>
</svg>
